STARTFONT 2.1
FONT -FontForge-Good Times Rg-Book-R-Normal--103-990-75-75-P-765-ISO10646-1
SIZE 99 75 75
FONTBOUNDINGBOX 206 122 -29 -21
COMMENT "Generated by fontforge, http://fontforge.sourceforge.net"
COMMENT "(c) 1998-2012 Typodermic Fonts Inc. See attached license agreement. If agreement is missing visit typodermicfonts.com for more info. Languages by Chikako Larabie"
STARTPROPERTIES 39
FOUNDRY "FontForge"
FAMILY_NAME "Good Times Rg"
WEIGHT_NAME "Book"
SLANT "R"
SETWIDTH_NAME "Normal"
ADD_STYLE_NAME ""
PIXEL_SIZE 103
POINT_SIZE 990
RESOLUTION_X 75
RESOLUTION_Y 75
SPACING "P"
AVERAGE_WIDTH 765
CHARSET_REGISTRY "ISO10646"
CHARSET_ENCODING "1"
FONTNAME_REGISTRY ""
CHARSET_COLLECTIONS "ISO8859-2 ISO8859-9 ISO8859-4 ISO10646-1"
FONT_NAME "GoodTimesRg-Regular"
FACE_NAME "GoodTimesRg-Regular"
COPYRIGHT "(c) 1998-2012 Typodermic Fonts Inc. See attached license agreement. If agreement is missing visit typodermicfonts.com for more info. Languages by Chikako Larabie"
FONT_VERSION "4.001"
FONT_ASCENT 82
FONT_DESCENT 21
UNDERLINE_POSITION -15
UNDERLINE_THICKNESS 3
X_HEIGHT 74
CAP_HEIGHT 74
RAW_ASCENT 799
RAW_DESCENT 201
NORM_SPACE 30
RELATIVE_WEIGHT 40
RELATIVE_SETWIDTH 50
SUPERSCRIPT_X 0
SUPERSCRIPT_Y 30
SUPERSCRIPT_SIZE 30
SUBSCRIPT_X 0
SUBSCRIPT_Y 0
SUBSCRIPT_SIZE 30
AVG_LOWERCASE_WIDTH 878
AVG_UPPERCASE_WIDTH 875
ENDPROPERTIES
CHARS 372
STARTCHAR space
ENCODING 32
SWIDTH 294 0
DWIDTH 30 0
BBX 1 1 0 0
BITMAP
00
ENDCHAR
STARTCHAR exclam
ENCODING 33
SWIDTH 298 0
DWIDTH 31 0
BBX 14 75 9 0
BITMAP
FFF8
FFF8
FFF8
FFF8
FFF8
FFF8
FFF8
FFF8
FFF8
FFF8
FFF8
FFF8
FFF8
FFF8
FFF8
FFF8
FFF8
FFF8
FFF8
FFF8
FFF8
FFF8
FFF8
FFF8
FFF8
FFF8
FFF8
FFF8
FFF8
FFF8
FFF8
FFF8
FFF8
FFF8
FFF8
FFF8
FFF8
FFF8
FFF8
FFF8
FFF8
FFF8
FFF8
FFF8
FFF8
FFF8
FFF8
FFF8
FFF8
FFF8
FFF8
0000
0000
0000
0000
0000
0000
0000
0000
0000
0000
0F80
3FE0
7FF0
FFF8
FFF8
FFF8
FFFC
FFFC
FFF8
FFF8
FFF8
7FF0
3FE0
0F80
ENDCHAR
STARTCHAR quotedbl
ENCODING 34
SWIDTH 452 0
DWIDTH 47 0
BBX 33 27 7 48
BITMAP
FFF81FFF80
FFF81FFF00
FFF81FFF00
FFF80FFF00
FFF80FFF00
FFF80FFF00
7FF80FFF00
7FF80FFF00
7FF80FFF00
7FF00FFF00
7FF00FFF00
7FF00FFF00
7FF00FFE00
7FF00FFE00
7FF007FE00
7FF007FE00
7FF007FE00
3FF007FE00
3FF007FE00
3FF007FE00
3FF007FE00
3FE007FE00
3FE007FE00
3FE007FE00
3FE003FC00
3FE003FC00
3FE003FC00
ENDCHAR
STARTCHAR numbersign
ENCODING 35
SWIDTH 697 0
DWIDTH 72 0
BBX 63 75 5 0
BITMAP
0000007FE0003FE0
0000007FC0007FE0
0000007FC0007FC0
000000FFC0007FC0
000000FF80007FC0
000000FF8000FFC0
000001FF8000FF80
000001FF0000FF80
000001FF0001FF80
000003FF0001FF00
000003FE0001FF00
000003FE0003FF00
000007FE0003FE00
000007FE0003FE00
000007FC0007FE00
000007FC0007FC00
00000FFC0007FC00
00000FF80007FC00
00000FF8000FFC00
01FFFFFFFFFFFFFE
01FFFFFFFFFFFFFE
01FFFFFFFFFFFFFE
01FFFFFFFFFFFFFE
01FFFFFFFFFFFFFE
01FFFFFFFFFFFFFE
01FFFFFFFFFFFFFE
01FFFFFFFFFFFFFE
01FFFFFFFFFFFFFE
00007FC0007FE000
0000FFC0007FC000
0000FF80007FC000
0000FF8000FFC000
0001FF8000FF8000
0001FF0000FF8000
0001FF0000FF8000
0001FF0001FF0000
0003FF0001FF0000
0003FE0001FF0000
0003FE0003FF0000
0007FE0003FE0000
0007FC0003FE0000
0007FC0007FE0000
0007FC0007FC0000
000FFC0007FC0000
000FF80007FC0000
000FF8000FFC0000
FFFFFFFFFFFFFE00
FFFFFFFFFFFFFE00
FFFFFFFFFFFFFE00
FFFFFFFFFFFFFE00
FFFFFFFFFFFFFE00
FFFFFFFFFFFFFE00
FFFFFFFFFFFFFE00
FFFFFFFFFFFFFE00
FFFFFFFFFFFFFE00
007FC0007FE00000
00FFC0007FC00000
00FF80007FC00000
00FF8000FFC00000
01FF8000FF800000
01FF0000FF800000
01FF0001FF800000
01FF0001FF000000
03FF0001FF000000
03FE0001FF000000
03FE0003FF000000
07FE0003FE000000
07FC0003FE000000
07FC0007FE000000
0FFC0007FC000000
0FF80007FC000000
0FF8000FFC000000
0FF8000FF8000000
1FF0000FF8000000
1FF0001FF8000000
ENDCHAR
STARTCHAR dollar
ENCODING 36
SWIDTH 744 0
DWIDTH 77 0
BBX 65 75 6 0
BITMAP
00000003F000000000
00000003F000000000
00000003F000000000
00000003F000000000
00000003F000000000
00000003F000000000
00000003F000000000
0007FFFFFFFFFFFC00
003FFFFFFFFFFFFC00
00FFFFFFFFFFFFFC00
03FFFFFFFFFFFFFC00
07FFFFFFFFFFFFFC00
0FFFFFFFFFFFFFFC00
1FFFFFFFFFFFFFFC00
3FFFFFFFFFFFFFFC00
3FFFFFFFFFFFFFFC00
7FFFFFFFFFFFFFFC00
7FFFFFFFFFFFFFFC00
7FFE0003F000000000
FFF80003F000000000
FFF00003F000000000
FFF00003F000000000
FFE00003F000000000
FFE00003F000000000
FFE00003F000000000
FFE00003F000000000
FFE00003F000000000
FFE00003F000000000
FFF00003F000000000
7FF00003F000000000
7FF80003F000000000
7FFE0003F000000000
3FFFFFFFFFFFF00000
1FFFFFFFFFFFFE0000
1FFFFFFFFFFFFF8000
0FFFFFFFFFFFFFE000
07FFFFFFFFFFFFF000
03FFFFFFFFFFFFF800
00FFFFFFFFFFFFFC00
003FFFFFFFFFFFFC00
0007FFFFFFFFFFFE00
00000003F0003FFE00
00000003F0000FFF00
00000003F00007FF00
00000003F00003FF00
00000003F00003FF00
00000003F00003FF00
00000003F00003FF00
00000003F00001FF80
00000003F00001FF80
00000003F00003FF80
00000003F00003FF80
00000003F00003FF00
00000003F00007FF00
00000003F00007FF00
00000003F0000FFF00
00000003F0003FFF00
7FFFFFFFFFFFFFFE00
7FFFFFFFFFFFFFFE00
7FFFFFFFFFFFFFFC00
7FFFFFFFFFFFFFFC00
7FFFFFFFFFFFFFF800
7FFFFFFFFFFFFFF000
7FFFFFFFFFFFFFE000
7FFFFFFFFFFFFFC000
7FFFFFFFFFFFFF8000
7FFFFFFFFFFFFC0000
7FFFFFFFFFFFE00000
00000003F000000000
00000003F000000000
00000003F000000000
00000003F000000000
00000003F000000000
00000003F000000000
00000003F000000000
ENDCHAR
STARTCHAR percent
ENCODING 37
SWIDTH 965 0
DWIDTH 99 0
BBX 91 87 4 -7
BITMAP
0000000000000000003FC000
0000000000000000007FC000
000000000000000000FF8000
0001FF000000000001FF0000
000FFFF00000000001FE0000
003FFFFC0000000003FE0000
00FFFFFE0000000007FC0000
01FFFFFF800000000FF80000
03FFFFFFC00000001FF00000
07FFFFFFE00000001FE00000
0FFF00FFE00000003FE00000
1FF8003FF00000007FC00000
1FE0000FF8000000FF800000
3FC00007F8000001FF000000
3F800003FC000001FF000000
7F800001FC000003FE000000
7F000001FC000007FC000000
7F000000FE00000FF8000000
7E000000FE00000FF0000000
FE000000FE00001FF0000000
FE000000FE00003FE0000000
FE0000007E00007FC0000000
FE0000007E0000FF80000000
FE0000007E0000FF00000000
FE000000FE0001FF00000000
7E000000FE0003FE00000000
7E000000FE0007FC00000000
7F000000FC0007F800000000
7F000001FC000FF800000000
3F800001FC001FF000000000
3F800003F8003FE000000000
1FC00007F8007FC000000000
1FE0000FF0007F8000000000
0FF8001FF000FF8000000000
0FFF00FFE001FF0000000000
07FFFFFFC003FE0000000000
03FFFFFF8007FC0000000000
01FFFFFF0007FC0000000000
007FFFFE000FF80000000000
003FFFF8001FF00000000000
000FFFE0003FE00000000000
0001FF00003FC00000000000
00000000007FC00000000000
0000000000FF80001FF00000
0000000001FF0000FFFE0000
0000000003FE0003FFFFC000
0000000003FE000FFFFFE000
0000000007FC001FFFFFF000
000000000FF8003FFFFFFC00
000000001FF0007FFFFFFC00
000000001FE000FFE00FFE00
000000003FE001FF8003FF00
000000007FC001FE0000FF80
00000000FF8003FC00007F80
00000001FF0003F800003FC0
00000001FF0007F800001FC0
00000003FE0007F000001FC0
00000007FC0007F000000FE0
0000000FF80007E000000FE0
0000001FF0000FE000000FE0
0000001FF0000FE000000FE0
0000003FE0000FE000000FE0
0000007FC0000FE000000FE0
000000FF80000FE000000FE0
000000FF80000FE000000FE0
000001FF00000FE000000FE0
000003FE000007E000000FE0
000007FC000007F000000FC0
00000FF8000007F000001FC0
00000FF8000003F800001FC0
00001FF0000003F800003F80
00003FE0000003FC00007F80
00007FC0000001FE0000FF00
00007F80000000FF8003FF00
0000FF80000000FFE00FFE00
0001FF000000007FFFFFFC00
0003FE000000003FFFFFF800
0007FC000000001FFFFFF000
0007FC000000000FFFFFE000
000FF80000000003FFFF8000
001FF00000000000FFFE0000
003FE000000000001FF00000
007FC0000000000000000000
007FC0000000000000000000
00FF80000000000000000000
01FF00000000000000000000
03FE00000000000000000000
ENDCHAR
STARTCHAR ampersand
ENCODING 38
SWIDTH 759 0
DWIDTH 78 0
BBX 70 75 5 0
BITMAP
00001FFFFF00000000
0001FFFFFF00000000
000FFFFFFF00000000
003FFFFFFF00000000
007FFFFFFF00000000
01FFFFFFFF00000000
03FFFFFFFF00000000
07FFFFFFFF00000000
07FFFFFFFF00000000
0FFFFFFFFF00000000
1FFFFFFFFF00000000
1FFFFFFFFF00000000
1FFFFFFFFF00000000
3FFFF8000000000000
3FFFE0000000000000
3FFF80000000000000
3FFF00000000000000
3FFF00000000000000
7FFE00000000000000
7FFE00000000000000
7FFE00000000000000
3FFE00000000000000
3FFE00000000000000
3FFE00000000000000
3FFE00000000000000
3FFE00000000000000
1FFF00000000000000
1FFF00000000000000
1FFF80000000000000
0FFFE0000000000000
07FFF8000000000000
03FFFFFFFFFFFFFFC0
01FFFFFFFFFFFFFFC0
00FFFFFFFFFFFFFFC0
003FFFFFFFFFFFFFC0
001FFFFFFFFFFFFFC0
007FFFFFFFFFFFFFC0
01FFFFFFFFFFFFFFC0
03FFFFFFFFFFFFFFC0
07FFFFFFFFFFFFFFC0
0FFFFFFFFFFFFFFFC0
1FFFFFFFFFFFFFFFC0
3FFFF800000FFF8000
3FFFC000000FFF8000
7FFF0000000FFF8000
7FFE0000000FFF8000
7FFC0000000FFF8000
FFFC0000000FFF8000
FFFC0000000FFF8000
FFF80000000FFF8000
FFF80000000FFF8000
FFF80000000FFF8000
FFF80000000FFF8000
FFF80000000FFF8000
FFFC0000000FFF8000
FFFC0000000FFF8000
FFFC0000000FFF8000
7FFE0000000FFF8000
7FFF0000000FFF8000
7FFF8000000FFF8000
7FFFE000000FFF8000
3FFFFC00000FFF8000
3FFFFFFFFFFFFFFFFC
1FFFFFFFFFFFFFFFFC
1FFFFFFFFFFFFFFFFC
0FFFFFFFFFFFFFFFFC
07FFFFFFFFFFFFFFFC
07FFFFFFFFFFFFFFFC
03FFFFFFFFFFFFFFFC
01FFFFFFFFFFFFFFFC
007FFFFFFFFFFFFFFC
003FFFFFFFFFFFFFFC
000FFFFFFFFFFFFFFC
0003FFFFFFFFFFFFFC
00003FFFFFFFFFFFFC
ENDCHAR
STARTCHAR quotesingle
ENCODING 39
SWIDTH 255 0
DWIDTH 26 0
BBX 14 27 6 48
BITMAP
FFFC
7FFC
7FFC
7FF8
7FF8
7FF8
7FF8
7FF8
7FF8
7FF8
7FF8
3FF8
3FF8
3FF8
3FF0
3FF0
3FF0
3FF0
3FF0
3FF0
3FF0
3FF0
1FF0
1FF0
1FF0
1FE0
1FE0
ENDCHAR
STARTCHAR parenleft
ENCODING 40
SWIDTH 356 0
DWIDTH 37 0
BBX 20 94 10 -9
BITMAP
003FF0
003FE0
003FE0
007FE0
007FC0
00FFC0
00FF80
00FF80
01FF80
01FF00
03FF00
03FE00
03FE00
07FE00
07FC00
07FC00
0FFC00
0FF800
0FF800
0FF800
1FF000
1FF000
1FF000
3FE000
3FE000
3FE000
3FE000
3FC000
7FC000
7FC000
7FC000
7FC000
7F8000
7F8000
FF8000
FF8000
FF8000
FF8000
FF0000
FF0000
FF0000
FF0000
FF0000
FF0000
FF0000
FF0000
FF0000
FF0000
FF0000
FF0000
FF0000
FF0000
FF0000
FF0000
FF0000
FF0000
FF8000
FF8000
FF8000
FF8000
7F8000
7F8000
7F8000
7FC000
7FC000
7FC000
3FC000
3FE000
3FE000
3FE000
1FE000
1FF000
1FF000
1FF000
0FF000
0FF800
0FF800
0FF800
07FC00
07FC00
07FC00
03FE00
03FE00
03FF00
01FF00
01FF00
00FF80
00FF80
00FFC0
007FC0
007FE0
003FE0
003FE0
001FF0
ENDCHAR
STARTCHAR parenright
ENCODING 41
SWIDTH 355 0
DWIDTH 37 0
BBX 21 94 6 -9
BITMAP
7FC000
7FE000
3FE000
3FE000
1FF000
1FF000
1FF800
0FF800
0FF800
07FC00
07FC00
07FC00
03FE00
03FE00
03FE00
01FF00
01FF00
01FF00
00FF80
00FF80
00FF80
007FC0
007FC0
007FC0
007FC0
003FE0
003FE0
003FE0
003FE0
001FE0
001FF0
001FF0
001FF0
001FF0
000FF0
000FF0
000FF0
000FF8
000FF8
000FF8
000FF8
000FF8
000FF8
000FF8
000FF8
0007F8
0007F8
0007F8
0007F8
000FF8
000FF8
000FF8
000FF8
000FF8
000FF8
000FF8
000FF8
000FF0
000FF0
000FF0
001FF0
001FF0
001FF0
001FF0
001FE0
003FE0
003FE0
003FE0
003FE0
003FC0
007FC0
007FC0
007FC0
00FF80
00FF80
00FF80
00FF80
01FF00
01FF00
01FF00
03FE00
03FE00
07FE00
07FC00
07FC00
0FF800
0FF800
1FF800
1FF000
1FF000
3FE000
3FE000
7FC000
FFC000
ENDCHAR
STARTCHAR asterisk
ENCODING 42
SWIDTH 469 0
DWIDTH 48 0
BBX 36 34 6 41
BITMAP
0001F80000
0001F80000
0001F80000
0001F80000
0001F80000
0001F80000
0001F80000
0001F80000
0001F80000
2001F80040
3C01F803C0
3FC1F81FE0
7FF9F9FFE0
7FFFFFFFE0
7FFFFFFFF0
BFFFFFFFC0
07FFFFFE00
00FFFFF000
000FFF8000
0007FE0000
000FFF0000
001FFF8000
001FFFC000
003F9FC000
007F9FE000
007F0FF000
00FE07F000
01FE03F800
03FC03FC00
03F801FC00
07F800FE00
01F000F800
00E0007000
0020002000
ENDCHAR
STARTCHAR plus
ENCODING 43
SWIDTH 690 0
DWIDTH 71 0
BBX 59 58 6 9
BITMAP
0000007FC0000000
0000007FC0000000
0000007FC0000000
0000007FC0000000
0000007FC0000000
0000007FC0000000
0000007FC0000000
0000007FC0000000
0000007FC0000000
0000007FC0000000
0000007FC0000000
0000007FC0000000
0000007FC0000000
0000007FC0000000
0000007FC0000000
0000007FC0000000
0000007FC0000000
0000007FC0000000
0000007FC0000000
0000007FC0000000
0000007FC0000000
0000007FC0000000
0000007FC0000000
0000007FC0000000
FFFFFFFFFFFFFFE0
FFFFFFFFFFFFFFE0
FFFFFFFFFFFFFFE0
FFFFFFFFFFFFFFE0
FFFFFFFFFFFFFFE0
FFFFFFFFFFFFFFE0
FFFFFFFFFFFFFFE0
FFFFFFFFFFFFFFE0
FFFFFFFFFFFFFFE0
0000007FC0000000
0000007FC0000000
0000007FC0000000
0000007FC0000000
0000007FC0000000
0000007FC0000000
0000007FC0000000
0000007FC0000000
0000007FC0000000
0000007FC0000000
0000007FC0000000
0000007FC0000000
0000007FC0000000
0000007FC0000000
0000007FC0000000
0000007FC0000000
0000007FC0000000
0000007FC0000000
0000007FC0000000
0000007FC0000000
0000007FC0000000
0000007FC0000000
0000007FC0000000
0000007FC0000000
0000007FC0000000
ENDCHAR
STARTCHAR comma
ENCODING 44
SWIDTH 259 0
DWIDTH 27 0
BBX 13 27 7 -12
BITMAP
FFF8
FFF8
FFF8
FFF8
FFF0
FFF0
FFF0
FFF0
FFF0
FFE0
FFE0
FFE0
FFE0
FFE0
FFC0
FFC0
FFC0
FFC0
FFC0
FF80
FF80
FF80
FF80
FF80
FF80
FF00
FF00
ENDCHAR
STARTCHAR hyphen
ENCODING 45
SWIDTH 296 0
DWIDTH 30 0
BBX 25 9 3 34
BITMAP
FFFFFF80
FFFFFF80
FFFFFF80
FFFFFF80
FFFFFF80
FFFFFF80
FFFFFF80
FFFFFF80
FFFFFF80
ENDCHAR
STARTCHAR period
ENCODING 46
SWIDTH 262 0
DWIDTH 27 0
BBX 15 14 6 0
BITMAP
07C0
1FF0
3FF8
7FFC
7FFC
7FFC
FFFC
FFFE
7FFC
7FFC
7FFC
3FF8
1FF0
07C0
ENDCHAR
STARTCHAR slash
ENCODING 47
SWIDTH 444 0
DWIDTH 46 0
BBX 44 75 1 0
BITMAP
000000001FF0
000000003FE0
000000003FE0
000000007FC0
000000007FC0
000000007F80
00000000FF80
00000000FF00
00000001FF00
00000001FE00
00000003FE00
00000003FC00
00000007FC00
00000007F800
0000000FF800
0000000FF800
0000001FF000
0000001FF000
0000003FE000
0000003FE000
0000003FC000
0000007FC000
0000007F8000
000000FF8000
000000FF0000
000001FF0000
000001FE0000
000003FE0000
000003FE0000
000007FC0000
000007FC0000
00000FF80000
00000FF80000
00001FF00000
00001FF00000
00003FE00000
00003FE00000
00003FC00000
00007FC00000
00007F800000
0000FF800000
0000FF800000
0001FF000000
0001FF000000
0003FE000000
0003FE000000
0007FC000000
0007FC000000
000FF8000000
000FF8000000
001FF0000000
001FF0000000
003FE0000000
003FE0000000
003FC0000000
007FC0000000
007FC0000000
00FF80000000
00FF80000000
01FF00000000
01FF00000000
03FE00000000
03FE00000000
07FC00000000
07FC00000000
0FF800000000
0FF800000000
1FF000000000
1FF000000000
3FF000000000
3FE000000000
3FE000000000
7FC000000000
7FC000000000
FF8000000000
ENDCHAR
STARTCHAR zero
ENCODING 48
SWIDTH 838 0
DWIDTH 86 0
BBX 78 75 4 0
BITMAP
00000000FFFC00000000
0000000FFFFFE0000000
000000FFFFFFFC000000
000003FFFFFFFF000000
00000FFFFFFFFFC00000
00003FFFFFFFFFF00000
0000FFFFFFFFFFFC0000
0001FFFFFFFFFFFE0000
0003FFFFFFFFFFFF8000
000FFFFFFFFFFFFFC000
001FFFFFFFFFFFFFE000
003FFFFFFFFFFFFFF000
007FFFFFFFFFFFFFF800
00FFFFFFC00FFFFFFC00
00FFFFF800007FFFFE00
01FFFFE000001FFFFE00
03FFFF80000007FFFF00
03FFFE00000001FFFF80
07FFFC00000000FFFF80
0FFFF8000000003FFFC0
0FFFF0000000001FFFC0
1FFFE0000000000FFFE0
1FFFC0000000000FFFE0
1FFF800000000007FFF0
3FFF800000000003FFF0
3FFF000000000003FFF0
3FFF000000000001FFF8
7FFE000000000001FFF8
7FFE000000000001FFF8
7FFC000000000000FFF8
7FFC000000000000FFFC
7FFC000000000000FFFC
7FFC000000000000FFFC
FFFC0000000000007FFC
FFFC0000000000007FFC
FFF80000000000007FFC
FFF80000000000007FFC
FFF80000000000007FFC
FFF80000000000007FFC
FFF80000000000007FFC
FFFC0000000000007FFC
7FFC000000000000FFFC
7FFC000000000000FFFC
7FFC000000000000FFF8
7FFC000000000000FFF8
7FFE000000000000FFF8
3FFE000000000001FFF8
3FFE000000000001FFF8
3FFF000000000003FFF0
3FFF000000000003FFF0
1FFF800000000007FFF0
1FFF800000000007FFE0
0FFFC0000000000FFFE0
0FFFE0000000001FFFC0
07FFF0000000003FFFC0
07FFF8000000007FFF80
03FFFC00000000FFFF80
03FFFE00000001FFFF00
01FFFF80000007FFFE00
00FFFFE000001FFFFE00
00FFFFF800007FFFFC00
007FFFFFC00FFFFFF800
003FFFFFFFFFFFFFF000
001FFFFFFFFFFFFFE000
000FFFFFFFFFFFFFC000
0007FFFFFFFFFFFF8000
0003FFFFFFFFFFFF0000
0000FFFFFFFFFFFC0000
00007FFFFFFFFFF80000
00001FFFFFFFFFF00000
000007FFFFFFFFC00000
000001FFFFFFFF000000
0000007FFFFFF8000000
0000000FFFFFC0000000
000000007FFC00000000
ENDCHAR
STARTCHAR one
ENCODING 49
SWIDTH 385 0
DWIDTH 40 0
BBX 31 75 2 0
BITMAP
FFFC0000
FFFF8000
FFFFF000
FFFFFC00
FFFFFE00
FFFFFF00
FFFFFF80
FFFFFFC0
FFFFFFE0
FFFFFFE0
FFFFFFF0
FFFFFFF8
FFFFFFF8
001FFFF8
0003FFFC
0001FFFC
0000FFFC
00007FFE
00007FFE
00007FFE
00003FFE
00003FFE
00003FFE
00003FFE
00003FFE
00003FFE
00003FFE
00003FFE
00003FFE
00003FFE
00003FFE
00003FFE
00003FFE
00003FFE
00003FFE
00003FFE
00003FFE
00003FFE
00003FFE
00003FFE
00003FFE
00003FFE
00003FFE
00003FFE
00003FFE
00003FFE
00003FFE
00003FFE
00003FFE
00003FFE
00003FFE
00003FFE
00003FFE
00003FFE
00003FFE
00003FFE
00003FFE
00003FFE
00003FFE
00003FFE
00003FFE
00003FFE
00003FFE
00003FFE
00003FFE
00003FFE
00003FFE
00003FFE
00003FFE
00003FFE
00003FFE
00003FFE
00003FFE
00003FFE
00003FFE
ENDCHAR
STARTCHAR two
ENCODING 50
SWIDTH 825 0
DWIDTH 85 0
BBX 74 75 6 0
BITMAP
7FFFFFFFFFFFFF000000
7FFFFFFFFFFFFFF00000
7FFFFFFFFFFFFFFE0000
7FFFFFFFFFFFFFFF0000
7FFFFFFFFFFFFFFFC000
7FFFFFFFFFFFFFFFE000
7FFFFFFFFFFFFFFFF000
7FFFFFFFFFFFFFFFF800
7FFFFFFFFFFFFFFFFC00
7FFFFFFFFFFFFFFFFE00
7FFFFFFFFFFFFFFFFE00
7FFFFFFFFFFFFFFFFF00
7FFFFFFFFFFFFFFFFF00
00000000000003FFFF00
00000000000000FFFF80
000000000000003FFF80
000000000000003FFF80
000000000000001FFF80
000000000000000FFFC0
000000000000000FFFC0
000000000000000FFFC0
000000000000000FFFC0
000000000000000FFFC0
000000000000000FFF80
000000000000000FFF80
000000000000000FFF80
000000000000001FFF80
000000000000001FFF80
000000000000003FFF00
00000000000000FFFF00
00000000000003FFFF00
00007FFFFFFFFFFFFE00
0007FFFFFFFFFFFFFC00
001FFFFFFFFFFFFFFC00
007FFFFFFFFFFFFFF800
01FFFFFFFFFFFFFFF000
03FFFFFFFFFFFFFFE000
07FFFFFFFFFFFFFFC000
0FFFFFFFFFFFFFFF0000
0FFFFFFFFFFFFFFE0000
1FFFFFFFFFFFFFF00000
1FFFFFFFFFFFFF800000
3FFFE000000000000000
3FFF8000000000000000
3FFE0000000000000000
7FFE0000000000000000
7FFC0000000000000000
7FFC0000000000000000
7FF80000000000000000
7FF80000000000000000
7FF80000000000000000
FFF80000000000000000
FFF80000000000000000
FFF80000000000000000
FFF80000000000000000
FFF80000000000000000
FFF80000000000000000
FFF80000000000000000
FFF80000000000000000
FFF80000000000000000
FFF80000000000000000
FFF80000000000000000
FFFFFFFFFFFFFFFFFF00
FFFFFFFFFFFFFFFFFF00
FFFFFFFFFFFFFFFFFF00
FFFFFFFFFFFFFFFFFF00
FFFFFFFFFFFFFFFFFF00
FFFFFFFFFFFFFFFFFF00
FFFFFFFFFFFFFFFFFF00
FFFFFFFFFFFFFFFFFF00
FFFFFFFFFFFFFFFFFF00
FFFFFFFFFFFFFFFFFF00
FFFFFFFFFFFFFFFFFF00
FFFFFFFFFFFFFFFFFF00
FFFFFFFFFFFFFFFFFF00
ENDCHAR
STARTCHAR three
ENCODING 51
SWIDTH 827 0
DWIDTH 85 0
BBX 75 75 5 0
BITMAP
FFFFFFFFFFFFFF000000
FFFFFFFFFFFFFFF00000
FFFFFFFFFFFFFFFE0000
FFFFFFFFFFFFFFFF8000
FFFFFFFFFFFFFFFFE000
FFFFFFFFFFFFFFFFF000
FFFFFFFFFFFFFFFFF800
FFFFFFFFFFFFFFFFFC00
FFFFFFFFFFFFFFFFFE00
FFFFFFFFFFFFFFFFFE00
FFFFFFFFFFFFFFFFFF00
FFFFFFFFFFFFFFFFFF00
FFFFFFFFFFFFFFFFFF80
0000000000000FFFFF80
00000000000000FFFF80
000000000000003FFF80
000000000000001FFFC0
000000000000001FFFC0
000000000000000FFFC0
000000000000000FFFC0
000000000000000FFFC0
000000000000000FFFC0
000000000000000FFFC0
000000000000000FFF80
000000000000000FFF80
000000000000000FFF80
000000000000000FFF80
000000000000001FFF00
000000000000003FFF00
000000000000007FFE00
00000000000003FFFC00
00007FFFFFFFFFFFF800
00007FFFFFFFFFFFF000
00007FFFFFFFFFFFE000
00007FFFFFFFFFFF8000
00007FFFFFFFFFFF8000
00007FFFFFFFFFFFE000
00007FFFFFFFFFFFF000
00007FFFFFFFFFFFF800
00007FFFFFFFFFFFFC00
00007FFFFFFFFFFFFE00
00007FFFFFFFFFFFFF00
00000000000001FFFF80
000000000000007FFF80
000000000000001FFFC0
000000000000000FFFC0
0000000000000007FFC0
0000000000000007FFE0
0000000000000007FFE0
0000000000000003FFE0
0000000000000003FFE0
0000000000000003FFE0
0000000000000003FFE0
0000000000000003FFE0
0000000000000007FFE0
0000000000000007FFE0
0000000000000007FFE0
000000000000000FFFE0
000000000000001FFFC0
000000000000003FFFC0
00000000000000FFFFC0
0000000000000FFFFF80
FFFFFFFFFFFFFFFFFF80
FFFFFFFFFFFFFFFFFF80
FFFFFFFFFFFFFFFFFF00
FFFFFFFFFFFFFFFFFE00
FFFFFFFFFFFFFFFFFE00
FFFFFFFFFFFFFFFFFC00
FFFFFFFFFFFFFFFFF800
FFFFFFFFFFFFFFFFF000
FFFFFFFFFFFFFFFFC000
FFFFFFFFFFFFFFFF8000
FFFFFFFFFFFFFFFE0000
FFFFFFFFFFFFFFF80000
FFFFFFFFFFFFFF800000
ENDCHAR
STARTCHAR four
ENCODING 52
SWIDTH 845 0
DWIDTH 87 0
BBX 79 75 5 0
BITMAP
FFF80000000000FFF800
FFF80000000000FFF800
FFF80000000000FFF800
FFF80000000000FFF800
FFF80000000000FFF800
FFF80000000000FFF800
FFF80000000000FFF800
FFF80000000000FFF800
FFF80000000000FFF800
FFF80000000000FFF800
FFF80000000000FFF800
FFF80000000000FFF800
FFF80000000000FFF800
FFF80000000000FFF800
FFF80000000000FFF800
FFF80000000000FFF800
FFF80000000000FFF800
FFF80000000000FFF800
FFF80000000000FFF800
FFF80000000000FFF800
FFF80000000000FFF800
FFF80000000000FFF800
FFF80000000000FFF800
FFF80000000000FFF800
FFF80000000000FFF800
FFF80000000000FFF800
FFF80000000000FFF800
FFF80000000000FFF800
FFF80000000000FFF800
FFF80000000000FFF800
FFF80000000000FFF800
FFF80000000000FFF800
FFF80000000000FFF800
FFF80000000000FFF800
FFF80000000000FFF800
FFFC0000000000FFF800
FFFC0000000000FFF800
FFFC0000000000FFF800
7FFE0000000000FFF800
7FFF0000000000FFF800
7FFF8000000000FFF800
7FFFF000000000FFF800
3FFFFFFFFFFFFFFFFFFE
3FFFFFFFFFFFFFFFFFFE
1FFFFFFFFFFFFFFFFFFE
1FFFFFFFFFFFFFFFFFFE
0FFFFFFFFFFFFFFFFFFE
07FFFFFFFFFFFFFFFFFE
07FFFFFFFFFFFFFFFFFE
01FFFFFFFFFFFFFFFFFE
00FFFFFFFFFFFFFFFFFE
007FFFFFFFFFFFFFFFFE
001FFFFFFFFFFFFFFFFE
0003FFFFFFFFFFFFFFFE
00003FFFFFFFFFFFFFFE
00000000000000FFF800
00000000000000FFF800
00000000000000FFF800
00000000000000FFF800
00000000000000FFF800
00000000000000FFF800
00000000000000FFF800
00000000000000FFF800
00000000000000FFF800
00000000000000FFF800
00000000000000FFF800
00000000000000FFF800
00000000000000FFF800
00000000000000FFF800
00000000000000FFF800
00000000000000FFF800
00000000000000FFF800
00000000000000FFF800
00000000000000FFF800
00000000000000FFF800
ENDCHAR
STARTCHAR five
ENCODING 53
SWIDTH 885 0
DWIDTH 91 0
BBX 80 75 6 0
BITMAP
FFFFFFFFFFFFFFFFFFF0
FFFFFFFFFFFFFFFFFFF0
FFFFFFFFFFFFFFFFFFF0
FFFFFFFFFFFFFFFFFFF0
FFFFFFFFFFFFFFFFFFF0
FFFFFFFFFFFFFFFFFFF0
FFFFFFFFFFFFFFFFFFF0
FFFFFFFFFFFFFFFFFFF0
FFFFFFFFFFFFFFFFFFF0
FFFFFFFFFFFFFFFFFFF0
FFFFFFFFFFFFFFFFFFF0
FFFFFFFFFFFFFFFFFFF0
FFFFFFFFFFFFFFFFFFF0
FFFC0000000000000000
FFFC0000000000000000
FFFC0000000000000000
FFFC0000000000000000
FFFC0000000000000000
FFFC0000000000000000
FFFC0000000000000000
FFFC0000000000000000
FFFC0000000000000000
FFFC0000000000000000
FFFC0000000000000000
FFFC0000000000000000
FFFC0000000000000000
FFFC0000000000000000
FFFC0000000000000000
FFFC0000000000000000
FFFC0000000000000000
FFFC0000000000000000
FFFFFFFFFFFFFFFE0000
FFFFFFFFFFFFFFFFE000
FFFFFFFFFFFFFFFFFC00
FFFFFFFFFFFFFFFFFE00
FFFFFFFFFFFFFFFFFF80
FFFFFFFFFFFFFFFFFFC0
FFFFFFFFFFFFFFFFFFE0
FFFFFFFFFFFFFFFFFFF0
FFFFFFFFFFFFFFFFFFF0
FFFFFFFFFFFFFFFFFFF8
FFFFFFFFFFFFFFFFFFFC
0000000000000007FFFC
0000000000000001FFFC
00000000000000007FFE
00000000000000003FFE
00000000000000003FFE
00000000000000001FFE
00000000000000001FFF
00000000000000001FFF
00000000000000001FFF
00000000000000001FFF
00000000000000001FFF
00000000000000001FFF
00000000000000001FFF
00000000000000001FFF
00000000000000001FFF
00000000000000003FFE
00000000000000007FFE
0000000000000000FFFE
0000000000000001FFFE
000000000000000FFFFC
FFFFFFFFFFFFFFFFFFFC
FFFFFFFFFFFFFFFFFFFC
FFFFFFFFFFFFFFFFFFF8
FFFFFFFFFFFFFFFFFFF8
FFFFFFFFFFFFFFFFFFF0
FFFFFFFFFFFFFFFFFFE0
FFFFFFFFFFFFFFFFFFC0
FFFFFFFFFFFFFFFFFF80
FFFFFFFFFFFFFFFFFF00
FFFFFFFFFFFFFFFFFE00
FFFFFFFFFFFFFFFFF800
FFFFFFFFFFFFFFFFC000
FFFFFFFFFFFFFFFE0000
ENDCHAR
STARTCHAR six
ENCODING 54
SWIDTH 872 0
DWIDTH 90 0
BBX 80 75 4 0
BITMAP
0000001FFFFFFFFFFFF8
000003FFFFFFFFFFFFF8
00001FFFFFFFFFFFFFF8
00007FFFFFFFFFFFFFF8
0001FFFFFFFFFFFFFFF8
0007FFFFFFFFFFFFFFF8
000FFFFFFFFFFFFFFFF8
001FFFFFFFFFFFFFFFF8
003FFFFFFFFFFFFFFFF8
007FFFFFFFFFFFFFFFF8
00FFFFFFFFFFFFFFFFF8
01FFFFFFFFFFFFFFFFF8
03FFFFFFFFFFFFFFFFF8
03FFFFF8000000000000
07FFFF80000000000000
07FFFE00000000000000
0FFFF800000000000000
0FFFF000000000000000
1FFFE000000000000000
1FFFC000000000000000
1FFF8000000000000000
3FFF8000000000000000
3FFF0000000000000000
3FFF0000000000000000
7FFE0000000000000000
7FFE0000000000000000
7FFE0000000000000000
7FFC0000000000000000
7FFC0000000000000000
7FFC0000000000000000
7FFC0000000000000000
FFFFFFFFFFFFFFFF0000
FFFFFFFFFFFFFFFFF000
FFFFFFFFFFFFFFFFFC00
FFFFFFFFFFFFFFFFFF00
FFFFFFFFFFFFFFFFFFC0
FFFFFFFFFFFFFFFFFFE0
FFFFFFFFFFFFFFFFFFF0
FFFFFFFFFFFFFFFFFFF8
FFFFFFFFFFFFFFFFFFF8
FFFFFFFFFFFFFFFFFFFC
FFFFFFFFFFFFFFFFFFFC
7FFC000000000007FFFE
7FFC000000000000FFFE
7FFC0000000000007FFE
7FFC0000000000003FFF
7FFC0000000000001FFF
7FFE0000000000001FFF
7FFE0000000000001FFF
3FFE0000000000000FFF
3FFE0000000000000FFF
3FFF0000000000000FFF
3FFF0000000000000FFF
1FFF8000000000000FFF
1FFFC000000000001FFF
1FFFC000000000001FFF
0FFFE000000000001FFF
0FFFF000000000003FFF
07FFFC00000000003FFF
07FFFE00000000007FFF
03FFFFC000000001FFFE
03FFFFF80000000FFFFE
01FFFFFFFFFFFFFFFFFE
00FFFFFFFFFFFFFFFFFC
00FFFFFFFFFFFFFFFFFC
007FFFFFFFFFFFFFFFF8
003FFFFFFFFFFFFFFFF0
001FFFFFFFFFFFFFFFF0
0007FFFFFFFFFFFFFFE0
0003FFFFFFFFFFFFFFC0
0000FFFFFFFFFFFFFF80
00007FFFFFFFFFFFFE00
00000FFFFFFFFFFFF800
000001FFFFFFFFFFE000
0000000FFFFFFFFF0000
ENDCHAR
STARTCHAR seven
ENCODING 55
SWIDTH 756 0
DWIDTH 78 0
BBX 71 75 5 0
BITMAP
FFFFFFFFFFFFFFFFC0
FFFFFFFFFFFFFFFFF0
FFFFFFFFFFFFFFFFF8
FFFFFFFFFFFFFFFFFC
FFFFFFFFFFFFFFFFFC
FFFFFFFFFFFFFFFFFE
FFFFFFFFFFFFFFFFFE
FFFFFFFFFFFFFFFFFE
FFFFFFFFFFFFFFFFFC
FFFFFFFFFFFFFFFFFC
FFFFFFFFFFFFFFFFFC
FFFFFFFFFFFFFFFFF8
FFFFFFFFFFFFFFFFF0
0000000000001FFFE0
0000000000003FFFE0
0000000000007FFFC0
0000000000007FFF80
000000000000FFFF00
000000000001FFFE00
000000000003FFFC00
000000000007FFFC00
00000000000FFFF800
00000000000FFFF000
00000000001FFFE000
00000000003FFFC000
00000000007FFFC000
0000000000FFFF8000
0000000001FFFF0000
0000000001FFFE0000
0000000003FFFC0000
0000000007FFF80000
000000000FFFF80000
000000001FFFF00000
000000003FFFE00000
000000003FFFC00000
000000007FFF800000
00000000FFFF800000
00000001FFFF000000
00000003FFFE000000
00000007FFFC000000
00000007FFF8000000
0000000FFFF0000000
0000001FFFF0000000
0000003FFFE0000000
0000007FFFC0000000
0000007FFF80000000
000000FFFF00000000
000001FFFF00000000
000003FFFE00000000
000007FFFC00000000
00000FFFF800000000
00000FFFF000000000
00001FFFF000000000
00003FFFE000000000
00007FFFC000000000
0000FFFF8000000000
0001FFFF0000000000
0001FFFE0000000000
0003FFFE0000000000
0007FFFC0000000000
000FFFF80000000000
001FFFF00000000000
003FFFE00000000000
003FFFE00000000000
007FFFC00000000000
00FFFF800000000000
01FFFF000000000000
03FFFE000000000000
03FFFC000000000000
07FFFC000000000000
0FFFF8000000000000
1FFFF0000000000000
3FFFE0000000000000
7FFFC0000000000000
FFFFC0000000000000
ENDCHAR
STARTCHAR eight
ENCODING 56
SWIDTH 898 0
DWIDTH 93 0
BBX 82 75 5 0
BITMAP
00001FFFFFFFFFFE000000
0001FFFFFFFFFFFFF00000
000FFFFFFFFFFFFFFC0000
003FFFFFFFFFFFFFFF0000
007FFFFFFFFFFFFFFFC000
01FFFFFFFFFFFFFFFFE000
03FFFFFFFFFFFFFFFFF000
03FFFFFFFFFFFFFFFFF800
07FFFFFFFFFFFFFFFFFC00
0FFFFFFFFFFFFFFFFFFC00
0FFFFFFFFFFFFFFFFFFE00
1FFFFFFFFFFFFFFFFFFE00
1FFFFFFFFFFFFFFFFFFF00
3FFFFE000000001FFFFF00
3FFFE00000000001FFFF00
3FFFC000000000007FFF80
3FFF8000000000003FFF80
3FFF0000000000001FFF80
3FFE0000000000001FFF80
3FFE0000000000001FFF80
3FFE0000000000000FFF80
3FFE0000000000000FFF80
3FFE0000000000000FFF80
3FFE0000000000000FFF80
3FFE0000000000001FFF00
3FFE0000000000001FFF00
1FFF0000000000001FFF00
1FFF0000000000003FFE00
0FFF8000000000007FFE00
0FFFC00000000000FFFC00
07FFF80000000003FFF800
03FFFFFFFFFFFFFFFFF800
01FFFFFFFFFFFFFFFFE000
007FFFFFFFFFFFFFFFC000
003FFFFFFFFFFFFFFF0000
001FFFFFFFFFFFFFFF0000
007FFFFFFFFFFFFFFFC000
01FFFFFFFFFFFFFFFFE000
03FFFFFFFFFFFFFFFFF800
07FFFFFFFFFFFFFFFFFC00
0FFFFFFFFFFFFFFFFFFC00
1FFFFFFFFFFFFFFFFFFE00
1FFFF80000000003FFFF00
3FFFC000000000007FFF00
3FFF0000000000003FFF80
7FFF0000000000001FFF80
7FFE0000000000000FFFC0
7FFC0000000000000FFFC0
7FFC00000000000007FFC0
FFFC00000000000007FFC0
FFF800000000000007FFC0
FFF800000000000007FFC0
FFF800000000000007FFC0
FFFC00000000000007FFC0
FFFC00000000000007FFC0
FFFC0000000000000FFFC0
7FFE0000000000000FFFC0
7FFE0000000000001FFFC0
7FFF0000000000003FFF80
7FFFC000000000007FFF80
3FFFE00000000001FFFF80
3FFFFE000000001FFFFF80
3FFFFFFFFFFFFFFFFFFF00
1FFFFFFFFFFFFFFFFFFF00
1FFFFFFFFFFFFFFFFFFE00
0FFFFFFFFFFFFFFFFFFC00
07FFFFFFFFFFFFFFFFFC00
03FFFFFFFFFFFFFFFFF800
01FFFFFFFFFFFFFFFFF000
00FFFFFFFFFFFFFFFFE000
007FFFFFFFFFFFFFFFC000
003FFFFFFFFFFFFFFF0000
000FFFFFFFFFFFFFFC0000
0001FFFFFFFFFFFFF00000
00001FFFFFFFFFFF000000
ENDCHAR
STARTCHAR nine
ENCODING 57
SWIDTH 861 0
DWIDTH 89 0
BBX 80 75 4 0
BITMAP
00007FFFFFFFF8000000
0003FFFFFFFFFFC00000
000FFFFFFFFFFFF80000
003FFFFFFFFFFFFE0000
007FFFFFFFFFFFFF8000
01FFFFFFFFFFFFFFE000
03FFFFFFFFFFFFFFF000
03FFFFFFFFFFFFFFF800
07FFFFFFFFFFFFFFFC00
0FFFFFFFFFFFFFFFFE00
0FFFFFFFFFFFFFFFFF00
1FFFFFFFFFFFFFFFFF80
1FFFFFFFFFFFFFFFFFC0
3FFFF80000001FFFFFC0
3FFFC000000001FFFFE0
7FFF80000000007FFFE0
7FFF00000000001FFFF0
7FFE00000000000FFFF0
7FFE000000000007FFF8
7FFC000000000003FFF8
FFFC000000000001FFFC
FFFC000000000000FFFC
FFFC000000000000FFFC
FFFC0000000000007FFE
FFFC0000000000007FFE
FFFC0000000000007FFE
FFFC0000000000003FFE
FFFC0000000000003FFE
7FFC0000000000003FFF
7FFC0000000000003FFF
7FFE0000000000001FFF
7FFF0000000000001FFF
7FFF8000000000001FFF
3FFFC000000000001FFF
3FFFF000000000001FFF
3FFFFFFFFFFFFFFFFFFF
1FFFFFFFFFFFFFFFFFFF
1FFFFFFFFFFFFFFFFFFF
0FFFFFFFFFFFFFFFFFFF
07FFFFFFFFFFFFFFFFFF
03FFFFFFFFFFFFFFFFFF
01FFFFFFFFFFFFFFFFFF
00FFFFFFFFFFFFFFFFFF
003FFFFFFFFFFFFFFFFF
000FFFFFFFFFFFFFFFFF
0000FFFFFFFFFFFFFFFF
00000000000000001FFF
00000000000000003FFF
00000000000000003FFF
00000000000000003FFE
00000000000000007FFE
00000000000000007FFE
00000000000000007FFE
0000000000000000FFFC
0000000000000001FFFC
0000000000000001FFFC
0000000000000003FFF8
0000000000000007FFF8
000000000000001FFFF8
000000000000003FFFF0
00000000000000FFFFE0
0000000000000FFFFFE0
007FFFFFFFFFFFFFFFC0
007FFFFFFFFFFFFFFFC0
007FFFFFFFFFFFFFFF80
007FFFFFFFFFFFFFFF00
007FFFFFFFFFFFFFFE00
007FFFFFFFFFFFFFFC00
007FFFFFFFFFFFFFF800
007FFFFFFFFFFFFFE000
007FFFFFFFFFFFFFC000
007FFFFFFFFFFFFF0000
007FFFFFFFFFFFFC0000
007FFFFFFFFFFFC00000
007FFFFFFFFFFC000000
ENDCHAR
STARTCHAR colon
ENCODING 58
SWIDTH 262 0
DWIDTH 27 0
BBX 15 48 6 0
BITMAP
07C0
1FF0
3FF8
7FFC
7FFC
7FFC
FFFC
FFFE
7FFC
7FFC
7FFC
3FF8
1FF0
07C0
0000
0000
0000
0000
0000
0000
0000
0000
0000
0000
0000
0000
0000
0000
0000
0000
0000
0000
0000
0000
07C0
1FF0
3FF8
7FFC
7FFC
7FFC
FFFC
FFFE
7FFC
7FFC
7FFC
3FF8
1FF0
07C0
ENDCHAR
STARTCHAR semicolon
ENCODING 59
SWIDTH 262 0
DWIDTH 27 0
BBX 14 59 7 -12
BITMAP
0F80
3FE0
7FF0
FFF8
FFF8
FFF8
FFF8
FFFC
FFF8
FFF8
FFF8
7FF0
3FE0
0F80
0000
0000
0000
0000
0000
0000
0000
0000
0000
0000
0000
0000
0000
0000
0000
0000
0000
0000
FFF8
FFF8
FFF8
FFF8
FFF0
FFF0
FFF0
FFF0
FFF0
FFE0
FFE0
FFE0
FFE0
FFE0
FFC0
FFC0
FFC0
FFC0
FFC0
FF80
FF80
FF80
FF80
FF80
FF80
FF00
FF00
ENDCHAR
STARTCHAR less
ENCODING 60
SWIDTH 690 0
DWIDTH 71 0
BBX 59 56 6 10
BITMAP
0000000000000020
00000000000001E0
00000000000007E0
0000000000003FE0
000000000000FFE0
000000000003FFE0
00000000001FFFE0
00000000007FFFE0
0000000003FFFFE0
000000000FFFFFE0
000000003FFFFF00
00000001FFFFF800
00000007FFFFE000
0000001FFFFF0000
000000FFFFFC0000
000003FFFFE00000
00001FFFFF800000
00007FFFFC000000
0001FFFFE0000000
000FFFFF80000000
003FFFFC00000000
00FFFFF000000000
07FFFF8000000000
1FFFFE0000000000
3FFFF00000000000
7FFFC00000000000
7FFE000000000000
FFF0000000000000
7FF8000000000000
7FFF000000000000
7FFFC00000000000
3FFFF80000000000
0FFFFE0000000000
03FFFFC000000000
00FFFFF000000000
001FFFFE00000000
0007FFFFC0000000
0001FFFFF0000000
00003FFFFE000000
00000FFFFF800000
000003FFFFF00000
0000007FFFFC0000
0000001FFFFF8000
00000003FFFFE000
00000000FFFFFC00
000000003FFFFF00
0000000007FFFFE0
0000000001FFFFE0
00000000007FFFE0
00000000000FFFE0
000000000003FFE0
0000000000007FE0
0000000000001FE0
00000000000007E0
00000000000000E0
0000000000000020
ENDCHAR
STARTCHAR equal
ENCODING 61
SWIDTH 690 0
DWIDTH 71 0
BBX 59 37 6 20
BITMAP
FFFFFFFFFFFFFFE0
FFFFFFFFFFFFFFE0
FFFFFFFFFFFFFFE0
FFFFFFFFFFFFFFE0
FFFFFFFFFFFFFFE0
FFFFFFFFFFFFFFE0
FFFFFFFFFFFFFFE0
FFFFFFFFFFFFFFE0
FFFFFFFFFFFFFFE0
0000000000000000
0000000000000000
0000000000000000
0000000000000000
0000000000000000
0000000000000000
0000000000000000
0000000000000000
0000000000000000
0000000000000000
0000000000000000
0000000000000000
0000000000000000
0000000000000000
0000000000000000
0000000000000000
0000000000000000
0000000000000000
0000000000000000
FFFFFFFFFFFFFFE0
FFFFFFFFFFFFFFE0
FFFFFFFFFFFFFFE0
FFFFFFFFFFFFFFE0
FFFFFFFFFFFFFFE0
FFFFFFFFFFFFFFE0
FFFFFFFFFFFFFFE0
FFFFFFFFFFFFFFE0
FFFFFFFFFFFFFFE0
ENDCHAR
STARTCHAR greater
ENCODING 62
SWIDTH 690 0
DWIDTH 71 0
BBX 59 56 6 10
BITMAP
8000000000000000
F000000000000000
FC00000000000000
FF80000000000000
FFE0000000000000
FFF8000000000000
FFFF000000000000
FFFFC00000000000
FFFFF80000000000
7FFFFE0000000000
1FFFFF8000000000
03FFFFF000000000
00FFFFFC00000000
001FFFFF80000000
0007FFFFE0000000
0000FFFFF8000000
00003FFFFF000000
000007FFFFC00000
000000FFFFF00000
0000003FFFFE0000
00000007FFFF8000
00000001FFFFF000
000000003FFFFC00
000000000FFFFF00
0000000001FFFF80
00000000007FFFC0
00000000000FFFC0
000000000001FFE0
000000000003FFE0
00000000001FFFC0
00000000007FFFC0
0000000003FFFF80
000000000FFFFE00
000000007FFFF800
00000001FFFFE000
0000000FFFFF0000
0000003FFFFC0000
000001FFFFF00000
00000FFFFF800000
00003FFFFE000000
0001FFFFF8000000
0007FFFFC0000000
003FFFFF00000000
00FFFFF800000000
07FFFFE000000000
1FFFFF8000000000
FFFFFC0000000000
FFFFF00000000000
FFFFC00000000000
FFFE000000000000
FFF8000000000000
FFC0000000000000
FF00000000000000
FC00000000000000
E000000000000000
8000000000000000
ENDCHAR
STARTCHAR question
ENCODING 63
SWIDTH 776 0
DWIDTH 80 0
BBX 72 75 5 0
BITMAP
FFFFFFFFFFFFFE0000
FFFFFFFFFFFFFFE000
FFFFFFFFFFFFFFF800
FFFFFFFFFFFFFFFE00
FFFFFFFFFFFFFFFF00
FFFFFFFFFFFFFFFF80
FFFFFFFFFFFFFFFFE0
FFFFFFFFFFFFFFFFE0
FFFFFFFFFFFFFFFFF0
FFFFFFFFFFFFFFFFF8
FFFFFFFFFFFFFFFFF8
FFFFFFFFFFFFFFFFFC
FFFFFFFFFFFFFFFFFC
0000000000000FFFFE
00000000000001FFFE
00000000000000FFFE
000000000000007FFE
000000000000007FFF
000000000000003FFF
000000000000003FFF
000000000000003FFF
000000000000003FFF
000000000000003FFF
000000000000003FFF
000000000000003FFF
000000000000003FFE
000000000000007FFE
000000000000007FFE
00000000000000FFFE
00000000000001FFFC
00000000000007FFFC
00003FFFFFFFFFFFF8
0001FFFFFFFFFFFFF8
0007FFFFFFFFFFFFF0
001FFFFFFFFFFFFFE0
003FFFFFFFFFFFFFC0
007FFFFFFFFFFFFF80
007FFFFFFFFFFFFF00
00FFFFFFFFFFFFFE00
00FFFFFFFFFFFFF800
01FFFFFFFFFFFFC000
01FFFFFFFFFFFE0000
01FFF8000000000000
01FFF0000000000000
01FFE0000000000000
01FFE0000000000000
01FFE0000000000000
01FFE0000000000000
01FFE0000000000000
01FFE0000000000000
000000000000000000
000000000000000000
000000000000000000
000000000000000000
000000000000000000
000000000000000000
000000000000000000
000000000000000000
000000000000000000
000000000000000000
000000000000000000
003F00000000000000
00FF80000000000000
01FFC0000000000000
01FFE0000000000000
03FFF0000000000000
03FFF0000000000000
03FFF0000000000000
03FFF0000000000000
03FFF0000000000000
03FFF0000000000000
01FFE0000000000000
01FFC0000000000000
00FF80000000000000
003F00000000000000
ENDCHAR
STARTCHAR at
ENCODING 64
SWIDTH 833 0
DWIDTH 86 0
BBX 75 75 4 0
BITMAP
00000000FFFFFFFFFFE0
0000001FFFFFFFFFFFE0
000000FFFFFFFFFFFFE0
000003FFFFFFFFFFFFE0
00000FFFFFFFFFFFFFE0
00003FFFFFFFFFFFFFE0
0000FFFFFFFFFFFFFFE0
0001FFFFFFFFFFFFFFE0
0003FFFFFFFFFFFFFFE0
0007FFFFFFFFFFFFFFE0
000FFFFF000000003FE0
001FFFF0000000003FE0
003FFF80000000003FE0
007FFE00000000003FE0
00FFFC00000000003FE0
01FFF000000000003FE0
01FFE000000000003FE0
03FFC000000000003FE0
07FF8000000000003FE0
07FF0000000000003FE0
0FFE0000000000003FE0
0FFE0000FFFFFF803FE0
1FFC0003FFFFFF803FE0
1FF8000FFFFFFF803FE0
1FF8001FFFFFFF803FE0
3FF0003FFFFFFF803FE0
3FF0007FFFFFFF803FE0
3FF000FFFFFFFF803FE0
7FE000FFF000FF803FE0
7FE001FFC000FF803FE0
7FE001FF8000FF803FE0
7FE001FF0000FF803FE0
7FE003FE0000FF803FE0
7FC003FE0000FF803FE0
FFC003FE0000FF803FE0
FFC003FE0000FF803FE0
FFC003FC0000FF803FE0
FFC003FC0000FF803FE0
FFC003FC0000FF803FE0
FFC003FE0000FF803FE0
FFC003FE0000FF803FE0
FFC003FE0000FF803FE0
7FC003FF0000FF803FE0
7FE003FF0000FF803FE0
7FE001FF8000FF803FE0
7FE001FFC000FF803FE0
7FE001FFF000FF803FE0
7FE000FFFFFFFFFFFFE0
3FF0007FFFFFFFFFFFE0
3FF0007FFFFFFFFFFFE0
3FF0003FFFFFFFFFFFE0
3FF8001FFFFFFFFFFFE0
1FF8000FFFFFFFFFFFE0
1FFC0003FFFFFFFFFFE0
0FFE00007FFFFFFFFFE0
0FFE0000000000000000
07FF0000000000000000
07FF8000000000000000
03FFC000000000000000
03FFE000000000000000
01FFF000000000000000
00FFFC00000000000000
007FFE00000000000000
003FFF80000000000000
001FFFF0000000000000
000FFFFF000000000000
0007FFFFFFFFFFFFFFE0
0003FFFFFFFFFFFFFFE0
0001FFFFFFFFFFFFFFE0
00007FFFFFFFFFFFFFE0
00001FFFFFFFFFFFFFE0
000007FFFFFFFFFFFFE0
000001FFFFFFFFFFFFE0
0000003FFFFFFFFFFFE0
00000001FFFFFFFFFFE0
ENDCHAR
STARTCHAR A
ENCODING 65
SWIDTH 989 0
DWIDTH 102 0
BBX 99 76 1 0
BITMAP
000000000001F0000000000000
000000000003FC000000000000
000000000007FE000000000000
00000000000FFF000000000000
00000000001FFF000000000000
00000000001FFF800000000000
00000000003FFFC00000000000
00000000003FFFC00000000000
00000000007FFFE00000000000
0000000000FFFFE00000000000
0000000000FFFFF00000000000
0000000001FFFFF80000000000
0000000001FFFFF80000000000
0000000003FFFFFC0000000000
0000000007FFFFFC0000000000
0000000007FFFFFE0000000000
000000000FFFFFFF0000000000
000000000FFFFFFF0000000000
000000001FFFFFFF8000000000
000000003FFFBFFF8000000000
000000003FFF1FFFC000000000
000000007FFF1FFFE000000000
000000007FFE0FFFE000000000
00000000FFFC0FFFF000000000
00000001FFFC07FFF000000000
00000001FFF803FFF800000000
00000003FFF803FFFC00000000
00000003FFF001FFFC00000000
00000007FFE001FFFE00000000
0000000FFFE000FFFE00000000
0000000FFFC0007FFF00000000
0000001FFFC0007FFF80000000
0000001FFF80003FFF80000000
0000003FFF00001FFFC0000000
0000007FFF00001FFFC0000000
0000007FFE00000FFFE0000000
000000FFFE00000FFFF0000000
000000FFFC000007FFF0000000
000001FFFC000003FFF8000000
000003FFF8000003FFF8000000
000003FFF0000001FFFC000000
000007FFF0000001FFFE000000
000007FFE0000000FFFE000000
00000FFFE00000007FFF000000
00001FFFC00000007FFF000000
00001FFF800000003FFF800000
00003FFF801FFFFFFFFFC00000
00003FFF003FFFFFFFFFC00000
00007FFF003FFFFFFFFFE00000
0000FFFE007FFFFFFFFFE00000
0000FFFC007FFFFFFFFFF00000
0001FFFC00FFFFFFFFFFF80000
0001FFF801FFFFFFFFFFF80000
0003FFF801FFFFFFFFFFFC0000
0007FFF003FFFFFFFFFFFC0000
0007FFE003FFFFFFFFFFFE0000
000FFFE007FFFFFFFFFFFF0000
000FFFC000000000007FFF0000
001FFFC000000000007FFF8000
003FFF8000000000003FFF8000
003FFF8000000000003FFFC000
007FFF0000000000001FFFE000
007FFE0000000000000FFFE000
00FFFE0000000000000FFFF000
01FFFC00000000000007FFF000
01FFFC00000000000007FFF800
03FFF800000000000003FFFC00
03FFF000000000000001FFFC00
07FFF000000000000001FFFE00
0FFFE000000000000000FFFE00
0FFFE000000000000000FFFF00
1FFFC0000000000000007FFF80
1FFF80000000000000007FFF80
3FFF80000000000000003FFFC0
7FFF00000000000000001FFFC0
FFFF00000000000000001FFFE0
ENDCHAR
STARTCHAR B
ENCODING 66
SWIDTH 891 0
DWIDTH 92 0
BBX 81 75 6 0
BITMAP
FFFFFFFFFFFFFFFC000000
FFFFFFFFFFFFFFFFC00000
FFFFFFFFFFFFFFFFF80000
FFFFFFFFFFFFFFFFFE0000
FFFFFFFFFFFFFFFFFF0000
FFFFFFFFFFFFFFFFFFC000
FFFFFFFFFFFFFFFFFFE000
FFFFFFFFFFFFFFFFFFF000
FFFFFFFFFFFFFFFFFFF000
FFFFFFFFFFFFFFFFFFF800
FFFFFFFFFFFFFFFFFFFC00
FFFFFFFFFFFFFFFFFFFC00
FFFFFFFFFFFFFFFFFFFC00
FFF800000000007FFFFE00
FFF8000000000007FFFE00
FFF8000000000001FFFE00
FFF8000000000000FFFE00
FFF80000000000007FFE00
FFF80000000000003FFE00
FFF80000000000003FFE00
FFF80000000000003FFE00
FFF80000000000003FFE00
FFF80000000000003FFE00
FFF80000000000003FFE00
FFF80000000000003FFE00
FFF80000000000003FFE00
FFF80000000000007FFC00
FFF80000000000007FFC00
FFF8000000000000FFF800
FFF8000000000001FFF800
FFF800000000000FFFF000
FFF801FFFFFFFFFFFFE000
FFF801FFFFFFFFFFFFC000
FFF801FFFFFFFFFFFF8000
FFF801FFFFFFFFFFFE0000
FFF801FFFFFFFFFFFC0000
FFF801FFFFFFFFFFFF0000
FFF801FFFFFFFFFFFFC000
FFF801FFFFFFFFFFFFE000
FFF801FFFFFFFFFFFFF000
FFF801FFFFFFFFFFFFF800
FFF801FFFFFFFFFFFFFC00
FFF800000000000FFFFC00
FFF8000000000001FFFE00
FFF80000000000007FFE00
FFF80000000000003FFF00
FFF80000000000003FFF00
FFF80000000000001FFF00
FFF80000000000001FFF80
FFF80000000000001FFF80
FFF80000000000001FFF80
FFF80000000000000FFF80
FFF80000000000000FFF80
FFF80000000000001FFF80
FFF80000000000001FFF80
FFF80000000000001FFF80
FFF80000000000003FFF00
FFF80000000000003FFF00
FFF80000000000007FFF00
FFF8000000000001FFFF00
FFF8000000000007FFFF00
FFF800000000007FFFFE00
FFFFFFFFFFFFFFFFFFFE00
FFFFFFFFFFFFFFFFFFFC00
FFFFFFFFFFFFFFFFFFFC00
FFFFFFFFFFFFFFFFFFF800
FFFFFFFFFFFFFFFFFFF000
FFFFFFFFFFFFFFFFFFE000
FFFFFFFFFFFFFFFFFFE000
FFFFFFFFFFFFFFFFFFC000
FFFFFFFFFFFFFFFFFF0000
FFFFFFFFFFFFFFFFFE0000
FFFFFFFFFFFFFFFFF80000
FFFFFFFFFFFFFFFFC00000
FFFFFFFFFFFFFFFC000000
ENDCHAR
STARTCHAR C
ENCODING 67
SWIDTH 829 0
DWIDTH 85 0
BBX 77 75 4 0
BITMAP
00000003FFFFFFFFFFF8
0000003FFFFFFFFFFFF8
000001FFFFFFFFFFFFF8
00000FFFFFFFFFFFFFF8
00003FFFFFFFFFFFFFF8
0000FFFFFFFFFFFFFFF8
0001FFFFFFFFFFFFFFF8
0003FFFFFFFFFFFFFFF8
000FFFFFFFFFFFFFFFF8
001FFFFFFFFFFFFFFFF8
003FFFFFFFFFFFFFFFF8
007FFFFFFFFFFFFFFFF8
00FFFFFFFFFFFFFFFFF8
00FFFFFF000000000000
01FFFFF0000000000000
03FFFFC0000000000000
03FFFF00000000000000
07FFFE00000000000000
0FFFF800000000000000
0FFFF000000000000000
0FFFE000000000000000
1FFFE000000000000000
1FFFC000000000000000
3FFF8000000000000000
3FFF8000000000000000
3FFF0000000000000000
7FFF0000000000000000
7FFE0000000000000000
7FFE0000000000000000
7FFC0000000000000000
7FFC0000000000000000
7FFC0000000000000000
FFFC0000000000000000
FFFC0000000000000000
FFFC0000000000000000
FFF80000000000000000
FFF80000000000000000
FFF80000000000000000
FFF80000000000000000
FFF80000000000000000
FFFC0000000000000000
7FFC0000000000000000
7FFC0000000000000000
7FFC0000000000000000
7FFC0000000000000000
7FFE0000000000000000
7FFE0000000000000000
3FFE0000000000000000
3FFF0000000000000000
3FFF0000000000000000
1FFF8000000000000000
1FFF8000000000000000
1FFFC000000000000000
0FFFE000000000000000
0FFFF000000000000000
07FFF800000000000000
07FFFC00000000000000
03FFFE00000000000000
03FFFF00000000000000
01FFFFC0000000000000
00FFFFF8000000000000
00FFFFFF000000000000
007FFFFFFFFFFFFFFFF8
003FFFFFFFFFFFFFFFF8
001FFFFFFFFFFFFFFFF8
000FFFFFFFFFFFFFFFF8
0007FFFFFFFFFFFFFFF8
0003FFFFFFFFFFFFFFF8
0000FFFFFFFFFFFFFFF8
00007FFFFFFFFFFFFFF8
00001FFFFFFFFFFFFFF8
000007FFFFFFFFFFFFF8
000001FFFFFFFFFFFFF8
0000003FFFFFFFFFFFF8
00000003FFFFFFFFFFF8
ENDCHAR
STARTCHAR D
ENCODING 68
SWIDTH 879 0
DWIDTH 91 0
BBX 80 75 6 0
BITMAP
FFFFFFFFFFFFC0000000
FFFFFFFFFFFFFE000000
FFFFFFFFFFFFFFC00000
FFFFFFFFFFFFFFF00000
FFFFFFFFFFFFFFFC0000
FFFFFFFFFFFFFFFF0000
FFFFFFFFFFFFFFFFC000
FFFFFFFFFFFFFFFFE000
FFFFFFFFFFFFFFFFF000
FFFFFFFFFFFFFFFFF800
FFFFFFFFFFFFFFFFFC00
FFFFFFFFFFFFFFFFFE00
FFFFFFFFFFFFFFFFFF00
FFF800000000FFFFFF80
FFF8000000000FFFFFC0
FFF80000000003FFFFC0
FFF80000000000FFFFE0
FFF800000000003FFFF0
FFF800000000001FFFF0
FFF800000000000FFFF8
FFF8000000000007FFF8
FFF8000000000003FFF8
FFF8000000000001FFFC
FFF8000000000001FFFC
FFF8000000000000FFFE
FFF80000000000007FFE
FFF80000000000007FFE
FFF80000000000007FFE
FFF80000000000003FFF
FFF80000000000003FFF
FFF80000000000003FFF
FFF80000000000001FFF
FFF80000000000001FFF
FFF80000000000001FFF
FFF80000000000001FFF
FFF80000000000001FFF
FFF80000000000001FFF
FFF80000000000001FFF
FFF80000000000001FFF
FFF80000000000001FFF
FFF80000000000001FFF
FFF80000000000001FFF
FFF80000000000001FFF
FFF80000000000001FFF
FFF80000000000003FFF
FFF80000000000003FFE
FFF80000000000003FFE
FFF80000000000007FFE
FFF80000000000007FFE
FFF8000000000000FFFC
FFF8000000000000FFFC
FFF8000000000001FFFC
FFF8000000000001FFF8
FFF8000000000003FFF8
FFF8000000000007FFF0
FFF800000000000FFFF0
FFF800000000001FFFE0
FFF800000000003FFFE0
FFF80000000000FFFFC0
FFF80000000003FFFFC0
FFF8000000000FFFFF80
FFF800000000FFFFFF00
FFFFFFFFFFFFFFFFFE00
FFFFFFFFFFFFFFFFFC00
FFFFFFFFFFFFFFFFFC00
FFFFFFFFFFFFFFFFF000
FFFFFFFFFFFFFFFFE000
FFFFFFFFFFFFFFFFC000
FFFFFFFFFFFFFFFF8000
FFFFFFFFFFFFFFFE0000
FFFFFFFFFFFFFFFC0000
FFFFFFFFFFFFFFF00000
FFFFFFFFFFFFFF800000
FFFFFFFFFFFFFE000000
FFFFFFFFFFFFC0000000
ENDCHAR
STARTCHAR E
ENCODING 69
SWIDTH 759 0
DWIDTH 78 0
BBX 67 75 6 0
BITMAP
FFFFFFFFFFFFFFFFE0
FFFFFFFFFFFFFFFFE0
FFFFFFFFFFFFFFFFE0
FFFFFFFFFFFFFFFFE0
FFFFFFFFFFFFFFFFE0
FFFFFFFFFFFFFFFFE0
FFFFFFFFFFFFFFFFE0
FFFFFFFFFFFFFFFFE0
FFFFFFFFFFFFFFFFE0
FFFFFFFFFFFFFFFFE0
FFFFFFFFFFFFFFFFE0
FFFFFFFFFFFFFFFFE0
FFFFFFFFFFFFFFFFE0
FFF800000000000000
FFF800000000000000
FFF800000000000000
FFF800000000000000
FFF800000000000000
FFF800000000000000
FFF800000000000000
FFF800000000000000
FFF800000000000000
FFF800000000000000
FFF800000000000000
FFF800000000000000
FFF800000000000000
FFF800000000000000
FFF800000000000000
FFF800000000000000
FFF800000000000000
FFF800000000000000
FFF801FFFFFFFFFF80
FFF801FFFFFFFFFF80
FFF801FFFFFFFFFF80
FFF801FFFFFFFFFF80
FFF801FFFFFFFFFF80
FFF801FFFFFFFFFF80
FFF801FFFFFFFFFF80
FFF801FFFFFFFFFF80
FFF801FFFFFFFFFF80
FFF801FFFFFFFFFF80
FFF801FFFFFFFFFF80
FFF800000000000000
FFF800000000000000
FFF800000000000000
FFF800000000000000
FFF800000000000000
FFF800000000000000
FFF800000000000000
FFF800000000000000
FFF800000000000000
FFF800000000000000
FFF800000000000000
FFF800000000000000
FFF800000000000000
FFF800000000000000
FFF800000000000000
FFF800000000000000
FFF800000000000000
FFF800000000000000
FFF800000000000000
FFF800000000000000
FFFFFFFFFFFFFFFFE0
FFFFFFFFFFFFFFFFE0
FFFFFFFFFFFFFFFFE0
FFFFFFFFFFFFFFFFE0
FFFFFFFFFFFFFFFFE0
FFFFFFFFFFFFFFFFE0
FFFFFFFFFFFFFFFFE0
FFFFFFFFFFFFFFFFE0
FFFFFFFFFFFFFFFFE0
FFFFFFFFFFFFFFFFE0
FFFFFFFFFFFFFFFFE0
FFFFFFFFFFFFFFFFE0
FFFFFFFFFFFFFFFFE0
ENDCHAR
STARTCHAR F
ENCODING 70
SWIDTH 705 0
DWIDTH 73 0
BBX 64 75 6 0
BITMAP
FFFFFFFFFFFFFFFF
FFFFFFFFFFFFFFFF
FFFFFFFFFFFFFFFF
FFFFFFFFFFFFFFFF
FFFFFFFFFFFFFFFF
FFFFFFFFFFFFFFFF
FFFFFFFFFFFFFFFF
FFFFFFFFFFFFFFFF
FFFFFFFFFFFFFFFF
FFFFFFFFFFFFFFFF
FFFFFFFFFFFFFFFF
FFFFFFFFFFFFFFFF
FFFFFFFFFFFFFFFF
FFF8000000000000
FFF8000000000000
FFF8000000000000
FFF8000000000000
FFF8000000000000
FFF8000000000000
FFF8000000000000
FFF8000000000000
FFF8000000000000
FFF8000000000000
FFF8000000000000
FFF8000000000000
FFF8000000000000
FFF8000000000000
FFF8000000000000
FFF8000000000000
FFF8000000000000
FFF8000000000000
FFF8000000000000
FFF8000000000000
FFF801FFFFFFFFF8
FFF801FFFFFFFFF8
FFF801FFFFFFFFF8
FFF801FFFFFFFFF8
FFF801FFFFFFFFF8
FFF801FFFFFFFFF8
FFF801FFFFFFFFF8
FFF801FFFFFFFFF8
FFF801FFFFFFFFF8
FFF801FFFFFFFFF8
FFF801FFFFFFFFF8
FFF8000000000000
FFF8000000000000
FFF8000000000000
FFF8000000000000
FFF8000000000000
FFF8000000000000
FFF8000000000000
FFF8000000000000
FFF8000000000000
FFF8000000000000
FFF8000000000000
FFF8000000000000
FFF8000000000000
FFF8000000000000
FFF8000000000000
FFF8000000000000
FFF8000000000000
FFF8000000000000
FFF8000000000000
FFF8000000000000
FFF8000000000000
FFF8000000000000
FFF8000000000000
FFF8000000000000
FFF8000000000000
FFF8000000000000
FFF8000000000000
FFF8000000000000
FFF8000000000000
FFF8000000000000
FFF8000000000000
ENDCHAR
STARTCHAR G
ENCODING 71
SWIDTH 888 0
DWIDTH 91 0
BBX 82 75 4 0
BITMAP
00000003FFFFFFFFFFF800
0000003FFFFFFFFFFFF800
000001FFFFFFFFFFFFF800
00000FFFFFFFFFFFFFF800
00003FFFFFFFFFFFFFF800
0000FFFFFFFFFFFFFFF800
0001FFFFFFFFFFFFFFF800
0003FFFFFFFFFFFFFFF800
000FFFFFFFFFFFFFFFF800
001FFFFFFFFFFFFFFFF800
003FFFFFFFFFFFFFFFF800
007FFFFFFFFFFFFFFFF800
00FFFFFFFFFFFFFFFFF800
00FFFFFF00000000000000
01FFFFF000000000000000
03FFFFC000000000000000
03FFFF0000000000000000
07FFFE0000000000000000
0FFFF80000000000000000
0FFFF00000000000000000
0FFFE00000000000000000
1FFFE00000000000000000
1FFFC00000000000000000
3FFF800000000000000000
3FFF800000000000000000
3FFF000000000000000000
7FFF000000000000000000
7FFE000000000000000000
7FFE000000000000000000
7FFC000000000000000000
7FFC000000000000000000
7FFC00001FFFFFFFFFFFC0
FFFC00001FFFFFFFFFFFC0
FFFC00001FFFFFFFFFFFC0
FFFC00001FFFFFFFFFFFC0
FFF800001FFFFFFFFFFFC0
FFF800001FFFFFFFFFFFC0
FFF800001FFFFFFFFFFFC0
FFF800001FFFFFFFFFFFC0
FFF800001FFFFFFFFFFFC0
FFFC00001FFFFFFFFFFFC0
7FFC00001FFFFFFFFFFFC0
7FFC00000000000007FFC0
7FFC00000000000007FFC0
7FFC00000000000007FFC0
7FFE00000000000007FFC0
7FFE00000000000007FFC0
3FFE00000000000007FFC0
3FFF00000000000007FFC0
3FFF00000000000007FFC0
1FFF80000000000007FFC0
1FFF80000000000007FFC0
1FFFC0000000000007FFC0
0FFFE0000000000007FFC0
0FFFF0000000000007FFC0
07FFF8000000000007FFC0
07FFFC000000000007FFC0
03FFFE000000000007FFC0
03FFFF000000000007FFC0
01FFFFC00000000007FFC0
00FFFFF80000000007FFC0
00FFFFFF0000000007FFC0
007FFFFFFFFFFFFFFFFFC0
003FFFFFFFFFFFFFFFFFC0
001FFFFFFFFFFFFFFFFFC0
000FFFFFFFFFFFFFFFFFC0
0007FFFFFFFFFFFFFFFFC0
0003FFFFFFFFFFFFFFFFC0
0000FFFFFFFFFFFFFFFFC0
00007FFFFFFFFFFFFFFFC0
00001FFFFFFFFFFFFFFFC0
000007FFFFFFFFFFFFFFC0
000001FFFFFFFFFFFFFFC0
0000003FFFFFFFFFFFFFC0
00000003FFFFFFFFFFFFC0
ENDCHAR
STARTCHAR H
ENCODING 72
SWIDTH 838 0
DWIDTH 86 0
BBX 74 75 6 0
BITMAP
FFFC000000000007FFC0
FFFC000000000007FFC0
FFFC000000000007FFC0
FFFC000000000007FFC0
FFFC000000000007FFC0
FFFC000000000007FFC0
FFFC000000000007FFC0
FFFC000000000007FFC0
FFFC000000000007FFC0
FFFC000000000007FFC0
FFFC000000000007FFC0
FFFC000000000007FFC0
FFFC000000000007FFC0
FFFC000000000007FFC0
FFFC000000000007FFC0
FFFC000000000007FFC0
FFFC000000000007FFC0
FFFC000000000007FFC0
FFFC000000000007FFC0
FFFC000000000007FFC0
FFFC000000000007FFC0
FFFC000000000007FFC0
FFFC000000000007FFC0
FFFC000000000007FFC0
FFFC000000000007FFC0
FFFC000000000007FFC0
FFFC000000000007FFC0
FFFC000000000007FFC0
FFFC000000000007FFC0
FFFC000000000007FFC0
FFFC000000000007FFC0
FFFC01FFFFFFFFFFFFC0
FFFC01FFFFFFFFFFFFC0
FFFC01FFFFFFFFFFFFC0
FFFC01FFFFFFFFFFFFC0
FFFC01FFFFFFFFFFFFC0
FFFC01FFFFFFFFFFFFC0
FFFC01FFFFFFFFFFFFC0
FFFC01FFFFFFFFFFFFC0
FFFC01FFFFFFFFFFFFC0
FFFC01FFFFFFFFFFFFC0
FFFC01FFFFFFFFFFFFC0
FFFC01FFFFFFFFFFFFC0
FFFC000000000007FFC0
FFFC000000000007FFC0
FFFC000000000007FFC0
FFFC000000000007FFC0
FFFC000000000007FFC0
FFFC000000000007FFC0
FFFC000000000007FFC0
FFFC000000000007FFC0
FFFC000000000007FFC0
FFFC000000000007FFC0
FFFC000000000007FFC0
FFFC000000000007FFC0
FFFC000000000007FFC0
FFFC000000000007FFC0
FFFC000000000007FFC0
FFFC000000000007FFC0
FFFC000000000007FFC0
FFFC000000000007FFC0
FFFC000000000007FFC0
FFFC000000000007FFC0
FFFC000000000007FFC0
FFFC000000000007FFC0
FFFC000000000007FFC0
FFFC000000000007FFC0
FFFC000000000007FFC0
FFFC000000000007FFC0
FFFC000000000007FFC0
FFFC000000000007FFC0
FFFC000000000007FFC0
FFFC000000000007FFC0
FFFC000000000007FFC0
FFFC000000000007FFC0
ENDCHAR
STARTCHAR I
ENCODING 73
SWIDTH 267 0
DWIDTH 28 0
BBX 13 75 7 0
BITMAP
FFF8
FFF8
FFF8
FFF8
FFF8
FFF8
FFF8
FFF8
FFF8
FFF8
FFF8
FFF8
FFF8
FFF8
FFF8
FFF8
FFF8
FFF8
FFF8
FFF8
FFF8
FFF8
FFF8
FFF8
FFF8
FFF8
FFF8
FFF8
FFF8
FFF8
FFF8
FFF8
FFF8
FFF8
FFF8
FFF8
FFF8
FFF8
FFF8
FFF8
FFF8
FFF8
FFF8
FFF8
FFF8
FFF8
FFF8
FFF8
FFF8
FFF8
FFF8
FFF8
FFF8
FFF8
FFF8
FFF8
FFF8
FFF8
FFF8
FFF8
FFF8
FFF8
FFF8
FFF8
FFF8
FFF8
FFF8
FFF8
FFF8
FFF8
FFF8
FFF8
FFF8
FFF8
FFF8
ENDCHAR
STARTCHAR J
ENCODING 74
SWIDTH 708 0
DWIDTH 73 0
BBX 66 75 2 0
BITMAP
0000000000000FFFC0
0000000000000FFFC0
0000000000000FFFC0
0000000000000FFFC0
0000000000000FFFC0
0000000000000FFFC0
0000000000000FFFC0
0000000000000FFFC0
0000000000000FFFC0
0000000000000FFFC0
0000000000000FFFC0
0000000000000FFFC0
0000000000000FFFC0
0000000000000FFFC0
0000000000000FFFC0
0000000000000FFFC0
0000000000000FFFC0
0000000000000FFFC0
0000000000000FFFC0
0000000000000FFFC0
0000000000000FFFC0
0000000000000FFFC0
0000000000000FFFC0
0000000000000FFFC0
0000000000000FFFC0
0000000000000FFFC0
0000000000000FFFC0
0000000000000FFFC0
0000000000000FFFC0
0000000000000FFFC0
0000000000000FFFC0
0000000000000FFFC0
0000000000000FFFC0
0000000000000FFFC0
0000000000000FFFC0
0000000000000FFFC0
0000000000000FFFC0
0000000000000FFFC0
0000000000000FFFC0
0000000000000FFFC0
0000000000000FFFC0
0000000000000FFFC0
0000000000000FFFC0
0000000000000FFF80
0000000000000FFF80
0000000000000FFF80
0000000000000FFF80
0000000000000FFF80
0000000000000FFF80
0000000000001FFF80
0000000000001FFF80
0000000000001FFF80
0000000000003FFF00
0000000000003FFF00
0000000000007FFF00
000000000000FFFE00
000000000001FFFE00
000000000003FFFE00
00000000000FFFFC00
00000000003FFFFC00
0000000000FFFFF800
000000001FFFFFF800
FFFFFFFFFFFFFFF000
FFFFFFFFFFFFFFE000
FFFFFFFFFFFFFFE000
FFFFFFFFFFFFFFC000
FFFFFFFFFFFFFF8000
FFFFFFFFFFFFFE0000
FFFFFFFFFFFFFC0000
FFFFFFFFFFFFF80000
FFFFFFFFFFFFE00000
FFFFFFFFFFFF800000
FFFFFFFFFFFC000000
FFFFFFFFFFC0000000
FFFFFFFFF800000000
ENDCHAR
STARTCHAR K
ENCODING 75
SWIDTH 875 0
DWIDTH 90 0
BBX 82 75 6 0
BITMAP
FFFC00000000000FFFFF80
FFFC00000000001FFFFE00
FFFC00000000007FFFF800
FFFC0000000000FFFFF000
FFFC0000000001FFFFE000
FFFC0000000007FFFF8000
FFFC000000000FFFFF0000
FFFC000000001FFFFE0000
FFFC000000007FFFF80000
FFFC00000000FFFFF00000
FFFC00000001FFFFE00000
FFFC00000003FFFF800000
FFFC0000000FFFFF000000
FFFC0000001FFFFE000000
FFFC0000003FFFF8000000
FFFC000000FFFFF0000000
FFFC000001FFFFE0000000
FFFC000003FFFF80000000
FFFC000007FFFF00000000
FFFC00001FFFFE00000000
FFFC00003FFFF800000000
FFFC00007FFFF000000000
FFFC0001FFFFE000000000
FFFC0003FFFF8000000000
FFFC0007FFFF0000000000
FFFC001FFFFE0000000000
FFFC003FFFF80000000000
FFFC007FFFF00000000000
FFFC00FFFFC00000000000
FFFC03FFFF800000000000
FFFC07FFFF000000000000
FFFC0FFFFC000000000000
FFFC1FFFF8000000000000
FFFC3FFFF0000000000000
FFFC3FFFC0000000000000
FFFC3FFF80000000000000
FFFC3FFF00000000000000
FFFC3FFF80000000000000
FFFC3FFFC0000000000000
FFFC3FFFE0000000000000
FFFC1FFFF8000000000000
FFFC0FFFFC000000000000
FFFC07FFFE000000000000
FFFC03FFFF800000000000
FFFC01FFFFC00000000000
FFFC007FFFE00000000000
FFFC003FFFF80000000000
FFFC001FFFFC0000000000
FFFC0007FFFE0000000000
FFFC0003FFFF8000000000
FFFC0001FFFFC000000000
FFFC0000FFFFE000000000
FFFC00003FFFF800000000
FFFC00001FFFFC00000000
FFFC00000FFFFE00000000
FFFC000007FFFF00000000
FFFC000001FFFFC0000000
FFFC000000FFFFE0000000
FFFC0000007FFFF0000000
FFFC0000003FFFFC000000
FFFC0000000FFFFE000000
FFFC00000007FFFF000000
FFFC00000003FFFFC00000
FFFC00000000FFFFE00000
FFFC000000007FFFF00000
FFFC000000003FFFFC0000
FFFC000000001FFFFE0000
FFFC0000000007FFFF0000
FFFC0000000003FFFFC000
FFFC0000000001FFFFE000
FFFC0000000000FFFFF000
FFFC00000000003FFFFC00
FFFC00000000001FFFFE00
FFFC00000000000FFFFF00
FFFC000000000003FFFFC0
ENDCHAR
STARTCHAR L
ENCODING 76
SWIDTH 707 0
DWIDTH 73 0
BBX 64 75 6 0
BITMAP
FFFC000000000000
FFFC000000000000
FFFC000000000000
FFFC000000000000
FFFC000000000000
FFFC000000000000
FFFC000000000000
FFFC000000000000
FFFC000000000000
FFFC000000000000
FFFC000000000000
FFFC000000000000
FFFC000000000000
FFFC000000000000
FFFC000000000000
FFFC000000000000
FFFC000000000000
FFFC000000000000
FFFC000000000000
FFFC000000000000
FFFC000000000000
FFFC000000000000
FFFC000000000000
FFFC000000000000
FFFC000000000000
FFFC000000000000
FFFC000000000000
FFFC000000000000
FFFC000000000000
FFFC000000000000
FFFC000000000000
FFFC000000000000
FFFC000000000000
FFFC000000000000
FFFC000000000000
FFFC000000000000
FFFC000000000000
FFFC000000000000
FFFC000000000000
FFFC000000000000
FFFC000000000000
FFFC000000000000
FFFC000000000000
FFFC000000000000
FFFC000000000000
FFFC000000000000
FFFC000000000000
FFFC000000000000
FFFC000000000000
FFFC000000000000
FFFC000000000000
FFFC000000000000
FFFC000000000000
FFFC000000000000
FFFC000000000000
FFFC000000000000
FFFC000000000000
FFFC000000000000
FFFC000000000000
FFFC000000000000
FFFC000000000000
FFFC000000000000
FFFFFFFFFFFFFFFF
FFFFFFFFFFFFFFFF
FFFFFFFFFFFFFFFF
FFFFFFFFFFFFFFFF
FFFFFFFFFFFFFFFF
FFFFFFFFFFFFFFFF
FFFFFFFFFFFFFFFF
FFFFFFFFFFFFFFFF
FFFFFFFFFFFFFFFF
FFFFFFFFFFFFFFFF
FFFFFFFFFFFFFFFF
FFFFFFFFFFFFFFFF
FFFFFFFFFFFFFFFF
ENDCHAR
STARTCHAR M
ENCODING 77
SWIDTH 1115 0
DWIDTH 115 0
BBX 111 76 2 -1
BITMAP
000001F80000000000001F000000
000003FE0000000000007F800000
000007FF000000000000FFC00000
00000FFF000000000001FFE00000
00000FFF800000000001FFE00000
00000FFF800000000003FFF00000
00001FFFC00000000003FFF00000
00001FFFC00000000003FFF00000
00001FFFE00000000007FFF00000
00001FFFE00000000007FFF80000
00003FFFF0000000000FFFF80000
00003FFFF0000000000FFFF80000
00003FFFF0000000001FFFFC0000
00007FFFF8000000001FFFFC0000
00007FFFF8000000003FFFFC0000
00007FFFFC000000003FFFFC0000
00007FFFFC000000003FFFFE0000
0000FFFFFE000000007FFFFE0000
0000FFFFFE000000007FFFFE0000
0000FFFFFE00000000FFFFFE0000
0000FFFFFF00000000FFFFFF0000
0001FFFFFF00000001FFFFFF0000
0001FFFFFF80000001FFFFFF0000
0001FFFFFF80000001FFFFFF8000
0003FFEFFFC0000003FFEFFF8000
0003FFE7FFC0000003FFCFFF8000
0003FFE7FFE0000007FFCFFF8000
0003FFC3FFE0000007FF87FFC000
0007FFC3FFE000000FFF87FFC000
0007FFC3FFF000000FFF87FFC000
0007FFC1FFF000001FFF07FFC000
000FFF81FFF800001FFF03FFE000
000FFF80FFF800001FFE03FFE000
000FFF80FFFC00003FFE03FFE000
000FFF807FFC00003FFC01FFF000
001FFF007FFE00007FFC01FFF000
001FFF003FFE00007FF801FFF000
001FFF003FFE0000FFF801FFF000
001FFE003FFF0000FFF800FFF800
003FFE001FFF0001FFF000FFF800
003FFE001FFF8001FFF000FFF800
003FFE000FFF8001FFE000FFF800
007FFC000FFFC003FFE0007FFC00
007FFC0007FFC003FFC0007FFC00
007FFC0007FFC007FFC0007FFC00
007FF80003FFE007FFC0003FFE00
00FFF80003FFE00FFF80003FFE00
00FFF80003FFF00FFF80003FFE00
00FFF80001FFF00FFF00003FFE00
00FFF00001FFF81FFF00001FFF00
01FFF00000FFF81FFE00001FFF00
01FFF00000FFFC3FFE00001FFF00
01FFF000007FFC3FFC00001FFF80
03FFE000007FFC7FFC00000FFF80
03FFE000007FFE7FFC00000FFF80
03FFE000003FFEFFF800000FFF80
03FFC000003FFFFFF8000007FFC0
07FFC000001FFFFFF0000007FFC0
07FFC000001FFFFFF0000007FFC0
07FFC000000FFFFFE0000007FFC0
0FFF8000000FFFFFE0000003FFE0
0FFF80000007FFFFC0000003FFE0
0FFF80000007FFFFC0000003FFE0
0FFF80000007FFFFC0000001FFF0
1FFF00000003FFFF80000001FFF0
1FFF00000003FFFF80000001FFF0
1FFF00000001FFFF00000001FFF0
1FFE00000001FFFF00000000FFF8
3FFE00000000FFFE00000000FFF8
3FFE00000000FFFE00000000FFF8
3FFE00000000FFFC00000000FFF8
7FFC000000007FFC000000007FFC
7FFC000000007FF8000000007FFC
7FFC000000003FF8000000007FFC
FFF8000000001FF0000000003FFE
00000000000007C0000000000000
ENDCHAR
STARTCHAR N
ENCODING 78
SWIDTH 873 0
DWIDTH 90 0
BBX 78 75 6 0
BITMAP
0F800000000000007FFC
1FE00000000000007FFC
3FF00000000000007FFC
7FF80000000000007FFC
7FFC0000000000007FFC
FFFE0000000000007FFC
FFFF0000000000007FFC
FFFF8000000000007FFC
FFFFC000000000007FFC
FFFFE000000000007FFC
FFFFF000000000007FFC
FFFFF800000000007FFC
FFFFFC00000000007FFC
FFFFFE00000000007FFC
FFFFFF80000000007FFC
FFFFFFC0000000007FFC
FFFFFFE0000000007FFC
FFFFFFF0000000007FFC
FFFFFFF8000000007FFC
FFFFFFFC000000007FFC
FFFFFFFE000000007FFC
FFFFFFFF000000007FFC
FFFBFFFF800000007FFC
FFF9FFFFC00000007FFC
FFF8FFFFE00000007FFC
FFF87FFFF00000007FFC
FFF83FFFF80000007FFC
FFF81FFFFC0000007FFC
FFF80FFFFE0000007FFC
FFF807FFFF0000007FFC
FFF803FFFF8000007FFC
FFF801FFFFC000007FFC
FFF800FFFFE000007FFC
FFF8007FFFF000007FFC
FFF8003FFFF800007FFC
FFF8000FFFFC00007FFC
FFF80007FFFE00007FFC
FFF80003FFFF00007FFC
FFF80001FFFF80007FFC
FFF80000FFFFC0007FFC
FFF800007FFFE0007FFC
FFF800003FFFF0007FFC
FFF800001FFFF8007FFC
FFF800000FFFFC007FFC
FFF8000007FFFE007FFC
FFF8000003FFFF007FFC
FFF8000001FFFF807FFC
FFF8000000FFFFC07FFC
FFF80000007FFFE07FFC
FFF80000003FFFF07FFC
FFF80000001FFFF87FFC
FFF80000000FFFFC7FFC
FFF800000007FFFE7FFC
FFF800000003FFFF7FFC
FFF800000001FFFFFFFC
FFF800000000FFFFFFFC
FFF8000000007FFFFFFC
FFF8000000003FFFFFFC
FFF8000000001FFFFFFC
FFF8000000000FFFFFFC
FFF80000000007FFFFFC
FFF80000000003FFFFFC
FFF80000000001FFFFFC
FFF80000000000FFFFFC
FFF800000000007FFFFC
FFF800000000003FFFFC
FFF800000000001FFFFC
FFF800000000000FFFFC
FFF8000000000007FFFC
FFF8000000000003FFFC
FFF8000000000001FFF8
FFF8000000000000FFF8
FFF80000000000007FF0
FFF80000000000001FE0
FFF800000000000007C0
ENDCHAR
STARTCHAR O
ENCODING 79
SWIDTH 968 0
DWIDTH 100 0
BBX 92 75 4 0
BITMAP
00000003FFFFFFFC00000000
0000003FFFFFFFFFC0000000
000001FFFFFFFFFFF8000000
00000FFFFFFFFFFFFF000000
00003FFFFFFFFFFFFFC00000
0000FFFFFFFFFFFFFFE00000
0001FFFFFFFFFFFFFFF80000
0003FFFFFFFFFFFFFFFC0000
000FFFFFFFFFFFFFFFFF0000
001FFFFFFFFFFFFFFFFF8000
003FFFFFFFFFFFFFFFFFC000
007FFFFFFFFFFFFFFFFFE000
00FFFFFFFFFFFFFFFFFFE000
00FFFFFF0000001FFFFFF000
01FFFFF000000001FFFFF800
03FFFFC0000000003FFFFC00
03FFFF00000000000FFFFC00
07FFFE000000000007FFFE00
0FFFF8000000000003FFFE00
0FFFF0000000000001FFFF00
0FFFE0000000000000FFFF00
1FFFE00000000000007FFF80
1FFFC00000000000003FFF80
3FFF800000000000001FFFC0
3FFF800000000000001FFFC0
3FFF000000000000000FFFC0
7FFF000000000000000FFFC0
7FFE0000000000000007FFE0
7FFE0000000000000007FFE0
7FFC0000000000000007FFE0
7FFC0000000000000003FFE0
7FFC0000000000000003FFE0
FFFC0000000000000003FFE0
FFFC0000000000000003FFE0
FFFC0000000000000003FFF0
FFF80000000000000003FFF0
FFF80000000000000003FFF0
FFF80000000000000003FFF0
FFF80000000000000003FFF0
FFF80000000000000003FFE0
FFFC0000000000000003FFE0
7FFC0000000000000003FFE0
7FFC0000000000000003FFE0
7FFC0000000000000003FFE0
7FFC0000000000000003FFE0
7FFE0000000000000007FFE0
7FFE0000000000000007FFE0
3FFE0000000000000007FFC0
3FFF000000000000000FFFC0
3FFF000000000000000FFFC0
1FFF800000000000001FFF80
1FFF800000000000001FFF80
1FFFC00000000000003FFF80
0FFFE00000000000007FFF00
0FFFF0000000000000FFFF00
07FFF8000000000001FFFE00
07FFFC000000000003FFFE00
03FFFE000000000007FFFC00
03FFFF00000000001FFFFC00
01FFFFC0000000003FFFF800
00FFFFF800000001FFFFF000
00FFFFFF0000001FFFFFE000
007FFFFFFFFFFFFFFFFFE000
003FFFFFFFFFFFFFFFFFC000
001FFFFFFFFFFFFFFFFF8000
000FFFFFFFFFFFFFFFFF0000
0007FFFFFFFFFFFFFFFE0000
0003FFFFFFFFFFFFFFF80000
0000FFFFFFFFFFFFFFF00000
00007FFFFFFFFFFFFFE00000
00001FFFFFFFFFFFFF800000
000007FFFFFFFFFFFE000000
000001FFFFFFFFFFF8000000
0000003FFFFFFFFFC0000000
00000003FFFFFFF800000000
ENDCHAR
STARTCHAR P
ENCODING 80
SWIDTH 867 0
DWIDTH 89 0
BBX 81 75 6 0
BITMAP
FFFFFFFFFFFFFFE0000000
FFFFFFFFFFFFFFFF000000
FFFFFFFFFFFFFFFFC00000
FFFFFFFFFFFFFFFFF00000
FFFFFFFFFFFFFFFFFC0000
FFFFFFFFFFFFFFFFFE0000
FFFFFFFFFFFFFFFFFF8000
FFFFFFFFFFFFFFFFFFC000
FFFFFFFFFFFFFFFFFFC000
FFFFFFFFFFFFFFFFFFE000
FFFFFFFFFFFFFFFFFFF000
FFFFFFFFFFFFFFFFFFF800
FFFFFFFFFFFFFFFFFFF800
FFF800000000007FFFFC00
FFF800000000000FFFFC00
FFF8000000000003FFFE00
FFF8000000000001FFFE00
FFF8000000000000FFFE00
FFF80000000000007FFF00
FFF80000000000003FFF00
FFF80000000000003FFF00
FFF80000000000001FFF00
FFF80000000000001FFF00
FFF80000000000001FFF00
FFF80000000000000FFF00
FFF80000000000000FFF00
FFF80000000000000FFF80
FFF80000000000000FFF80
FFF80000000000000FFF00
FFF80000000000000FFF00
FFF80000000000001FFF00
FFF80000000000001FFF00
FFF80000000000001FFF00
FFF80000000000003FFF00
FFF80000000000003FFF00
FFF80000000000007FFE00
FFF8000000000000FFFE00
FFF8000000000001FFFE00
FFF8000000000003FFFC00
FFF8000000000007FFFC00
FFF800000000003FFFFC00
FFF801FFFFFFFFFFFFF800
FFF801FFFFFFFFFFFFF000
FFF801FFFFFFFFFFFFF000
FFF801FFFFFFFFFFFFE000
FFF801FFFFFFFFFFFFC000
FFF801FFFFFFFFFFFF8000
FFF801FFFFFFFFFFFF0000
FFF801FFFFFFFFFFFE0000
FFF801FFFFFFFFFFFC0000
FFF801FFFFFFFFFFF00000
FFF801FFFFFFFFFFC00000
FFF801FFFFFFFFFF000000
FFF801FFFFFFFFF0000000
FFF8000000000000000000
FFF8000000000000000000
FFF8000000000000000000
FFF8000000000000000000
FFF8000000000000000000
FFF8000000000000000000
FFF8000000000000000000
FFF8000000000000000000
FFF8000000000000000000
FFF8000000000000000000
FFF8000000000000000000
FFF8000000000000000000
FFF8000000000000000000
FFF8000000000000000000
FFF8000000000000000000
FFF8000000000000000000
FFF8000000000000000000
FFF8000000000000000000
FFF8000000000000000000
FFF8000000000000000000
FFF8000000000000000000
ENDCHAR
STARTCHAR Q
ENCODING 81
SWIDTH 968 0
DWIDTH 100 0
BBX 95 75 4 0
BITMAP
00000003FFFFFFFC00000000
0000003FFFFFFFFFC0000000
000001FFFFFFFFFFF8000000
00000FFFFFFFFFFFFF000000
00003FFFFFFFFFFFFFC00000
0000FFFFFFFFFFFFFFE00000
0001FFFFFFFFFFFFFFF80000
0003FFFFFFFFFFFFFFFC0000
000FFFFFFFFFFFFFFFFF0000
001FFFFFFFFFFFFFFFFF8000
003FFFFFFFFFFFFFFFFFC000
007FFFFFFFFFFFFFFFFFE000
00FFFFFFFFFFFFFFFFFFE000
00FFFFFF0000001FFFFFF000
01FFFFF000000001FFFFF800
03FFFFC0000000003FFFFC00
03FFFF00000000000FFFFC00
07FFFE000000000007FFFE00
0FFFF8000000000003FFFE00
0FFFF0000000000001FFFF00
0FFFE0000000000000FFFF00
1FFFE00000000000007FFF80
1FFFC00000000000003FFF80
3FFF800000000000001FFFC0
3FFF800000000000001FFFC0
3FFF000000000000000FFFC0
7FFF000000000000000FFFC0
7FFE0000000000000007FFE0
7FFE0000000000000007FFE0
7FFC0000000000000007FFE0
7FFC0000000000000003FFE0
7FFC0000000000000003FFE0
FFFC0000000000000003FFE0
FFFC0000000000000003FFE0
FFFC0000000000000003FFF0
FFF80000000000000003FFF0
FFF80000000000000003FFF0
FFF80000000000000003FFF0
FFF80000000000000003FFF0
FFF80000000000000003FFE0
FFFC0000000000000003FFE0
7FFC0000000000000003FFE0
7FFC0000000000000003FFE0
7FFC0000000000000003FFE0
7FFC000000FFFFC00003FFE0
7FFE0000003FFFE00007FFE0
7FFE0000001FFFF00007FFE0
3FFE0000000FFFF80007FFC0
3FFF00000007FFFC000FFFC0
3FFF00000001FFFF000FFFC0
1FFF80000000FFFF801FFF80
1FFF800000007FFFC01FFF80
1FFFC00000001FFFE03FFF80
0FFFE00000000FFFF07FFF00
0FFFF000000007FFF8FFFF00
07FFF800000003FFFFFFFE00
07FFFC00000000FFFFFFFE00
03FFFE000000007FFFFFFC00
03FFFF000000003FFFFFFC00
01FFFFC00000001FFFFFF800
00FFFFF800000007FFFFF000
00FFFFFF0000001FFFFFE000
007FFFFFFFFFFFFFFFFFE000
003FFFFFFFFFFFFFFFFFC000
001FFFFFFFFFFFFFFFFFC000
000FFFFFFFFFFFFFFFFFE000
0007FFFFFFFFFFFFFFFFF000
0003FFFFFFFFFFFFFFFFFC00
0000FFFFFFFFFFFFFFFFFE00
00007FFFFFFFFFFFFFFFFF00
00001FFFFFFFFFFFFFFFFFC0
000007FFFFFFFFFFFE3FFFE0
000001FFFFFFFFFFF81FFFF0
0000003FFFFFFFFFC00FFFF8
00000003FFFFFFF80007FFFE
ENDCHAR
STARTCHAR R
ENCODING 82
SWIDTH 921 0
DWIDTH 95 0
BBX 89 75 6 0
BITMAP
FFFFFFFFFFFFFFF000000000
FFFFFFFFFFFFFFFF80000000
FFFFFFFFFFFFFFFFE0000000
FFFFFFFFFFFFFFFFF8000000
FFFFFFFFFFFFFFFFFE000000
FFFFFFFFFFFFFFFFFF000000
FFFFFFFFFFFFFFFFFF800000
FFFFFFFFFFFFFFFFFFC00000
FFFFFFFFFFFFFFFFFFE00000
FFFFFFFFFFFFFFFFFFF00000
FFFFFFFFFFFFFFFFFFF80000
FFFFFFFFFFFFFFFFFFF80000
FFFFFFFFFFFFFFFFFFFC0000
FFF800000000003FFFFE0000
FFF8000000000003FFFE0000
FFF8000000000001FFFE0000
FFF80000000000007FFF0000
FFF80000000000003FFF0000
FFF80000000000003FFF0000
FFF80000000000001FFF8000
FFF80000000000001FFF8000
FFF80000000000000FFF8000
FFF80000000000000FFF8000
FFF80000000000000FFF8000
FFF80000000000000FFF8000
FFF800000000000007FF8000
FFF800000000000007FF8000
FFF800000000000007FF8000
FFF800000000000007FF8000
FFF80000000000000FFF8000
FFF80000000000000FFF8000
FFF80000000000000FFF8000
FFF80000000000000FFF8000
FFF80000000000000FFF8000
FFF80000000000001FFF8000
FFF80000000000001FFF0000
FFF80000000000003FFF0000
FFF80000000000003FFF0000
FFF80000000000007FFF0000
FFF8000000000001FFFE0000
FFF8000000000003FFFE0000
FFF800000000001FFFFC0000
FFF801FFFFFFFFFFFFFC0000
FFF801FFFFFFFFFFFFF80000
FFF801FFFFFFFFFFFFF00000
FFF801FFFFFFFFFFFFE00000
FFF801FFFFFFFFFFFFC00000
FFF801FFFFFFFFFFFF800000
FFF801FFFFFFFFFFFF000000
FFF801FFFFFFFFFFFE000000
FFF801FFFFFFFFFFF8000000
FFF801FFFFFFFFFFE0000000
FFF801FFFFFFFFFFE0000000
FFF801FFFFFFFFFFE0000000
FFF8000000000FFFF0000000
FFF8000000000FFFF8000000
FFF80000000007FFFC000000
FFF80000000003FFFE000000
FFF80000000001FFFF000000
FFF80000000000FFFF800000
FFF800000000007FFFC00000
FFF800000000003FFFE00000
FFF800000000001FFFF00000
FFF800000000000FFFF80000
FFF8000000000007FFFC0000
FFF8000000000007FFFE0000
FFF8000000000003FFFF0000
FFF8000000000001FFFF8000
FFF8000000000000FFFFC000
FFF80000000000007FFFE000
FFF80000000000003FFFF000
FFF80000000000001FFFF800
FFF80000000000000FFFFC00
FFF800000000000007FFFE00
FFF800000000000003FFFF80
ENDCHAR
STARTCHAR S
ENCODING 83
SWIDTH 880 0
DWIDTH 91 0
BBX 81 75 5 0
BITMAP
00003FFFFFFFFFFFFFF800
0003FFFFFFFFFFFFFFF800
001FFFFFFFFFFFFFFFF800
007FFFFFFFFFFFFFFFF800
00FFFFFFFFFFFFFFFFF800
01FFFFFFFFFFFFFFFFF800
03FFFFFFFFFFFFFFFFF800
07FFFFFFFFFFFFFFFFF800
0FFFFFFFFFFFFFFFFFF800
1FFFFFFFFFFFFFFFFFF800
1FFFFFFFFFFFFFFFFFF800
3FFFFFFFFFFFFFFFFFF800
3FFFFFFFFFFFFFFFFFF800
7FFFF00000000000000000
7FFFC00000000000000000
7FFF000000000000000000
7FFF000000000000000000
7FFE000000000000000000
FFFE000000000000000000
FFFC000000000000000000
FFFC000000000000000000
FFFC000000000000000000
FFFC000000000000000000
FFFC000000000000000000
7FFC000000000000000000
7FFC000000000000000000
7FFE000000000000000000
7FFE000000000000000000
3FFF000000000000000000
3FFFC00000000000000000
3FFFF00000000000000000
1FFFFFFFFFFFFFFF000000
0FFFFFFFFFFFFFFFF00000
0FFFFFFFFFFFFFFFFE0000
07FFFFFFFFFFFFFFFF0000
03FFFFFFFFFFFFFFFFC000
01FFFFFFFFFFFFFFFFE000
00FFFFFFFFFFFFFFFFF000
003FFFFFFFFFFFFFFFF800
001FFFFFFFFFFFFFFFFC00
0003FFFFFFFFFFFFFFFC00
00007FFFFFFFFFFFFFFE00
0000000000000003FFFE00
0000000000000000FFFF00
00000000000000003FFF00
00000000000000001FFF00
00000000000000001FFF00
00000000000000000FFF00
00000000000000000FFF80
00000000000000000FFF80
00000000000000000FFF80
000000000000000007FF80
000000000000000007FF80
00000000000000000FFF80
00000000000000000FFF80
00000000000000000FFF80
00000000000000000FFF80
00000000000000001FFF80
00000000000000003FFF00
00000000000000007FFF00
0000000000000000FFFF00
0000000000000007FFFF00
7FFFFFFFFFFFFFFFFFFE00
7FFFFFFFFFFFFFFFFFFE00
7FFFFFFFFFFFFFFFFFFC00
7FFFFFFFFFFFFFFFFFFC00
7FFFFFFFFFFFFFFFFFF800
7FFFFFFFFFFFFFFFFFF000
7FFFFFFFFFFFFFFFFFE000
7FFFFFFFFFFFFFFFFFC000
7FFFFFFFFFFFFFFFFF8000
7FFFFFFFFFFFFFFFFF0000
7FFFFFFFFFFFFFFFFC0000
7FFFFFFFFFFFFFFFE00000
7FFFFFFFFFFFFFFF000000
ENDCHAR
STARTCHAR T
ENCODING 84
SWIDTH 720 0
DWIDTH 74 0
BBX 70 75 2 0
BITMAP
FFFFFFFFFFFFFFFFFC
FFFFFFFFFFFFFFFFFC
FFFFFFFFFFFFFFFFFC
FFFFFFFFFFFFFFFFFC
FFFFFFFFFFFFFFFFFC
FFFFFFFFFFFFFFFFFC
FFFFFFFFFFFFFFFFFC
FFFFFFFFFFFFFFFFFC
FFFFFFFFFFFFFFFFFC
FFFFFFFFFFFFFFFFFC
FFFFFFFFFFFFFFFFFC
FFFFFFFFFFFFFFFFFC
FFFFFFFFFFFFFFFFFC
0000000FFFC0000000
0000000FFFC0000000
0000000FFFC0000000
0000000FFFC0000000
0000000FFFC0000000
0000000FFFC0000000
0000000FFFC0000000
0000000FFFC0000000
0000000FFFC0000000
0000000FFFC0000000
0000000FFFC0000000
0000000FFFC0000000
0000000FFFC0000000
0000000FFFC0000000
0000000FFFC0000000
0000000FFFC0000000
0000000FFFC0000000
0000000FFFC0000000
0000000FFFC0000000
0000000FFFC0000000
0000000FFFC0000000
0000000FFFC0000000
0000000FFFC0000000
0000000FFFC0000000
0000000FFFC0000000
0000000FFFC0000000
0000000FFFC0000000
0000000FFFC0000000
0000000FFFC0000000
0000000FFFC0000000
0000000FFFC0000000
0000000FFFC0000000
0000000FFFC0000000
0000000FFFC0000000
0000000FFFC0000000
0000000FFFC0000000
0000000FFFC0000000
0000000FFFC0000000
0000000FFFC0000000
0000000FFFC0000000
0000000FFFC0000000
0000000FFFC0000000
0000000FFFC0000000
0000000FFFC0000000
0000000FFFC0000000
0000000FFFC0000000
0000000FFFC0000000
0000000FFFC0000000
0000000FFFC0000000
0000000FFFC0000000
0000000FFFC0000000
0000000FFFC0000000
0000000FFFC0000000
0000000FFFC0000000
0000000FFFC0000000
0000000FFFC0000000
0000000FFFC0000000
0000000FFFC0000000
0000000FFFC0000000
0000000FFFC0000000
0000000FFFC0000000
0000000FFFC0000000
ENDCHAR
STARTCHAR U
ENCODING 85
SWIDTH 889 0
DWIDTH 92 0
BBX 81 76 5 -1
BITMAP
FFFC0000000000000FFF80
FFFC0000000000000FFF80
FFFC0000000000000FFF80
FFFC0000000000000FFF80
FFFC0000000000000FFF80
FFFC0000000000000FFF80
FFFC0000000000000FFF80
FFFC0000000000000FFF80
FFFC0000000000000FFF80
FFFC0000000000000FFF80
FFFC0000000000000FFF80
FFFC0000000000000FFF80
FFFC0000000000000FFF80
FFFC0000000000000FFF80
FFFC0000000000000FFF80
FFFC0000000000000FFF80
FFFC0000000000000FFF80
FFFC0000000000000FFF80
FFFC0000000000000FFF80
FFFC0000000000000FFF80
FFFC0000000000000FFF80
FFFC0000000000000FFF80
FFFC0000000000000FFF80
FFFC0000000000000FFF80
FFFC0000000000000FFF80
FFFC0000000000000FFF80
FFFC0000000000000FFF80
FFFC0000000000000FFF80
FFFC0000000000000FFF80
FFFC0000000000000FFF80
FFFC0000000000000FFF80
FFFC0000000000000FFF80
FFFC0000000000000FFF80
FFFC0000000000000FFF80
FFFC0000000000000FFF80
FFFC0000000000000FFF80
FFFC0000000000000FFF80
FFFC0000000000000FFF80
FFFC0000000000000FFF80
FFFC0000000000000FFF80
FFFC0000000000000FFF80
FFFC0000000000000FFF80
FFFC0000000000000FFF80
FFFC0000000000000FFF80
FFFC0000000000000FFF80
FFFC0000000000000FFF80
7FFC0000000000000FFF80
7FFC0000000000000FFF80
7FFC0000000000000FFF80
7FFE0000000000000FFF80
7FFE0000000000001FFF80
7FFE0000000000001FFF00
7FFF0000000000001FFF00
3FFF0000000000003FFF00
3FFF8000000000003FFF00
3FFF8000000000007FFE00
3FFFC00000000000FFFE00
1FFFE00000000001FFFE00
1FFFF00000000003FFFC00
0FFFFC000000000FFFFC00
0FFFFF000000003FFFF800
07FFFFE0000001FFFFF800
07FFFFFF00003FFFFFF000
03FFFFFFFFFFFFFFFFF000
01FFFFFFFFFFFFFFFFE000
01FFFFFFFFFFFFFFFFC000
00FFFFFFFFFFFFFFFF8000
007FFFFFFFFFFFFFFF0000
001FFFFFFFFFFFFFFE0000
000FFFFFFFFFFFFFFC0000
0003FFFFFFFFFFFFF00000
0001FFFFFFFFFFFFC00000
00003FFFFFFFFFFF000000
00000FFFFFFFFFF8000000
000000FFFFFFFF80000000
00000003FFFFF000000000
ENDCHAR
STARTCHAR V
ENCODING 86
SWIDTH 989 0
DWIDTH 102 0
BBX 99 76 1 -1
BITMAP
FFFF80000000000000000FFFE0
7FFF80000000000000001FFFC0
3FFFC0000000000000001FFFC0
1FFFC0000000000000003FFF80
1FFFE0000000000000003FFF80
0FFFF0000000000000007FFF00
0FFFF000000000000000FFFE00
07FFF800000000000000FFFE00
03FFF800000000000001FFFC00
03FFFC00000000000001FFFC00
01FFFE00000000000003FFF800
01FFFE00000000000003FFF000
00FFFF00000000000007FFF000
007FFF0000000000000FFFE000
007FFF8000000000000FFFE000
003FFF8000000000001FFFC000
003FFFC000000000001FFF8000
001FFFE000000000003FFF8000
000FFFE000000000007FFF0000
000FFFF000000000007FFF0000
0007FFF00000000000FFFE0000
0007FFF80000000000FFFC0000
0003FFFC0000000001FFFC0000
0001FFFC0000000001FFF80000
0001FFFE0000000003FFF80000
0000FFFE0000000007FFF00000
0000FFFF0000000007FFE00000
00007FFF800000000FFFE00000
00003FFF800000000FFFC00000
00003FFFC00000001FFFC00000
00001FFFC00000003FFF800000
00001FFFE00000003FFF000000
00000FFFE00000007FFF000000
000007FFF00000007FFE000000
000007FFF8000000FFFE000000
000003FFF8000000FFFC000000
000003FFFC000001FFF8000000
000001FFFC000003FFF8000000
000000FFFE000003FFF0000000
000000FFFF000007FFF0000000
0000007FFF000007FFE0000000
0000007FFF80000FFFC0000000
0000003FFF80001FFFC0000000
0000001FFFC0001FFF80000000
0000001FFFC0003FFF80000000
0000000FFFE0003FFF00000000
0000000FFFF0007FFE00000000
00000007FFF0007FFE00000000
00000003FFF800FFFC00000000
00000003FFF801FFFC00000000
00000001FFFC01FFF800000000
00000001FFFE03FFF000000000
00000000FFFE03FFF000000000
000000007FFF07FFE000000000
000000007FFF0FFFE000000000
000000003FFF8FFFC000000000
000000003FFFDFFF8000000000
000000001FFFDFFF8000000000
000000000FFFFFFF0000000000
000000000FFFFFFF0000000000
0000000007FFFFFE0000000000
0000000007FFFFFC0000000000
0000000003FFFFFC0000000000
0000000001FFFFF80000000000
0000000001FFFFF80000000000
0000000000FFFFF00000000000
0000000000FFFFE00000000000
00000000007FFFE00000000000
00000000003FFFC00000000000
00000000003FFFC00000000000
00000000001FFF800000000000
00000000001FFF000000000000
00000000000FFF000000000000
000000000007FE000000000000
000000000003FC000000000000
000000000001F0000000000000
ENDCHAR
STARTCHAR W
ENCODING 87
SWIDTH 1268 0
DWIDTH 131 0
BBX 128 76 1 -1
BITMAP
FFFF000003FFFC000000000000007FFF
7FFF800001FFFE000000000000007FFE
3FFF800000FFFE00000000000000FFFE
3FFFC00000FFFF00000000000000FFFC
1FFFC000007FFF00000000000001FFFC
1FFFE000007FFF80000000000001FFF8
0FFFE000003FFF80000000000003FFF8
0FFFF000003FFFC0000000000007FFF0
07FFF800001FFFC0000000000007FFF0
03FFF800001FFFE000000000000FFFE0
03FFFC00000FFFE000000000000FFFC0
01FFFC00000FFFF000000000001FFFC0
01FFFE000007FFF000000000001FFF80
00FFFE000007FFF800000000003FFF80
00FFFF000003FFF800000000003FFF00
007FFF000003FFFC00000000007FFF00
007FFF800001FFFC00000000007FFE00
003FFF800001FFFE0000000000FFFE00
003FFFC00000FFFE0000000000FFFC00
001FFFC00000FFFF0000000001FFFC00
001FFFE000007FFF0000000001FFF800
000FFFE000007FFF8000000003FFF000
0007FFF000003FFF8000000003FFF000
0007FFF000003FFFC000000007FFE000
0003FFF800001FFFC000000007FFE000
0003FFF800001FFFE00000000FFFC000
0001FFFC00000FFFE00000001FFFC000
0001FFFC00000FFFF00000001FFF8000
0000FFFE000007FFF00000003FFF8000
0000FFFF000007FFF80000003FFF0000
00007FFF000003FFF80000007FFF0000
00007FFF800003FFFC0000007FFE0000
00003FFF800001FFFC000000FFFE0000
00003FFFC00001FFFE000000FFFC0000
00001FFFC00000FFFE000001FFF80000
00000FFFE000007FFF000001FFF80000
00000FFFE000007FFF000003FFF00000
000007FFF000003FFF800003FFF00000
000007FFF000007FFF800007FFE00000
000003FFF800007FFFC00007FFE00000
000003FFF80000FFFFC0000FFFC00000
000001FFFC0000FFFFE0000FFFC00000
000001FFFC0001FFFFE0001FFF800000
000000FFFE0003FFFFF0001FFF800000
000000FFFE0003FFFFF0003FFF000000
0000007FFF0007FFFFF8007FFF000000
0000007FFF0007FFFFF8007FFE000000
0000003FFF800FFFFFFC00FFFC000000
0000001FFF800FFFFFFC00FFFC000000
0000001FFFC01FFFFFFE01FFF8000000
0000000FFFC01FFFFFFE01FFF8000000
0000000FFFE03FFF7FFF03FFF0000000
00000007FFF07FFE7FFF03FFF0000000
00000007FFF07FFE3FFF87FFE0000000
00000003FFF8FFFC1FFF87FFE0000000
00000003FFF8FFFC1FFFCFFFC0000000
00000001FFFDFFF80FFFCFFFC0000000
00000001FFFDFFF00FFFFFFF80000000
00000000FFFFFFF007FFFFFF80000000
00000000FFFFFFE007FFFFFF00000000
000000007FFFFFE003FFFFFE00000000
000000003FFFFFC003FFFFFE00000000
000000003FFFFFC001FFFFFC00000000
000000001FFFFF8001FFFFFC00000000
000000001FFFFF8000FFFFF800000000
000000000FFFFF0000FFFFF800000000
000000000FFFFF00007FFFF000000000
0000000007FFFE00007FFFF000000000
0000000007FFFE00003FFFE000000000
0000000003FFFC00001FFFE000000000
0000000003FFF800001FFFC000000000
0000000001FFF800000FFFC000000000
0000000000FFF000000FFF8000000000
0000000000FFF0000007FF0000000000
00000000007FE0000003FE0000000000
00000000001F80000000F80000000000
ENDCHAR
STARTCHAR X
ENCODING 88
SWIDTH 1000 0
DWIDTH 103 0
BBX 98 75 2 0
BITMAP
1FFFFC00000000000007FFFE00
07FFFE0000000000000FFFF800
03FFFF0000000000001FFFF000
01FFFF8000000000003FFFE000
00FFFFC000000000007FFFC000
007FFFE00000000000FFFF8000
003FFFF00000000001FFFF0000
001FFFF80000000003FFFE0000
000FFFFC0000000007FFFC0000
0007FFFE000000000FFFF80000
0003FFFF000000001FFFF00000
0001FFFF800000003FFFE00000
0000FFFFC00000007FFFC00000
00007FFFE0000000FFFF800000
00003FFFF0000001FFFF000000
00001FFFF8000003FFFE000000
00000FFFFC000007FFFC000000
000007FFFE00000FFFF8000000
000003FFFF00001FFFF0000000
000001FFFF80003FFFE0000000
000000FFFFC0007FFFC0000000
0000007FFFE000FFFF80000000
0000003FFFF001FFFF00000000
0000001FFFF803FFFC00000000
00000007FFFC07FFF800000000
00000003FFFE0FFFF000000000
00000001FFFF1FFFE000000000
00000000FFFFBFFFC000000000
000000007FFFFFFF8000000000
000000003FFFFFFF0000000000
000000001FFFFFFE0000000000
000000000FFFFFFC0000000000
0000000007FFFFF80000000000
0000000003FFFFF00000000000
0000000001FFFFE00000000000
0000000000FFFFC00000000000
0000000000FFFFC00000000000
0000000001FFFFE00000000000
0000000003FFFFF00000000000
0000000007FFFFF80000000000
000000000FFFFFFC0000000000
000000001FFFFFFE0000000000
000000003FFFFFFF0000000000
000000007FFFFFFF8000000000
00000000FFFFFFFFC000000000
00000001FFFE3FFFE000000000
00000003FFFC1FFFF000000000
00000007FFF80FFFFC00000000
0000000FFFF007FFFE00000000
0000001FFFE003FFFF00000000
0000007FFFC001FFFF80000000
000000FFFF8000FFFFC0000000
000001FFFF00007FFFE0000000
000003FFFE00003FFFF0000000
000007FFFC00001FFFF8000000
00000FFFF800000FFFFC000000
00001FFFF0000007FFFE000000
00003FFFE0000003FFFF000000
00007FFFC0000001FFFF800000
0000FFFF80000000FFFFC00000
0001FFFF000000007FFFE00000
0003FFFE000000003FFFF00000
0007FFFC000000001FFFF80000
000FFFF8000000000FFFFC0000
001FFFF00000000007FFFE0000
003FFFE00000000003FFFF0000
007FFFC00000000001FFFF8000
00FFFF800000000000FFFFC000
01FFFF0000000000007FFFE000
03FFFE0000000000003FFFF000
07FFFC0000000000001FFFF800
0FFFF80000000000000FFFFC00
1FFFF000000000000007FFFF00
3FFFE000000000000003FFFF80
FFFFC000000000000001FFFFC0
ENDCHAR
STARTCHAR Y
ENCODING 89
SWIDTH 926 0
DWIDTH 95 0
BBX 93 75 1 0
BITMAP
FFFFC00000000000000FFFF8
3FFFE00000000000001FFFF0
3FFFF00000000000003FFFE0
1FFFF80000000000007FFFC0
0FFFFC0000000000007FFF80
07FFFE000000000000FFFF00
03FFFE000000000001FFFE00
01FFFF000000000003FFFE00
00FFFF800000000007FFFC00
00FFFFC0000000000FFFF800
007FFFE0000000001FFFF000
003FFFF0000000001FFFE000
001FFFF0000000003FFFC000
000FFFF8000000007FFF8000
0007FFFC00000000FFFF8000
0003FFFE00000001FFFF0000
0003FFFF00000003FFFE0000
0001FFFF80000003FFFC0000
0000FFFFC0000007FFF80000
00007FFFC000000FFFF00000
00003FFFE000001FFFE00000
00001FFFF000003FFFE00000
00000FFFF800007FFFC00000
00000FFFFC0000FFFF800000
000007FFFE0000FFFF000000
000003FFFE0001FFFE000000
000001FFFF0003FFFC000000
000000FFFF8007FFF8000000
0000007FFFC00FFFF8000000
0000003FFFE01FFFF0000000
0000003FFFF01FFFE0000000
0000001FFFF83FFFC0000000
0000000FFFF87FFF80000000
00000007FFFCFFFF00000000
00000003FFFFFFFF00000000
00000001FFFFFFFE00000000
00000000FFFFFFFC00000000
00000000FFFFFFF800000000
000000007FFFFFF000000000
000000003FFFFFE000000000
000000001FFFFFC000000000
000000000FFFFFC000000000
0000000007FFFF8000000000
0000000007FFFF0000000000
0000000003FFFE0000000000
0000000001FFFC0000000000
0000000000FFF80000000000
0000000000FFF80000000000
0000000000FFF80000000000
0000000000FFF80000000000
0000000000FFF80000000000
0000000000FFF80000000000
0000000000FFF80000000000
0000000000FFF80000000000
0000000000FFF80000000000
0000000000FFF80000000000
0000000000FFF80000000000
0000000000FFF80000000000
0000000000FFF80000000000
0000000000FFF80000000000
0000000000FFF80000000000
0000000000FFF80000000000
0000000000FFF80000000000
0000000000FFF80000000000
0000000000FFF80000000000
0000000000FFF80000000000
0000000000FFF80000000000
0000000000FFF80000000000
0000000000FFF80000000000
0000000000FFF80000000000
0000000000FFF80000000000
0000000000FFF80000000000
0000000000FFF80000000000
0000000000FFF80000000000
0000000000FFF80000000000
ENDCHAR
STARTCHAR Z
ENCODING 90
SWIDTH 802 0
DWIDTH 83 0
BBX 74 75 4 0
BITMAP
7FFFFFFFFFFFFFFFFC00
7FFFFFFFFFFFFFFFFE00
7FFFFFFFFFFFFFFFFF80
7FFFFFFFFFFFFFFFFF80
7FFFFFFFFFFFFFFFFFC0
7FFFFFFFFFFFFFFFFFC0
7FFFFFFFFFFFFFFFFFC0
7FFFFFFFFFFFFFFFFFC0
7FFFFFFFFFFFFFFFFFC0
7FFFFFFFFFFFFFFFFF80
7FFFFFFFFFFFFFFFFF80
7FFFFFFFFFFFFFFFFF00
0000000000000FFFFE00
0000000000001FFFFC00
0000000000003FFFF800
0000000000007FFFF000
000000000000FFFFE000
000000000001FFFFC000
000000000003FFFF8000
000000000007FFFF0000
00000000000FFFFE0000
00000000001FFFFC0000
00000000003FFFF80000
00000000007FFFF00000
0000000000FFFFE00000
0000000001FFFFC00000
0000000003FFFF800000
0000000007FFFF000000
000000000FFFFE000000
000000001FFFFC000000
000000003FFFF8000000
000000007FFFF0000000
00000000FFFFE0000000
00000001FFFFC0000000
00000003FFFF80000000
00000007FFFF00000000
0000000FFFFE00000000
0000001FFFFC00000000
0000003FFFF800000000
0000003FFFF000000000
0000007FFFE000000000
000000FFFFC000000000
000001FFFF8000000000
000003FFFF0000000000
000007FFFE0000000000
00000FFFFC0000000000
00001FFFF80000000000
00003FFFF00000000000
00007FFFE00000000000
0000FFFFC00000000000
0001FFFF800000000000
0003FFFF000000000000
0007FFFE000000000000
000FFFFC000000000000
001FFFF8000000000000
003FFFF0000000000000
007FFFE0000000000000
00FFFFC0000000000000
01FFFF80000000000000
03FFFF00000000000000
07FFFE00000000000000
0FFFFC00000000000000
1FFFFFFFFFFFFFFFFFC0
3FFFFFFFFFFFFFFFFFC0
7FFFFFFFFFFFFFFFFFC0
7FFFFFFFFFFFFFFFFFC0
FFFFFFFFFFFFFFFFFFC0
FFFFFFFFFFFFFFFFFFC0
FFFFFFFFFFFFFFFFFFC0
FFFFFFFFFFFFFFFFFFC0
FFFFFFFFFFFFFFFFFFC0
7FFFFFFFFFFFFFFFFFC0
7FFFFFFFFFFFFFFFFFC0
1FFFFFFFFFFFFFFFFFC0
0FFFFFFFFFFFFFFFFFC0
ENDCHAR
STARTCHAR bracketleft
ENCODING 91
SWIDTH 333 0
DWIDTH 34 0
BBX 18 95 10 -9
BITMAP
FFFFC0
FFFFC0
FFFFC0
FFFFC0
FFFFC0
FFFFC0
FFFFC0
FFFFC0
FFFFC0
FF8000
FF8000
FF8000
FF8000
FF8000
FF8000
FF8000
FF8000
FF8000
FF8000
FF8000
FF8000
FF8000
FF8000
FF8000
FF8000
FF8000
FF8000
FF8000
FF8000
FF8000
FF8000
FF8000
FF8000
FF8000
FF8000
FF8000
FF8000
FF8000
FF8000
FF8000
FF8000
FF8000
FF8000
FF8000
FF8000
FF8000
FF8000
FF8000
FF8000
FF8000
FF8000
FF8000
FF8000
FF8000
FF8000
FF8000
FF8000
FF8000
FF8000
FF8000
FF8000
FF8000
FF8000
FF8000
FF8000
FF8000
FF8000
FF8000
FF8000
FF8000
FF8000
FF8000
FF8000
FF8000
FF8000
FF8000
FF8000
FF8000
FF8000
FF8000
FF8000
FF8000
FF8000
FF8000
FF8000
FF8000
FF8000
FFFFC0
FFFFC0
FFFFC0
FFFFC0
FFFFC0
FFFFC0
FFFFC0
FFFFC0
ENDCHAR
STARTCHAR backslash
ENCODING 92
SWIDTH 445 0
DWIDTH 46 0
BBX 44 75 1 0
BITMAP
FF8000000000
7F8000000000
7FC000000000
3FC000000000
3FE000000000
1FE000000000
1FF000000000
1FF000000000
0FF800000000
0FF800000000
07FC00000000
07FC00000000
03FE00000000
03FE00000000
01FE00000000
01FF00000000
00FF00000000
00FF80000000
007F80000000
007FC0000000
003FC0000000
003FE0000000
003FE0000000
001FF0000000
001FF0000000
000FF8000000
000FF8000000
0007FC000000
0007FC000000
0003FE000000
0003FE000000
0001FE000000
0001FF000000
0000FF000000
0000FF800000
0000FF800000
00007FC00000
00007FC00000
00003FE00000
00003FE00000
00001FF00000
00001FF00000
00000FF80000
00000FF80000
000007FC0000
000007FC0000
000003FC0000
000003FE0000
000003FE0000
000001FF0000
000001FF0000
000000FF8000
000000FF8000
0000007FC000
0000007FC000
0000003FE000
0000003FE000
0000001FF000
0000001FF000
0000000FF800
0000000FF800
0000000FF800
00000007FC00
00000007FC00
00000003FE00
00000003FE00
00000001FF00
00000001FF00
00000000FF80
00000000FF80
000000007FC0
000000007FC0
000000003FE0
000000003FE0
000000003FF0
ENDCHAR
STARTCHAR bracketright
ENCODING 93
SWIDTH 333 0
DWIDTH 34 0
BBX 18 95 6 -9
BITMAP
FFFFC0
FFFFC0
FFFFC0
FFFFC0
FFFFC0
FFFFC0
FFFFC0
FFFFC0
FFFFC0
007FC0
007FC0
007FC0
007FC0
007FC0
007FC0
007FC0
007FC0
007FC0
007FC0
007FC0
007FC0
007FC0
007FC0
007FC0
007FC0
007FC0
007FC0
007FC0
007FC0
007FC0
007FC0
007FC0
007FC0
007FC0
007FC0
007FC0
007FC0
007FC0
007FC0
007FC0
007FC0
007FC0
007FC0
007FC0
007FC0
007FC0
007FC0
007FC0
007FC0
007FC0
007FC0
007FC0
007FC0
007FC0
007FC0
007FC0
007FC0
007FC0
007FC0
007FC0
007FC0
007FC0
007FC0
007FC0
007FC0
007FC0
007FC0
007FC0
007FC0
007FC0
007FC0
007FC0
007FC0
007FC0
007FC0
007FC0
007FC0
007FC0
007FC0
007FC0
007FC0
007FC0
007FC0
007FC0
007FC0
007FC0
007FC0
FFFFC0
FFFFC0
FFFFC0
FFFFC0
FFFFC0
FFFFC0
FFFFC0
FFFFC0
ENDCHAR
STARTCHAR asciicircum
ENCODING 94
SWIDTH 559 0
DWIDTH 58 0
BBX 45 45 6 30
BITMAP
000007800000
00001FC00000
00001FE00000
00003FF00000
00003FF00000
00007FF80000
00007FF80000
0000FFF80000
0000FFFC0000
0000FFFC0000
0001FFFE0000
0001FFFE0000
0003FDFF0000
0003FCFF0000
0007F8FF0000
0007F87F8000
0007F87F8000
000FF07FC000
000FF03FC000
001FE03FC000
001FE01FE000
003FE01FE000
003FC01FF000
003FC00FF000
007F800FF800
007F8007F800
00FF8007F800
00FF0007FC00
01FF0003FC00
01FE0003FE00
01FE0001FE00
03FE0001FE00
03FC0001FF00
07FC0000FF00
07F80000FF80
07F80000FF80
0FF800007FC0
0FF000007FC0
1FF000003FC0
1FE000003FE0
3FE000003FE0
3FE000001FF0
3FC000001FF0
7FC000000FF0
FF8000000FF8
ENDCHAR
STARTCHAR underscore
ENCODING 95
SWIDTH 668 0
DWIDTH 69 0
BBX 70 6 0 -17
BITMAP
FFFFFFFFFFFFFFFFFC
FFFFFFFFFFFFFFFFFC
FFFFFFFFFFFFFFFFFC
FFFFFFFFFFFFFFFFFC
FFFFFFFFFFFFFFFFFC
FFFFFFFFFFFFFFFFFC
ENDCHAR
STARTCHAR grave
ENCODING 96
SWIDTH 362 0
DWIDTH 37 0
BBX 27 13 5 80
BITMAP
F0000000
FE000000
FFC00000
FFFC0000
FFFF8000
FFFFF000
FFFFFF00
FFFFFFE0
0FFFFFE0
007FFFE0
0007FFE0
00003FE0
000001E0
ENDCHAR
STARTCHAR a
ENCODING 97
SWIDTH 989 0
DWIDTH 102 0
BBX 99 76 1 0
BITMAP
000000000001F0000000000000
000000000003FC000000000000
000000000007FE000000000000
00000000000FFF000000000000
00000000001FFF000000000000
00000000001FFF800000000000
00000000003FFFC00000000000
00000000003FFFC00000000000
00000000007FFFE00000000000
0000000000FFFFE00000000000
0000000000FFFFF00000000000
0000000001FFFFF80000000000
0000000001FFFFF80000000000
0000000003FFFFFC0000000000
0000000007FFFFFC0000000000
0000000007FFFFFE0000000000
000000000FFFFFFF0000000000
000000000FFFFFFF0000000000
000000001FFFFFFF8000000000
000000003FFFBFFF8000000000
000000003FFF1FFFC000000000
000000007FFF1FFFE000000000
000000007FFE0FFFE000000000
00000000FFFC0FFFF000000000
00000001FFFC07FFF000000000
00000001FFF803FFF800000000
00000003FFF803FFFC00000000
00000003FFF001FFFC00000000
00000007FFE001FFFE00000000
0000000FFFE000FFFE00000000
0000000FFFC0007FFF00000000
0000001FFFC0007FFF80000000
0000001FFF80003FFF80000000
0000003FFF00001FFFC0000000
0000007FFF00001FFFC0000000
0000007FFE00000FFFE0000000
000000FFFE00000FFFF0000000
000000FFFC000007FFF0000000
000001FFFC000003FFF8000000
000003FFF8000003FFF8000000
000003FFF0000001FFFC000000
000007FFF0000001FFFE000000
000007FFE0000000FFFE000000
00000FFFE00000007FFF000000
00001FFFC00000007FFF000000
00001FFF800000003FFF800000
00003FFF801FFFFFFFFFC00000
00003FFF003FFFFFFFFFC00000
00007FFF003FFFFFFFFFE00000
0000FFFE007FFFFFFFFFE00000
0000FFFC007FFFFFFFFFF00000
0001FFFC00FFFFFFFFFFF80000
0001FFF801FFFFFFFFFFF80000
0003FFF801FFFFFFFFFFFC0000
0007FFF003FFFFFFFFFFFC0000
0007FFE003FFFFFFFFFFFE0000
000FFFE007FFFFFFFFFFFF0000
000FFFC000000000007FFF0000
001FFFC000000000007FFF8000
003FFF8000000000003FFF8000
003FFF8000000000003FFFC000
007FFF0000000000001FFFE000
007FFE0000000000000FFFE000
00FFFE0000000000000FFFF000
01FFFC00000000000007FFF000
01FFFC00000000000007FFF800
03FFF800000000000003FFFC00
03FFF000000000000001FFFC00
07FFF000000000000001FFFE00
0FFFE000000000000000FFFE00
0FFFE000000000000000FFFF00
1FFFC0000000000000007FFF80
1FFF80000000000000007FFF80
3FFF80000000000000003FFFC0
7FFF00000000000000001FFFC0
FFFF00000000000000001FFFE0
ENDCHAR
STARTCHAR b
ENCODING 98
SWIDTH 891 0
DWIDTH 92 0
BBX 81 75 6 0
BITMAP
FFFFFFFFFFFFFFFC000000
FFFFFFFFFFFFFFFFC00000
FFFFFFFFFFFFFFFFF80000
FFFFFFFFFFFFFFFFFE0000
FFFFFFFFFFFFFFFFFF0000
FFFFFFFFFFFFFFFFFFC000
FFFFFFFFFFFFFFFFFFE000
FFFFFFFFFFFFFFFFFFF000
FFFFFFFFFFFFFFFFFFF000
FFFFFFFFFFFFFFFFFFF800
FFFFFFFFFFFFFFFFFFFC00
FFFFFFFFFFFFFFFFFFFC00
FFFFFFFFFFFFFFFFFFFC00
FFF800000000007FFFFE00
FFF8000000000007FFFE00
FFF8000000000001FFFE00
FFF8000000000000FFFE00
FFF80000000000007FFE00
FFF80000000000003FFE00
FFF80000000000003FFE00
FFF80000000000003FFE00
FFF80000000000003FFE00
FFF80000000000003FFE00
FFF80000000000003FFE00
FFF80000000000003FFE00
FFF80000000000003FFE00
FFF80000000000007FFC00
FFF80000000000007FFC00
FFF8000000000000FFF800
FFF8000000000001FFF800
FFF800000000000FFFF000
FFF801FFFFFFFFFFFFE000
FFF801FFFFFFFFFFFFC000
FFF801FFFFFFFFFFFF8000
FFF801FFFFFFFFFFFE0000
FFF801FFFFFFFFFFFC0000
FFF801FFFFFFFFFFFF0000
FFF801FFFFFFFFFFFFC000
FFF801FFFFFFFFFFFFE000
FFF801FFFFFFFFFFFFF000
FFF801FFFFFFFFFFFFF800
FFF801FFFFFFFFFFFFFC00
FFF800000000000FFFFC00
FFF8000000000001FFFE00
FFF80000000000007FFE00
FFF80000000000003FFF00
FFF80000000000003FFF00
FFF80000000000001FFF00
FFF80000000000001FFF80
FFF80000000000001FFF80
FFF80000000000001FFF80
FFF80000000000000FFF80
FFF80000000000000FFF80
FFF80000000000001FFF80
FFF80000000000001FFF80
FFF80000000000001FFF80
FFF80000000000003FFF00
FFF80000000000003FFF00
FFF80000000000007FFF00
FFF8000000000001FFFF00
FFF8000000000007FFFF00
FFF800000000007FFFFE00
FFFFFFFFFFFFFFFFFFFE00
FFFFFFFFFFFFFFFFFFFC00
FFFFFFFFFFFFFFFFFFFC00
FFFFFFFFFFFFFFFFFFF800
FFFFFFFFFFFFFFFFFFF000
FFFFFFFFFFFFFFFFFFE000
FFFFFFFFFFFFFFFFFFE000
FFFFFFFFFFFFFFFFFFC000
FFFFFFFFFFFFFFFFFF0000
FFFFFFFFFFFFFFFFFE0000
FFFFFFFFFFFFFFFFF80000
FFFFFFFFFFFFFFFFC00000
FFFFFFFFFFFFFFFC000000
ENDCHAR
STARTCHAR c
ENCODING 99
SWIDTH 829 0
DWIDTH 85 0
BBX 77 75 4 0
BITMAP
00000003FFFFFFFFFFF8
0000003FFFFFFFFFFFF8
000001FFFFFFFFFFFFF8
00000FFFFFFFFFFFFFF8
00003FFFFFFFFFFFFFF8
0000FFFFFFFFFFFFFFF8
0001FFFFFFFFFFFFFFF8
0003FFFFFFFFFFFFFFF8
000FFFFFFFFFFFFFFFF8
001FFFFFFFFFFFFFFFF8
003FFFFFFFFFFFFFFFF8
007FFFFFFFFFFFFFFFF8
00FFFFFFFFFFFFFFFFF8
00FFFFFF000000000000
01FFFFF0000000000000
03FFFFC0000000000000
03FFFF00000000000000
07FFFE00000000000000
0FFFF800000000000000
0FFFF000000000000000
0FFFE000000000000000
1FFFE000000000000000
1FFFC000000000000000
3FFF8000000000000000
3FFF8000000000000000
3FFF0000000000000000
7FFF0000000000000000
7FFE0000000000000000
7FFE0000000000000000
7FFC0000000000000000
7FFC0000000000000000
7FFC0000000000000000
FFFC0000000000000000
FFFC0000000000000000
FFFC0000000000000000
FFF80000000000000000
FFF80000000000000000
FFF80000000000000000
FFF80000000000000000
FFF80000000000000000
FFFC0000000000000000
7FFC0000000000000000
7FFC0000000000000000
7FFC0000000000000000
7FFC0000000000000000
7FFE0000000000000000
7FFE0000000000000000
3FFE0000000000000000
3FFF0000000000000000
3FFF0000000000000000
1FFF8000000000000000
1FFF8000000000000000
1FFFC000000000000000
0FFFE000000000000000
0FFFF000000000000000
07FFF800000000000000
07FFFC00000000000000
03FFFE00000000000000
03FFFF00000000000000
01FFFFC0000000000000
00FFFFF8000000000000
00FFFFFF000000000000
007FFFFFFFFFFFFFFFF8
003FFFFFFFFFFFFFFFF8
001FFFFFFFFFFFFFFFF8
000FFFFFFFFFFFFFFFF8
0007FFFFFFFFFFFFFFF8
0003FFFFFFFFFFFFFFF8
0000FFFFFFFFFFFFFFF8
00007FFFFFFFFFFFFFF8
00001FFFFFFFFFFFFFF8
000007FFFFFFFFFFFFF8
000001FFFFFFFFFFFFF8
0000003FFFFFFFFFFFF8
00000003FFFFFFFFFFF8
ENDCHAR
STARTCHAR d
ENCODING 100
SWIDTH 879 0
DWIDTH 91 0
BBX 80 75 6 0
BITMAP
FFFFFFFFFFFFC0000000
FFFFFFFFFFFFFE000000
FFFFFFFFFFFFFFC00000
FFFFFFFFFFFFFFF00000
FFFFFFFFFFFFFFFC0000
FFFFFFFFFFFFFFFF0000
FFFFFFFFFFFFFFFFC000
FFFFFFFFFFFFFFFFE000
FFFFFFFFFFFFFFFFF000
FFFFFFFFFFFFFFFFF800
FFFFFFFFFFFFFFFFFC00
FFFFFFFFFFFFFFFFFE00
FFFFFFFFFFFFFFFFFF00
FFF800000000FFFFFF80
FFF8000000000FFFFFC0
FFF80000000003FFFFC0
FFF80000000000FFFFE0
FFF800000000003FFFF0
FFF800000000001FFFF0
FFF800000000000FFFF8
FFF8000000000007FFF8
FFF8000000000003FFF8
FFF8000000000001FFFC
FFF8000000000001FFFC
FFF8000000000000FFFE
FFF80000000000007FFE
FFF80000000000007FFE
FFF80000000000007FFE
FFF80000000000003FFF
FFF80000000000003FFF
FFF80000000000003FFF
FFF80000000000001FFF
FFF80000000000001FFF
FFF80000000000001FFF
FFF80000000000001FFF
FFF80000000000001FFF
FFF80000000000001FFF
FFF80000000000001FFF
FFF80000000000001FFF
FFF80000000000001FFF
FFF80000000000001FFF
FFF80000000000001FFF
FFF80000000000001FFF
FFF80000000000001FFF
FFF80000000000003FFF
FFF80000000000003FFE
FFF80000000000003FFE
FFF80000000000007FFE
FFF80000000000007FFE
FFF8000000000000FFFC
FFF8000000000000FFFC
FFF8000000000001FFFC
FFF8000000000001FFF8
FFF8000000000003FFF8
FFF8000000000007FFF0
FFF800000000000FFFF0
FFF800000000001FFFE0
FFF800000000003FFFE0
FFF80000000000FFFFC0
FFF80000000003FFFFC0
FFF8000000000FFFFF80
FFF800000000FFFFFF00
FFFFFFFFFFFFFFFFFE00
FFFFFFFFFFFFFFFFFC00
FFFFFFFFFFFFFFFFFC00
FFFFFFFFFFFFFFFFF000
FFFFFFFFFFFFFFFFE000
FFFFFFFFFFFFFFFFC000
FFFFFFFFFFFFFFFF8000
FFFFFFFFFFFFFFFE0000
FFFFFFFFFFFFFFFC0000
FFFFFFFFFFFFFFF00000
FFFFFFFFFFFFFF800000
FFFFFFFFFFFFFE000000
FFFFFFFFFFFFC0000000
ENDCHAR
STARTCHAR e
ENCODING 101
SWIDTH 759 0
DWIDTH 78 0
BBX 67 75 6 0
BITMAP
FFFFFFFFFFFFFFFFE0
FFFFFFFFFFFFFFFFE0
FFFFFFFFFFFFFFFFE0
FFFFFFFFFFFFFFFFE0
FFFFFFFFFFFFFFFFE0
FFFFFFFFFFFFFFFFE0
FFFFFFFFFFFFFFFFE0
FFFFFFFFFFFFFFFFE0
FFFFFFFFFFFFFFFFE0
FFFFFFFFFFFFFFFFE0
FFFFFFFFFFFFFFFFE0
FFFFFFFFFFFFFFFFE0
FFFFFFFFFFFFFFFFE0
FFF800000000000000
FFF800000000000000
FFF800000000000000
FFF800000000000000
FFF800000000000000
FFF800000000000000
FFF800000000000000
FFF800000000000000
FFF800000000000000
FFF800000000000000
FFF800000000000000
FFF800000000000000
FFF800000000000000
FFF800000000000000
FFF800000000000000
FFF800000000000000
FFF800000000000000
FFF800000000000000
FFF801FFFFFFFFFF80
FFF801FFFFFFFFFF80
FFF801FFFFFFFFFF80
FFF801FFFFFFFFFF80
FFF801FFFFFFFFFF80
FFF801FFFFFFFFFF80
FFF801FFFFFFFFFF80
FFF801FFFFFFFFFF80
FFF801FFFFFFFFFF80
FFF801FFFFFFFFFF80
FFF801FFFFFFFFFF80
FFF800000000000000
FFF800000000000000
FFF800000000000000
FFF800000000000000
FFF800000000000000
FFF800000000000000
FFF800000000000000
FFF800000000000000
FFF800000000000000
FFF800000000000000
FFF800000000000000
FFF800000000000000
FFF800000000000000
FFF800000000000000
FFF800000000000000
FFF800000000000000
FFF800000000000000
FFF800000000000000
FFF800000000000000
FFF800000000000000
FFFFFFFFFFFFFFFFE0
FFFFFFFFFFFFFFFFE0
FFFFFFFFFFFFFFFFE0
FFFFFFFFFFFFFFFFE0
FFFFFFFFFFFFFFFFE0
FFFFFFFFFFFFFFFFE0
FFFFFFFFFFFFFFFFE0
FFFFFFFFFFFFFFFFE0
FFFFFFFFFFFFFFFFE0
FFFFFFFFFFFFFFFFE0
FFFFFFFFFFFFFFFFE0
FFFFFFFFFFFFFFFFE0
FFFFFFFFFFFFFFFFE0
ENDCHAR
STARTCHAR f
ENCODING 102
SWIDTH 705 0
DWIDTH 73 0
BBX 64 75 6 0
BITMAP
FFFFFFFFFFFFFFFF
FFFFFFFFFFFFFFFF
FFFFFFFFFFFFFFFF
FFFFFFFFFFFFFFFF
FFFFFFFFFFFFFFFF
FFFFFFFFFFFFFFFF
FFFFFFFFFFFFFFFF
FFFFFFFFFFFFFFFF
FFFFFFFFFFFFFFFF
FFFFFFFFFFFFFFFF
FFFFFFFFFFFFFFFF
FFFFFFFFFFFFFFFF
FFFFFFFFFFFFFFFF
FFF8000000000000
FFF8000000000000
FFF8000000000000
FFF8000000000000
FFF8000000000000
FFF8000000000000
FFF8000000000000
FFF8000000000000
FFF8000000000000
FFF8000000000000
FFF8000000000000
FFF8000000000000
FFF8000000000000
FFF8000000000000
FFF8000000000000
FFF8000000000000
FFF8000000000000
FFF8000000000000
FFF8000000000000
FFF8000000000000
FFF801FFFFFFFFF8
FFF801FFFFFFFFF8
FFF801FFFFFFFFF8
FFF801FFFFFFFFF8
FFF801FFFFFFFFF8
FFF801FFFFFFFFF8
FFF801FFFFFFFFF8
FFF801FFFFFFFFF8
FFF801FFFFFFFFF8
FFF801FFFFFFFFF8
FFF801FFFFFFFFF8
FFF8000000000000
FFF8000000000000
FFF8000000000000
FFF8000000000000
FFF8000000000000
FFF8000000000000
FFF8000000000000
FFF8000000000000
FFF8000000000000
FFF8000000000000
FFF8000000000000
FFF8000000000000
FFF8000000000000
FFF8000000000000
FFF8000000000000
FFF8000000000000
FFF8000000000000
FFF8000000000000
FFF8000000000000
FFF8000000000000
FFF8000000000000
FFF8000000000000
FFF8000000000000
FFF8000000000000
FFF8000000000000
FFF8000000000000
FFF8000000000000
FFF8000000000000
FFF8000000000000
FFF8000000000000
FFF8000000000000
ENDCHAR
STARTCHAR g
ENCODING 103
SWIDTH 888 0
DWIDTH 91 0
BBX 82 75 4 0
BITMAP
00000003FFFFFFFFFFF800
0000003FFFFFFFFFFFF800
000001FFFFFFFFFFFFF800
00000FFFFFFFFFFFFFF800
00003FFFFFFFFFFFFFF800
0000FFFFFFFFFFFFFFF800
0001FFFFFFFFFFFFFFF800
0003FFFFFFFFFFFFFFF800
000FFFFFFFFFFFFFFFF800
001FFFFFFFFFFFFFFFF800
003FFFFFFFFFFFFFFFF800
007FFFFFFFFFFFFFFFF800
00FFFFFFFFFFFFFFFFF800
00FFFFFF00000000000000
01FFFFF000000000000000
03FFFFC000000000000000
03FFFF0000000000000000
07FFFE0000000000000000
0FFFF80000000000000000
0FFFF00000000000000000
0FFFE00000000000000000
1FFFE00000000000000000
1FFFC00000000000000000
3FFF800000000000000000
3FFF800000000000000000
3FFF000000000000000000
7FFF000000000000000000
7FFE000000000000000000
7FFE000000000000000000
7FFC000000000000000000
7FFC000000000000000000
7FFC00001FFFFFFFFFFFC0
FFFC00001FFFFFFFFFFFC0
FFFC00001FFFFFFFFFFFC0
FFFC00001FFFFFFFFFFFC0
FFF800001FFFFFFFFFFFC0
FFF800001FFFFFFFFFFFC0
FFF800001FFFFFFFFFFFC0
FFF800001FFFFFFFFFFFC0
FFF800001FFFFFFFFFFFC0
FFFC00001FFFFFFFFFFFC0
7FFC00001FFFFFFFFFFFC0
7FFC00000000000007FFC0
7FFC00000000000007FFC0
7FFC00000000000007FFC0
7FFE00000000000007FFC0
7FFE00000000000007FFC0
3FFE00000000000007FFC0
3FFF00000000000007FFC0
3FFF00000000000007FFC0
1FFF80000000000007FFC0
1FFF80000000000007FFC0
1FFFC0000000000007FFC0
0FFFE0000000000007FFC0
0FFFF0000000000007FFC0
07FFF8000000000007FFC0
07FFFC000000000007FFC0
03FFFE000000000007FFC0
03FFFF000000000007FFC0
01FFFFC00000000007FFC0
00FFFFF80000000007FFC0
00FFFFFF0000000007FFC0
007FFFFFFFFFFFFFFFFFC0
003FFFFFFFFFFFFFFFFFC0
001FFFFFFFFFFFFFFFFFC0
000FFFFFFFFFFFFFFFFFC0
0007FFFFFFFFFFFFFFFFC0
0003FFFFFFFFFFFFFFFFC0
0000FFFFFFFFFFFFFFFFC0
00007FFFFFFFFFFFFFFFC0
00001FFFFFFFFFFFFFFFC0
000007FFFFFFFFFFFFFFC0
000001FFFFFFFFFFFFFFC0
0000003FFFFFFFFFFFFFC0
00000003FFFFFFFFFFFFC0
ENDCHAR
STARTCHAR h
ENCODING 104
SWIDTH 838 0
DWIDTH 86 0
BBX 74 75 6 0
BITMAP
FFFC000000000007FFC0
FFFC000000000007FFC0
FFFC000000000007FFC0
FFFC000000000007FFC0
FFFC000000000007FFC0
FFFC000000000007FFC0
FFFC000000000007FFC0
FFFC000000000007FFC0
FFFC000000000007FFC0
FFFC000000000007FFC0
FFFC000000000007FFC0
FFFC000000000007FFC0
FFFC000000000007FFC0
FFFC000000000007FFC0
FFFC000000000007FFC0
FFFC000000000007FFC0
FFFC000000000007FFC0
FFFC000000000007FFC0
FFFC000000000007FFC0
FFFC000000000007FFC0
FFFC000000000007FFC0
FFFC000000000007FFC0
FFFC000000000007FFC0
FFFC000000000007FFC0
FFFC000000000007FFC0
FFFC000000000007FFC0
FFFC000000000007FFC0
FFFC000000000007FFC0
FFFC000000000007FFC0
FFFC000000000007FFC0
FFFC000000000007FFC0
FFFC01FFFFFFFFFFFFC0
FFFC01FFFFFFFFFFFFC0
FFFC01FFFFFFFFFFFFC0
FFFC01FFFFFFFFFFFFC0
FFFC01FFFFFFFFFFFFC0
FFFC01FFFFFFFFFFFFC0
FFFC01FFFFFFFFFFFFC0
FFFC01FFFFFFFFFFFFC0
FFFC01FFFFFFFFFFFFC0
FFFC01FFFFFFFFFFFFC0
FFFC01FFFFFFFFFFFFC0
FFFC01FFFFFFFFFFFFC0
FFFC000000000007FFC0
FFFC000000000007FFC0
FFFC000000000007FFC0
FFFC000000000007FFC0
FFFC000000000007FFC0
FFFC000000000007FFC0
FFFC000000000007FFC0
FFFC000000000007FFC0
FFFC000000000007FFC0
FFFC000000000007FFC0
FFFC000000000007FFC0
FFFC000000000007FFC0
FFFC000000000007FFC0
FFFC000000000007FFC0
FFFC000000000007FFC0
FFFC000000000007FFC0
FFFC000000000007FFC0
FFFC000000000007FFC0
FFFC000000000007FFC0
FFFC000000000007FFC0
FFFC000000000007FFC0
FFFC000000000007FFC0
FFFC000000000007FFC0
FFFC000000000007FFC0
FFFC000000000007FFC0
FFFC000000000007FFC0
FFFC000000000007FFC0
FFFC000000000007FFC0
FFFC000000000007FFC0
FFFC000000000007FFC0
FFFC000000000007FFC0
FFFC000000000007FFC0
ENDCHAR
STARTCHAR i
ENCODING 105
SWIDTH 267 0
DWIDTH 28 0
BBX 13 75 7 0
BITMAP
FFF8
FFF8
FFF8
FFF8
FFF8
FFF8
FFF8
FFF8
FFF8
FFF8
FFF8
FFF8
FFF8
FFF8
FFF8
FFF8
FFF8
FFF8
FFF8
FFF8
FFF8
FFF8
FFF8
FFF8
FFF8
FFF8
FFF8
FFF8
FFF8
FFF8
FFF8
FFF8
FFF8
FFF8
FFF8
FFF8
FFF8
FFF8
FFF8
FFF8
FFF8
FFF8
FFF8
FFF8
FFF8
FFF8
FFF8
FFF8
FFF8
FFF8
FFF8
FFF8
FFF8
FFF8
FFF8
FFF8
FFF8
FFF8
FFF8
FFF8
FFF8
FFF8
FFF8
FFF8
FFF8
FFF8
FFF8
FFF8
FFF8
FFF8
FFF8
FFF8
FFF8
FFF8
FFF8
ENDCHAR
STARTCHAR j
ENCODING 106
SWIDTH 708 0
DWIDTH 73 0
BBX 66 75 2 0
BITMAP
0000000000000FFFC0
0000000000000FFFC0
0000000000000FFFC0
0000000000000FFFC0
0000000000000FFFC0
0000000000000FFFC0
0000000000000FFFC0
0000000000000FFFC0
0000000000000FFFC0
0000000000000FFFC0
0000000000000FFFC0
0000000000000FFFC0
0000000000000FFFC0
0000000000000FFFC0
0000000000000FFFC0
0000000000000FFFC0
0000000000000FFFC0
0000000000000FFFC0
0000000000000FFFC0
0000000000000FFFC0
0000000000000FFFC0
0000000000000FFFC0
0000000000000FFFC0
0000000000000FFFC0
0000000000000FFFC0
0000000000000FFFC0
0000000000000FFFC0
0000000000000FFFC0
0000000000000FFFC0
0000000000000FFFC0
0000000000000FFFC0
0000000000000FFFC0
0000000000000FFFC0
0000000000000FFFC0
0000000000000FFFC0
0000000000000FFFC0
0000000000000FFFC0
0000000000000FFFC0
0000000000000FFFC0
0000000000000FFFC0
0000000000000FFFC0
0000000000000FFFC0
0000000000000FFFC0
0000000000000FFF80
0000000000000FFF80
0000000000000FFF80
0000000000000FFF80
0000000000000FFF80
0000000000000FFF80
0000000000001FFF80
0000000000001FFF80
0000000000001FFF80
0000000000003FFF00
0000000000003FFF00
0000000000007FFF00
000000000000FFFE00
000000000001FFFE00
000000000003FFFE00
00000000000FFFFC00
00000000003FFFFC00
0000000000FFFFF800
000000001FFFFFF800
FFFFFFFFFFFFFFF000
FFFFFFFFFFFFFFE000
FFFFFFFFFFFFFFE000
FFFFFFFFFFFFFFC000
FFFFFFFFFFFFFF8000
FFFFFFFFFFFFFE0000
FFFFFFFFFFFFFC0000
FFFFFFFFFFFFF80000
FFFFFFFFFFFFE00000
FFFFFFFFFFFF800000
FFFFFFFFFFFC000000
FFFFFFFFFFC0000000
FFFFFFFFF800000000
ENDCHAR
STARTCHAR k
ENCODING 107
SWIDTH 875 0
DWIDTH 90 0
BBX 82 75 6 0
BITMAP
FFFC00000000000FFFFF80
FFFC00000000001FFFFE00
FFFC00000000007FFFF800
FFFC0000000000FFFFF000
FFFC0000000001FFFFE000
FFFC0000000007FFFF8000
FFFC000000000FFFFF0000
FFFC000000001FFFFE0000
FFFC000000007FFFF80000
FFFC00000000FFFFF00000
FFFC00000001FFFFE00000
FFFC00000003FFFF800000
FFFC0000000FFFFF000000
FFFC0000001FFFFE000000
FFFC0000003FFFF8000000
FFFC000000FFFFF0000000
FFFC000001FFFFE0000000
FFFC000003FFFF80000000
FFFC000007FFFF00000000
FFFC00001FFFFE00000000
FFFC00003FFFF800000000
FFFC00007FFFF000000000
FFFC0001FFFFE000000000
FFFC0003FFFF8000000000
FFFC0007FFFF0000000000
FFFC001FFFFE0000000000
FFFC003FFFF80000000000
FFFC007FFFF00000000000
FFFC00FFFFC00000000000
FFFC03FFFF800000000000
FFFC07FFFF000000000000
FFFC0FFFFC000000000000
FFFC1FFFF8000000000000
FFFC3FFFF0000000000000
FFFC3FFFC0000000000000
FFFC3FFF80000000000000
FFFC3FFF00000000000000
FFFC3FFF80000000000000
FFFC3FFFC0000000000000
FFFC3FFFE0000000000000
FFFC1FFFF8000000000000
FFFC0FFFFC000000000000
FFFC07FFFE000000000000
FFFC03FFFF800000000000
FFFC01FFFFC00000000000
FFFC007FFFE00000000000
FFFC003FFFF80000000000
FFFC001FFFFC0000000000
FFFC0007FFFE0000000000
FFFC0003FFFF8000000000
FFFC0001FFFFC000000000
FFFC0000FFFFE000000000
FFFC00003FFFF800000000
FFFC00001FFFFC00000000
FFFC00000FFFFE00000000
FFFC000007FFFF00000000
FFFC000001FFFFC0000000
FFFC000000FFFFE0000000
FFFC0000007FFFF0000000
FFFC0000003FFFFC000000
FFFC0000000FFFFE000000
FFFC00000007FFFF000000
FFFC00000003FFFFC00000
FFFC00000000FFFFE00000
FFFC000000007FFFF00000
FFFC000000003FFFFC0000
FFFC000000001FFFFE0000
FFFC0000000007FFFF0000
FFFC0000000003FFFFC000
FFFC0000000001FFFFE000
FFFC0000000000FFFFF000
FFFC00000000003FFFFC00
FFFC00000000001FFFFE00
FFFC00000000000FFFFF00
FFFC000000000003FFFFC0
ENDCHAR
STARTCHAR l
ENCODING 108
SWIDTH 707 0
DWIDTH 73 0
BBX 64 75 6 0
BITMAP
FFFC000000000000
FFFC000000000000
FFFC000000000000
FFFC000000000000
FFFC000000000000
FFFC000000000000
FFFC000000000000
FFFC000000000000
FFFC000000000000
FFFC000000000000
FFFC000000000000
FFFC000000000000
FFFC000000000000
FFFC000000000000
FFFC000000000000
FFFC000000000000
FFFC000000000000
FFFC000000000000
FFFC000000000000
FFFC000000000000
FFFC000000000000
FFFC000000000000
FFFC000000000000
FFFC000000000000
FFFC000000000000
FFFC000000000000
FFFC000000000000
FFFC000000000000
FFFC000000000000
FFFC000000000000
FFFC000000000000
FFFC000000000000
FFFC000000000000
FFFC000000000000
FFFC000000000000
FFFC000000000000
FFFC000000000000
FFFC000000000000
FFFC000000000000
FFFC000000000000
FFFC000000000000
FFFC000000000000
FFFC000000000000
FFFC000000000000
FFFC000000000000
FFFC000000000000
FFFC000000000000
FFFC000000000000
FFFC000000000000
FFFC000000000000
FFFC000000000000
FFFC000000000000
FFFC000000000000
FFFC000000000000
FFFC000000000000
FFFC000000000000
FFFC000000000000
FFFC000000000000
FFFC000000000000
FFFC000000000000
FFFC000000000000
FFFC000000000000
FFFFFFFFFFFFFFFF
FFFFFFFFFFFFFFFF
FFFFFFFFFFFFFFFF
FFFFFFFFFFFFFFFF
FFFFFFFFFFFFFFFF
FFFFFFFFFFFFFFFF
FFFFFFFFFFFFFFFF
FFFFFFFFFFFFFFFF
FFFFFFFFFFFFFFFF
FFFFFFFFFFFFFFFF
FFFFFFFFFFFFFFFF
FFFFFFFFFFFFFFFF
FFFFFFFFFFFFFFFF
ENDCHAR
STARTCHAR m
ENCODING 109
SWIDTH 1115 0
DWIDTH 115 0
BBX 111 76 2 -1
BITMAP
000001F80000000000001F000000
000003FE0000000000007F800000
000007FF000000000000FFC00000
00000FFF000000000001FFE00000
00000FFF800000000001FFE00000
00000FFF800000000003FFF00000
00001FFFC00000000003FFF00000
00001FFFC00000000003FFF00000
00001FFFE00000000007FFF00000
00001FFFE00000000007FFF80000
00003FFFF0000000000FFFF80000
00003FFFF0000000000FFFF80000
00003FFFF0000000001FFFFC0000
00007FFFF8000000001FFFFC0000
00007FFFF8000000003FFFFC0000
00007FFFFC000000003FFFFC0000
00007FFFFC000000003FFFFE0000
0000FFFFFE000000007FFFFE0000
0000FFFFFE000000007FFFFE0000
0000FFFFFE00000000FFFFFE0000
0000FFFFFF00000000FFFFFF0000
0001FFFFFF00000001FFFFFF0000
0001FFFFFF80000001FFFFFF0000
0001FFFFFF80000001FFFFFF8000
0003FFEFFFC0000003FFEFFF8000
0003FFE7FFC0000003FFCFFF8000
0003FFE7FFE0000007FFCFFF8000
0003FFC3FFE0000007FF87FFC000
0007FFC3FFE000000FFF87FFC000
0007FFC3FFF000000FFF87FFC000
0007FFC1FFF000001FFF07FFC000
000FFF81FFF800001FFF03FFE000
000FFF80FFF800001FFE03FFE000
000FFF80FFFC00003FFE03FFE000
000FFF807FFC00003FFC01FFF000
001FFF007FFE00007FFC01FFF000
001FFF003FFE00007FF801FFF000
001FFF003FFE0000FFF801FFF000
001FFE003FFF0000FFF800FFF800
003FFE001FFF0001FFF000FFF800
003FFE001FFF8001FFF000FFF800
003FFE000FFF8001FFE000FFF800
007FFC000FFFC003FFE0007FFC00
007FFC0007FFC003FFC0007FFC00
007FFC0007FFC007FFC0007FFC00
007FF80003FFE007FFC0003FFE00
00FFF80003FFE00FFF80003FFE00
00FFF80003FFF00FFF80003FFE00
00FFF80001FFF00FFF00003FFE00
00FFF00001FFF81FFF00001FFF00
01FFF00000FFF81FFE00001FFF00
01FFF00000FFFC3FFE00001FFF00
01FFF000007FFC3FFC00001FFF80
03FFE000007FFC7FFC00000FFF80
03FFE000007FFE7FFC00000FFF80
03FFE000003FFEFFF800000FFF80
03FFC000003FFFFFF8000007FFC0
07FFC000001FFFFFF0000007FFC0
07FFC000001FFFFFF0000007FFC0
07FFC000000FFFFFE0000007FFC0
0FFF8000000FFFFFE0000003FFE0
0FFF80000007FFFFC0000003FFE0
0FFF80000007FFFFC0000003FFE0
0FFF80000007FFFFC0000001FFF0
1FFF00000003FFFF80000001FFF0
1FFF00000003FFFF80000001FFF0
1FFF00000001FFFF00000001FFF0
1FFE00000001FFFF00000000FFF8
3FFE00000000FFFE00000000FFF8
3FFE00000000FFFE00000000FFF8
3FFE00000000FFFC00000000FFF8
7FFC000000007FFC000000007FFC
7FFC000000007FF8000000007FFC
7FFC000000003FF8000000007FFC
FFF8000000001FF0000000003FFE
00000000000007C0000000000000
ENDCHAR
STARTCHAR n
ENCODING 110
SWIDTH 873 0
DWIDTH 90 0
BBX 78 75 6 0
BITMAP
0F800000000000007FFC
1FE00000000000007FFC
3FF00000000000007FFC
7FF80000000000007FFC
7FFC0000000000007FFC
FFFE0000000000007FFC
FFFF0000000000007FFC
FFFF8000000000007FFC
FFFFC000000000007FFC
FFFFE000000000007FFC
FFFFF000000000007FFC
FFFFF800000000007FFC
FFFFFC00000000007FFC
FFFFFE00000000007FFC
FFFFFF80000000007FFC
FFFFFFC0000000007FFC
FFFFFFE0000000007FFC
FFFFFFF0000000007FFC
FFFFFFF8000000007FFC
FFFFFFFC000000007FFC
FFFFFFFE000000007FFC
FFFFFFFF000000007FFC
FFFBFFFF800000007FFC
FFF9FFFFC00000007FFC
FFF8FFFFE00000007FFC
FFF87FFFF00000007FFC
FFF83FFFF80000007FFC
FFF81FFFFC0000007FFC
FFF80FFFFE0000007FFC
FFF807FFFF0000007FFC
FFF803FFFF8000007FFC
FFF801FFFFC000007FFC
FFF800FFFFE000007FFC
FFF8007FFFF000007FFC
FFF8003FFFF800007FFC
FFF8000FFFFC00007FFC
FFF80007FFFE00007FFC
FFF80003FFFF00007FFC
FFF80001FFFF80007FFC
FFF80000FFFFC0007FFC
FFF800007FFFE0007FFC
FFF800003FFFF0007FFC
FFF800001FFFF8007FFC
FFF800000FFFFC007FFC
FFF8000007FFFE007FFC
FFF8000003FFFF007FFC
FFF8000001FFFF807FFC
FFF8000000FFFFC07FFC
FFF80000007FFFE07FFC
FFF80000003FFFF07FFC
FFF80000001FFFF87FFC
FFF80000000FFFFC7FFC
FFF800000007FFFE7FFC
FFF800000003FFFF7FFC
FFF800000001FFFFFFFC
FFF800000000FFFFFFFC
FFF8000000007FFFFFFC
FFF8000000003FFFFFFC
FFF8000000001FFFFFFC
FFF8000000000FFFFFFC
FFF80000000007FFFFFC
FFF80000000003FFFFFC
FFF80000000001FFFFFC
FFF80000000000FFFFFC
FFF800000000007FFFFC
FFF800000000003FFFFC
FFF800000000001FFFFC
FFF800000000000FFFFC
FFF8000000000007FFFC
FFF8000000000003FFFC
FFF8000000000001FFF8
FFF8000000000000FFF8
FFF80000000000007FF0
FFF80000000000001FE0
FFF800000000000007C0
ENDCHAR
STARTCHAR o
ENCODING 111
SWIDTH 968 0
DWIDTH 100 0
BBX 92 75 4 0
BITMAP
00000003FFFFFFFC00000000
0000003FFFFFFFFFC0000000
000001FFFFFFFFFFF8000000
00000FFFFFFFFFFFFF000000
00003FFFFFFFFFFFFFC00000
0000FFFFFFFFFFFFFFE00000
0001FFFFFFFFFFFFFFF80000
0003FFFFFFFFFFFFFFFC0000
000FFFFFFFFFFFFFFFFF0000
001FFFFFFFFFFFFFFFFF8000
003FFFFFFFFFFFFFFFFFC000
007FFFFFFFFFFFFFFFFFE000
00FFFFFFFFFFFFFFFFFFE000
00FFFFFF0000001FFFFFF000
01FFFFF000000001FFFFF800
03FFFFC0000000003FFFFC00
03FFFF00000000000FFFFC00
07FFFE000000000007FFFE00
0FFFF8000000000003FFFE00
0FFFF0000000000001FFFF00
0FFFE0000000000000FFFF00
1FFFE00000000000007FFF80
1FFFC00000000000003FFF80
3FFF800000000000001FFFC0
3FFF800000000000001FFFC0
3FFF000000000000000FFFC0
7FFF000000000000000FFFC0
7FFE0000000000000007FFE0
7FFE0000000000000007FFE0
7FFC0000000000000007FFE0
7FFC0000000000000003FFE0
7FFC0000000000000003FFE0
FFFC0000000000000003FFE0
FFFC0000000000000003FFE0
FFFC0000000000000003FFF0
FFF80000000000000003FFF0
FFF80000000000000003FFF0
FFF80000000000000003FFF0
FFF80000000000000003FFF0
FFF80000000000000003FFE0
FFFC0000000000000003FFE0
7FFC0000000000000003FFE0
7FFC0000000000000003FFE0
7FFC0000000000000003FFE0
7FFC0000000000000003FFE0
7FFE0000000000000007FFE0
7FFE0000000000000007FFE0
3FFE0000000000000007FFC0
3FFF000000000000000FFFC0
3FFF000000000000000FFFC0
1FFF800000000000001FFF80
1FFF800000000000001FFF80
1FFFC00000000000003FFF80
0FFFE00000000000007FFF00
0FFFF0000000000000FFFF00
07FFF8000000000001FFFE00
07FFFC000000000003FFFE00
03FFFE000000000007FFFC00
03FFFF00000000001FFFFC00
01FFFFC0000000003FFFF800
00FFFFF800000001FFFFF000
00FFFFFF0000001FFFFFE000
007FFFFFFFFFFFFFFFFFE000
003FFFFFFFFFFFFFFFFFC000
001FFFFFFFFFFFFFFFFF8000
000FFFFFFFFFFFFFFFFF0000
0007FFFFFFFFFFFFFFFE0000
0003FFFFFFFFFFFFFFF80000
0000FFFFFFFFFFFFFFF00000
00007FFFFFFFFFFFFFE00000
00001FFFFFFFFFFFFF800000
000007FFFFFFFFFFFE000000
000001FFFFFFFFFFF8000000
0000003FFFFFFFFFC0000000
00000003FFFFFFF800000000
ENDCHAR
STARTCHAR p
ENCODING 112
SWIDTH 867 0
DWIDTH 89 0
BBX 81 75 6 0
BITMAP
FFFFFFFFFFFFFFE0000000
FFFFFFFFFFFFFFFF000000
FFFFFFFFFFFFFFFFC00000
FFFFFFFFFFFFFFFFF00000
FFFFFFFFFFFFFFFFFC0000
FFFFFFFFFFFFFFFFFE0000
FFFFFFFFFFFFFFFFFF8000
FFFFFFFFFFFFFFFFFFC000
FFFFFFFFFFFFFFFFFFC000
FFFFFFFFFFFFFFFFFFE000
FFFFFFFFFFFFFFFFFFF000
FFFFFFFFFFFFFFFFFFF800
FFFFFFFFFFFFFFFFFFF800
FFF800000000007FFFFC00
FFF800000000000FFFFC00
FFF8000000000003FFFE00
FFF8000000000001FFFE00
FFF8000000000000FFFE00
FFF80000000000007FFF00
FFF80000000000003FFF00
FFF80000000000003FFF00
FFF80000000000001FFF00
FFF80000000000001FFF00
FFF80000000000001FFF00
FFF80000000000000FFF00
FFF80000000000000FFF00
FFF80000000000000FFF80
FFF80000000000000FFF80
FFF80000000000000FFF00
FFF80000000000000FFF00
FFF80000000000001FFF00
FFF80000000000001FFF00
FFF80000000000001FFF00
FFF80000000000003FFF00
FFF80000000000003FFF00
FFF80000000000007FFE00
FFF8000000000000FFFE00
FFF8000000000001FFFE00
FFF8000000000003FFFC00
FFF8000000000007FFFC00
FFF800000000003FFFFC00
FFF801FFFFFFFFFFFFF800
FFF801FFFFFFFFFFFFF000
FFF801FFFFFFFFFFFFF000
FFF801FFFFFFFFFFFFE000
FFF801FFFFFFFFFFFFC000
FFF801FFFFFFFFFFFF8000
FFF801FFFFFFFFFFFF0000
FFF801FFFFFFFFFFFE0000
FFF801FFFFFFFFFFFC0000
FFF801FFFFFFFFFFF00000
FFF801FFFFFFFFFFC00000
FFF801FFFFFFFFFF000000
FFF801FFFFFFFFF0000000
FFF8000000000000000000
FFF8000000000000000000
FFF8000000000000000000
FFF8000000000000000000
FFF8000000000000000000
FFF8000000000000000000
FFF8000000000000000000
FFF8000000000000000000
FFF8000000000000000000
FFF8000000000000000000
FFF8000000000000000000
FFF8000000000000000000
FFF8000000000000000000
FFF8000000000000000000
FFF8000000000000000000
FFF8000000000000000000
FFF8000000000000000000
FFF8000000000000000000
FFF8000000000000000000
FFF8000000000000000000
FFF8000000000000000000
ENDCHAR
STARTCHAR q
ENCODING 113
SWIDTH 968 0
DWIDTH 100 0
BBX 95 75 4 0
BITMAP
00000003FFFFFFFC00000000
0000003FFFFFFFFFC0000000
000001FFFFFFFFFFF8000000
00000FFFFFFFFFFFFF000000
00003FFFFFFFFFFFFFC00000
0000FFFFFFFFFFFFFFE00000
0001FFFFFFFFFFFFFFF80000
0003FFFFFFFFFFFFFFFC0000
000FFFFFFFFFFFFFFFFF0000
001FFFFFFFFFFFFFFFFF8000
003FFFFFFFFFFFFFFFFFC000
007FFFFFFFFFFFFFFFFFE000
00FFFFFFFFFFFFFFFFFFE000
00FFFFFF0000001FFFFFF000
01FFFFF000000001FFFFF800
03FFFFC0000000003FFFFC00
03FFFF00000000000FFFFC00
07FFFE000000000007FFFE00
0FFFF8000000000003FFFE00
0FFFF0000000000001FFFF00
0FFFE0000000000000FFFF00
1FFFE00000000000007FFF80
1FFFC00000000000003FFF80
3FFF800000000000001FFFC0
3FFF800000000000001FFFC0
3FFF000000000000000FFFC0
7FFF000000000000000FFFC0
7FFE0000000000000007FFE0
7FFE0000000000000007FFE0
7FFC0000000000000007FFE0
7FFC0000000000000003FFE0
7FFC0000000000000003FFE0
FFFC0000000000000003FFE0
FFFC0000000000000003FFE0
FFFC0000000000000003FFF0
FFF80000000000000003FFF0
FFF80000000000000003FFF0
FFF80000000000000003FFF0
FFF80000000000000003FFF0
FFF80000000000000003FFE0
FFFC0000000000000003FFE0
7FFC0000000000000003FFE0
7FFC0000000000000003FFE0
7FFC0000000000000003FFE0
7FFC000000FFFFC00003FFE0
7FFE0000003FFFE00007FFE0
7FFE0000001FFFF00007FFE0
3FFE0000000FFFF80007FFC0
3FFF00000007FFFC000FFFC0
3FFF00000001FFFF000FFFC0
1FFF80000000FFFF801FFF80
1FFF800000007FFFC01FFF80
1FFFC00000001FFFE03FFF80
0FFFE00000000FFFF07FFF00
0FFFF000000007FFF8FFFF00
07FFF800000003FFFFFFFE00
07FFFC00000000FFFFFFFE00
03FFFE000000007FFFFFFC00
03FFFF000000003FFFFFFC00
01FFFFC00000001FFFFFF800
00FFFFF800000007FFFFF000
00FFFFFF0000001FFFFFE000
007FFFFFFFFFFFFFFFFFE000
003FFFFFFFFFFFFFFFFFC000
001FFFFFFFFFFFFFFFFFC000
000FFFFFFFFFFFFFFFFFE000
0007FFFFFFFFFFFFFFFFF000
0003FFFFFFFFFFFFFFFFFC00
0000FFFFFFFFFFFFFFFFFE00
00007FFFFFFFFFFFFFFFFF00
00001FFFFFFFFFFFFFFFFFC0
000007FFFFFFFFFFFE3FFFE0
000001FFFFFFFFFFF81FFFF0
0000003FFFFFFFFFC00FFFF8
00000003FFFFFFF80007FFFE
ENDCHAR
STARTCHAR r
ENCODING 114
SWIDTH 921 0
DWIDTH 95 0
BBX 89 75 6 0
BITMAP
FFFFFFFFFFFFFFF000000000
FFFFFFFFFFFFFFFF80000000
FFFFFFFFFFFFFFFFE0000000
FFFFFFFFFFFFFFFFF8000000
FFFFFFFFFFFFFFFFFE000000
FFFFFFFFFFFFFFFFFF000000
FFFFFFFFFFFFFFFFFF800000
FFFFFFFFFFFFFFFFFFC00000
FFFFFFFFFFFFFFFFFFE00000
FFFFFFFFFFFFFFFFFFF00000
FFFFFFFFFFFFFFFFFFF80000
FFFFFFFFFFFFFFFFFFF80000
FFFFFFFFFFFFFFFFFFFC0000
FFF800000000003FFFFE0000
FFF8000000000003FFFE0000
FFF8000000000001FFFE0000
FFF80000000000007FFF0000
FFF80000000000003FFF0000
FFF80000000000003FFF0000
FFF80000000000001FFF8000
FFF80000000000001FFF8000
FFF80000000000000FFF8000
FFF80000000000000FFF8000
FFF80000000000000FFF8000
FFF80000000000000FFF8000
FFF800000000000007FF8000
FFF800000000000007FF8000
FFF800000000000007FF8000
FFF800000000000007FF8000
FFF80000000000000FFF8000
FFF80000000000000FFF8000
FFF80000000000000FFF8000
FFF80000000000000FFF8000
FFF80000000000000FFF8000
FFF80000000000001FFF8000
FFF80000000000001FFF0000
FFF80000000000003FFF0000
FFF80000000000003FFF0000
FFF80000000000007FFF0000
FFF8000000000001FFFE0000
FFF8000000000003FFFE0000
FFF800000000001FFFFC0000
FFF801FFFFFFFFFFFFFC0000
FFF801FFFFFFFFFFFFF80000
FFF801FFFFFFFFFFFFF00000
FFF801FFFFFFFFFFFFE00000
FFF801FFFFFFFFFFFFC00000
FFF801FFFFFFFFFFFF800000
FFF801FFFFFFFFFFFF000000
FFF801FFFFFFFFFFFE000000
FFF801FFFFFFFFFFF8000000
FFF801FFFFFFFFFFE0000000
FFF801FFFFFFFFFFE0000000
FFF801FFFFFFFFFFE0000000
FFF8000000000FFFF0000000
FFF8000000000FFFF8000000
FFF80000000007FFFC000000
FFF80000000003FFFE000000
FFF80000000001FFFF000000
FFF80000000000FFFF800000
FFF800000000007FFFC00000
FFF800000000003FFFE00000
FFF800000000001FFFF00000
FFF800000000000FFFF80000
FFF8000000000007FFFC0000
FFF8000000000007FFFE0000
FFF8000000000003FFFF0000
FFF8000000000001FFFF8000
FFF8000000000000FFFFC000
FFF80000000000007FFFE000
FFF80000000000003FFFF000
FFF80000000000001FFFF800
FFF80000000000000FFFFC00
FFF800000000000007FFFE00
FFF800000000000003FFFF80
ENDCHAR
STARTCHAR s
ENCODING 115
SWIDTH 880 0
DWIDTH 91 0
BBX 81 75 5 0
BITMAP
00003FFFFFFFFFFFFFF800
0003FFFFFFFFFFFFFFF800
001FFFFFFFFFFFFFFFF800
007FFFFFFFFFFFFFFFF800
00FFFFFFFFFFFFFFFFF800
01FFFFFFFFFFFFFFFFF800
03FFFFFFFFFFFFFFFFF800
07FFFFFFFFFFFFFFFFF800
0FFFFFFFFFFFFFFFFFF800
1FFFFFFFFFFFFFFFFFF800
1FFFFFFFFFFFFFFFFFF800
3FFFFFFFFFFFFFFFFFF800
3FFFFFFFFFFFFFFFFFF800
7FFFF00000000000000000
7FFFC00000000000000000
7FFF000000000000000000
7FFF000000000000000000
7FFE000000000000000000
FFFE000000000000000000
FFFC000000000000000000
FFFC000000000000000000
FFFC000000000000000000
FFFC000000000000000000
FFFC000000000000000000
7FFC000000000000000000
7FFC000000000000000000
7FFE000000000000000000
7FFE000000000000000000
3FFF000000000000000000
3FFFC00000000000000000
3FFFF00000000000000000
1FFFFFFFFFFFFFFF000000
0FFFFFFFFFFFFFFFF00000
0FFFFFFFFFFFFFFFFE0000
07FFFFFFFFFFFFFFFF0000
03FFFFFFFFFFFFFFFFC000
01FFFFFFFFFFFFFFFFE000
00FFFFFFFFFFFFFFFFF000
003FFFFFFFFFFFFFFFF800
001FFFFFFFFFFFFFFFFC00
0003FFFFFFFFFFFFFFFC00
00007FFFFFFFFFFFFFFE00
0000000000000003FFFE00
0000000000000000FFFF00
00000000000000003FFF00
00000000000000001FFF00
00000000000000001FFF00
00000000000000000FFF00
00000000000000000FFF80
00000000000000000FFF80
00000000000000000FFF80
000000000000000007FF80
000000000000000007FF80
00000000000000000FFF80
00000000000000000FFF80
00000000000000000FFF80
00000000000000000FFF80
00000000000000001FFF80
00000000000000003FFF00
00000000000000007FFF00
0000000000000000FFFF00
0000000000000007FFFF00
7FFFFFFFFFFFFFFFFFFE00
7FFFFFFFFFFFFFFFFFFE00
7FFFFFFFFFFFFFFFFFFC00
7FFFFFFFFFFFFFFFFFFC00
7FFFFFFFFFFFFFFFFFF800
7FFFFFFFFFFFFFFFFFF000
7FFFFFFFFFFFFFFFFFE000
7FFFFFFFFFFFFFFFFFC000
7FFFFFFFFFFFFFFFFF8000
7FFFFFFFFFFFFFFFFF0000
7FFFFFFFFFFFFFFFFC0000
7FFFFFFFFFFFFFFFE00000
7FFFFFFFFFFFFFFF000000
ENDCHAR
STARTCHAR t
ENCODING 116
SWIDTH 720 0
DWIDTH 74 0
BBX 70 75 2 0
BITMAP
FFFFFFFFFFFFFFFFFC
FFFFFFFFFFFFFFFFFC
FFFFFFFFFFFFFFFFFC
FFFFFFFFFFFFFFFFFC
FFFFFFFFFFFFFFFFFC
FFFFFFFFFFFFFFFFFC
FFFFFFFFFFFFFFFFFC
FFFFFFFFFFFFFFFFFC
FFFFFFFFFFFFFFFFFC
FFFFFFFFFFFFFFFFFC
FFFFFFFFFFFFFFFFFC
FFFFFFFFFFFFFFFFFC
FFFFFFFFFFFFFFFFFC
0000000FFFC0000000
0000000FFFC0000000
0000000FFFC0000000
0000000FFFC0000000
0000000FFFC0000000
0000000FFFC0000000
0000000FFFC0000000
0000000FFFC0000000
0000000FFFC0000000
0000000FFFC0000000
0000000FFFC0000000
0000000FFFC0000000
0000000FFFC0000000
0000000FFFC0000000
0000000FFFC0000000
0000000FFFC0000000
0000000FFFC0000000
0000000FFFC0000000
0000000FFFC0000000
0000000FFFC0000000
0000000FFFC0000000
0000000FFFC0000000
0000000FFFC0000000
0000000FFFC0000000
0000000FFFC0000000
0000000FFFC0000000
0000000FFFC0000000
0000000FFFC0000000
0000000FFFC0000000
0000000FFFC0000000
0000000FFFC0000000
0000000FFFC0000000
0000000FFFC0000000
0000000FFFC0000000
0000000FFFC0000000
0000000FFFC0000000
0000000FFFC0000000
0000000FFFC0000000
0000000FFFC0000000
0000000FFFC0000000
0000000FFFC0000000
0000000FFFC0000000
0000000FFFC0000000
0000000FFFC0000000
0000000FFFC0000000
0000000FFFC0000000
0000000FFFC0000000
0000000FFFC0000000
0000000FFFC0000000
0000000FFFC0000000
0000000FFFC0000000
0000000FFFC0000000
0000000FFFC0000000
0000000FFFC0000000
0000000FFFC0000000
0000000FFFC0000000
0000000FFFC0000000
0000000FFFC0000000
0000000FFFC0000000
0000000FFFC0000000
0000000FFFC0000000
0000000FFFC0000000
ENDCHAR
STARTCHAR u
ENCODING 117
SWIDTH 889 0
DWIDTH 92 0
BBX 81 76 5 -1
BITMAP
FFFC0000000000000FFF80
FFFC0000000000000FFF80
FFFC0000000000000FFF80
FFFC0000000000000FFF80
FFFC0000000000000FFF80
FFFC0000000000000FFF80
FFFC0000000000000FFF80
FFFC0000000000000FFF80
FFFC0000000000000FFF80
FFFC0000000000000FFF80
FFFC0000000000000FFF80
FFFC0000000000000FFF80
FFFC0000000000000FFF80
FFFC0000000000000FFF80
FFFC0000000000000FFF80
FFFC0000000000000FFF80
FFFC0000000000000FFF80
FFFC0000000000000FFF80
FFFC0000000000000FFF80
FFFC0000000000000FFF80
FFFC0000000000000FFF80
FFFC0000000000000FFF80
FFFC0000000000000FFF80
FFFC0000000000000FFF80
FFFC0000000000000FFF80
FFFC0000000000000FFF80
FFFC0000000000000FFF80
FFFC0000000000000FFF80
FFFC0000000000000FFF80
FFFC0000000000000FFF80
FFFC0000000000000FFF80
FFFC0000000000000FFF80
FFFC0000000000000FFF80
FFFC0000000000000FFF80
FFFC0000000000000FFF80
FFFC0000000000000FFF80
FFFC0000000000000FFF80
FFFC0000000000000FFF80
FFFC0000000000000FFF80
FFFC0000000000000FFF80
FFFC0000000000000FFF80
FFFC0000000000000FFF80
FFFC0000000000000FFF80
FFFC0000000000000FFF80
FFFC0000000000000FFF80
FFFC0000000000000FFF80
7FFC0000000000000FFF80
7FFC0000000000000FFF80
7FFC0000000000000FFF80
7FFE0000000000000FFF80
7FFE0000000000001FFF80
7FFE0000000000001FFF00
7FFF0000000000001FFF00
3FFF0000000000003FFF00
3FFF8000000000003FFF00
3FFF8000000000007FFE00
3FFFC00000000000FFFE00
1FFFE00000000001FFFE00
1FFFF00000000003FFFC00
0FFFFC000000000FFFFC00
0FFFFF000000003FFFF800
07FFFFE0000001FFFFF800
07FFFFFF00003FFFFFF000
03FFFFFFFFFFFFFFFFF000
01FFFFFFFFFFFFFFFFE000
01FFFFFFFFFFFFFFFFC000
00FFFFFFFFFFFFFFFF8000
007FFFFFFFFFFFFFFF0000
001FFFFFFFFFFFFFFE0000
000FFFFFFFFFFFFFFC0000
0003FFFFFFFFFFFFF00000
0001FFFFFFFFFFFFC00000
00003FFFFFFFFFFF000000
00000FFFFFFFFFF8000000
000000FFFFFFFF80000000
00000003FFFFF000000000
ENDCHAR
STARTCHAR v
ENCODING 118
SWIDTH 989 0
DWIDTH 102 0
BBX 99 76 1 -1
BITMAP
FFFF80000000000000000FFFE0
7FFF80000000000000001FFFC0
3FFFC0000000000000001FFFC0
1FFFC0000000000000003FFF80
1FFFE0000000000000003FFF80
0FFFF0000000000000007FFF00
0FFFF000000000000000FFFE00
07FFF800000000000000FFFE00
03FFF800000000000001FFFC00
03FFFC00000000000001FFFC00
01FFFE00000000000003FFF800
01FFFE00000000000003FFF000
00FFFF00000000000007FFF000
007FFF0000000000000FFFE000
007FFF8000000000000FFFE000
003FFF8000000000001FFFC000
003FFFC000000000001FFF8000
001FFFE000000000003FFF8000
000FFFE000000000007FFF0000
000FFFF000000000007FFF0000
0007FFF00000000000FFFE0000
0007FFF80000000000FFFC0000
0003FFFC0000000001FFFC0000
0001FFFC0000000001FFF80000
0001FFFE0000000003FFF80000
0000FFFE0000000007FFF00000
0000FFFF0000000007FFE00000
00007FFF800000000FFFE00000
00003FFF800000000FFFC00000
00003FFFC00000001FFFC00000
00001FFFC00000003FFF800000
00001FFFE00000003FFF000000
00000FFFE00000007FFF000000
000007FFF00000007FFE000000
000007FFF8000000FFFE000000
000003FFF8000000FFFC000000
000003FFFC000001FFF8000000
000001FFFC000003FFF8000000
000000FFFE000003FFF0000000
000000FFFF000007FFF0000000
0000007FFF000007FFE0000000
0000007FFF80000FFFC0000000
0000003FFF80001FFFC0000000
0000001FFFC0001FFF80000000
0000001FFFC0003FFF80000000
0000000FFFE0003FFF00000000
0000000FFFF0007FFE00000000
00000007FFF0007FFE00000000
00000003FFF800FFFC00000000
00000003FFF801FFFC00000000
00000001FFFC01FFF800000000
00000001FFFE03FFF000000000
00000000FFFE03FFF000000000
000000007FFF07FFE000000000
000000007FFF0FFFE000000000
000000003FFF8FFFC000000000
000000003FFFDFFF8000000000
000000001FFFDFFF8000000000
000000000FFFFFFF0000000000
000000000FFFFFFF0000000000
0000000007FFFFFE0000000000
0000000007FFFFFC0000000000
0000000003FFFFFC0000000000
0000000001FFFFF80000000000
0000000001FFFFF80000000000
0000000000FFFFF00000000000
0000000000FFFFE00000000000
00000000007FFFE00000000000
00000000003FFFC00000000000
00000000003FFFC00000000000
00000000001FFF800000000000
00000000001FFF000000000000
00000000000FFF000000000000
000000000007FE000000000000
000000000003FC000000000000
000000000001F0000000000000
ENDCHAR
STARTCHAR w
ENCODING 119
SWIDTH 1268 0
DWIDTH 131 0
BBX 128 76 1 -1
BITMAP
FFFF000003FFFC000000000000007FFF
7FFF800001FFFE000000000000007FFE
3FFF800000FFFE00000000000000FFFE
3FFFC00000FFFF00000000000000FFFC
1FFFC000007FFF00000000000001FFFC
1FFFE000007FFF80000000000001FFF8
0FFFE000003FFF80000000000003FFF8
0FFFF000003FFFC0000000000007FFF0
07FFF800001FFFC0000000000007FFF0
03FFF800001FFFE000000000000FFFE0
03FFFC00000FFFE000000000000FFFC0
01FFFC00000FFFF000000000001FFFC0
01FFFE000007FFF000000000001FFF80
00FFFE000007FFF800000000003FFF80
00FFFF000003FFF800000000003FFF00
007FFF000003FFFC00000000007FFF00
007FFF800001FFFC00000000007FFE00
003FFF800001FFFE0000000000FFFE00
003FFFC00000FFFE0000000000FFFC00
001FFFC00000FFFF0000000001FFFC00
001FFFE000007FFF0000000001FFF800
000FFFE000007FFF8000000003FFF000
0007FFF000003FFF8000000003FFF000
0007FFF000003FFFC000000007FFE000
0003FFF800001FFFC000000007FFE000
0003FFF800001FFFE00000000FFFC000
0001FFFC00000FFFE00000001FFFC000
0001FFFC00000FFFF00000001FFF8000
0000FFFE000007FFF00000003FFF8000
0000FFFF000007FFF80000003FFF0000
00007FFF000003FFF80000007FFF0000
00007FFF800003FFFC0000007FFE0000
00003FFF800001FFFC000000FFFE0000
00003FFFC00001FFFE000000FFFC0000
00001FFFC00000FFFE000001FFF80000
00000FFFE000007FFF000001FFF80000
00000FFFE000007FFF000003FFF00000
000007FFF000003FFF800003FFF00000
000007FFF000007FFF800007FFE00000
000003FFF800007FFFC00007FFE00000
000003FFF80000FFFFC0000FFFC00000
000001FFFC0000FFFFE0000FFFC00000
000001FFFC0001FFFFE0001FFF800000
000000FFFE0003FFFFF0001FFF800000
000000FFFE0003FFFFF0003FFF000000
0000007FFF0007FFFFF8007FFF000000
0000007FFF0007FFFFF8007FFE000000
0000003FFF800FFFFFFC00FFFC000000
0000001FFF800FFFFFFC00FFFC000000
0000001FFFC01FFFFFFE01FFF8000000
0000000FFFC01FFFFFFE01FFF8000000
0000000FFFE03FFF7FFF03FFF0000000
00000007FFF07FFE7FFF03FFF0000000
00000007FFF07FFE3FFF87FFE0000000
00000003FFF8FFFC1FFF87FFE0000000
00000003FFF8FFFC1FFFCFFFC0000000
00000001FFFDFFF80FFFCFFFC0000000
00000001FFFDFFF00FFFFFFF80000000
00000000FFFFFFF007FFFFFF80000000
00000000FFFFFFE007FFFFFF00000000
000000007FFFFFE003FFFFFE00000000
000000003FFFFFC003FFFFFE00000000
000000003FFFFFC001FFFFFC00000000
000000001FFFFF8001FFFFFC00000000
000000001FFFFF8000FFFFF800000000
000000000FFFFF0000FFFFF800000000
000000000FFFFF00007FFFF000000000
0000000007FFFE00007FFFF000000000
0000000007FFFE00003FFFE000000000
0000000003FFFC00001FFFE000000000
0000000003FFF800001FFFC000000000
0000000001FFF800000FFFC000000000
0000000000FFF000000FFF8000000000
0000000000FFF0000007FF0000000000
00000000007FE0000003FE0000000000
00000000001F80000000F80000000000
ENDCHAR
STARTCHAR x
ENCODING 120
SWIDTH 1000 0
DWIDTH 103 0
BBX 98 75 2 0
BITMAP
1FFFFC00000000000007FFFE00
07FFFE0000000000000FFFF800
03FFFF0000000000001FFFF000
01FFFF8000000000003FFFE000
00FFFFC000000000007FFFC000
007FFFE00000000000FFFF8000
003FFFF00000000001FFFF0000
001FFFF80000000003FFFE0000
000FFFFC0000000007FFFC0000
0007FFFE000000000FFFF80000
0003FFFF000000001FFFF00000
0001FFFF800000003FFFE00000
0000FFFFC00000007FFFC00000
00007FFFE0000000FFFF800000
00003FFFF0000001FFFF000000
00001FFFF8000003FFFE000000
00000FFFFC000007FFFC000000
000007FFFE00000FFFF8000000
000003FFFF00001FFFF0000000
000001FFFF80003FFFE0000000
000000FFFFC0007FFFC0000000
0000007FFFE000FFFF80000000
0000003FFFF001FFFF00000000
0000001FFFF803FFFC00000000
00000007FFFC07FFF800000000
00000003FFFE0FFFF000000000
00000001FFFF1FFFE000000000
00000000FFFFBFFFC000000000
000000007FFFFFFF8000000000
000000003FFFFFFF0000000000
000000001FFFFFFE0000000000
000000000FFFFFFC0000000000
0000000007FFFFF80000000000
0000000003FFFFF00000000000
0000000001FFFFE00000000000
0000000000FFFFC00000000000
0000000000FFFFC00000000000
0000000001FFFFE00000000000
0000000003FFFFF00000000000
0000000007FFFFF80000000000
000000000FFFFFFC0000000000
000000001FFFFFFE0000000000
000000003FFFFFFF0000000000
000000007FFFFFFF8000000000
00000000FFFFFFFFC000000000
00000001FFFE3FFFE000000000
00000003FFFC1FFFF000000000
00000007FFF80FFFFC00000000
0000000FFFF007FFFE00000000
0000001FFFE003FFFF00000000
0000007FFFC001FFFF80000000
000000FFFF8000FFFFC0000000
000001FFFF00007FFFE0000000
000003FFFE00003FFFF0000000
000007FFFC00001FFFF8000000
00000FFFF800000FFFFC000000
00001FFFF0000007FFFE000000
00003FFFE0000003FFFF000000
00007FFFC0000001FFFF800000
0000FFFF80000000FFFFC00000
0001FFFF000000007FFFE00000
0003FFFE000000003FFFF00000
0007FFFC000000001FFFF80000
000FFFF8000000000FFFFC0000
001FFFF00000000007FFFE0000
003FFFE00000000003FFFF0000
007FFFC00000000001FFFF8000
00FFFF800000000000FFFFC000
01FFFF0000000000007FFFE000
03FFFE0000000000003FFFF000
07FFFC0000000000001FFFF800
0FFFF80000000000000FFFFC00
1FFFF000000000000007FFFF00
3FFFE000000000000003FFFF80
FFFFC000000000000001FFFFC0
ENDCHAR
STARTCHAR y
ENCODING 121
SWIDTH 926 0
DWIDTH 95 0
BBX 93 75 1 0
BITMAP
FFFFC00000000000000FFFF8
3FFFE00000000000001FFFF0
3FFFF00000000000003FFFE0
1FFFF80000000000007FFFC0
0FFFFC0000000000007FFF80
07FFFE000000000000FFFF00
03FFFE000000000001FFFE00
01FFFF000000000003FFFE00
00FFFF800000000007FFFC00
00FFFFC0000000000FFFF800
007FFFE0000000001FFFF000
003FFFF0000000001FFFE000
001FFFF0000000003FFFC000
000FFFF8000000007FFF8000
0007FFFC00000000FFFF8000
0003FFFE00000001FFFF0000
0003FFFF00000003FFFE0000
0001FFFF80000003FFFC0000
0000FFFFC0000007FFF80000
00007FFFC000000FFFF00000
00003FFFE000001FFFE00000
00001FFFF000003FFFE00000
00000FFFF800007FFFC00000
00000FFFFC0000FFFF800000
000007FFFE0000FFFF000000
000003FFFE0001FFFE000000
000001FFFF0003FFFC000000
000000FFFF8007FFF8000000
0000007FFFC00FFFF8000000
0000003FFFE01FFFF0000000
0000003FFFF01FFFE0000000
0000001FFFF83FFFC0000000
0000000FFFF87FFF80000000
00000007FFFCFFFF00000000
00000003FFFFFFFF00000000
00000001FFFFFFFE00000000
00000000FFFFFFFC00000000
00000000FFFFFFF800000000
000000007FFFFFF000000000
000000003FFFFFE000000000
000000001FFFFFC000000000
000000000FFFFFC000000000
0000000007FFFF8000000000
0000000007FFFF0000000000
0000000003FFFE0000000000
0000000001FFFC0000000000
0000000000FFF80000000000
0000000000FFF80000000000
0000000000FFF80000000000
0000000000FFF80000000000
0000000000FFF80000000000
0000000000FFF80000000000
0000000000FFF80000000000
0000000000FFF80000000000
0000000000FFF80000000000
0000000000FFF80000000000
0000000000FFF80000000000
0000000000FFF80000000000
0000000000FFF80000000000
0000000000FFF80000000000
0000000000FFF80000000000
0000000000FFF80000000000
0000000000FFF80000000000
0000000000FFF80000000000
0000000000FFF80000000000
0000000000FFF80000000000
0000000000FFF80000000000
0000000000FFF80000000000
0000000000FFF80000000000
0000000000FFF80000000000
0000000000FFF80000000000
0000000000FFF80000000000
0000000000FFF80000000000
0000000000FFF80000000000
0000000000FFF80000000000
ENDCHAR
STARTCHAR z
ENCODING 122
SWIDTH 802 0
DWIDTH 83 0
BBX 74 75 4 0
BITMAP
7FFFFFFFFFFFFFFFFC00
7FFFFFFFFFFFFFFFFE00
7FFFFFFFFFFFFFFFFF80
7FFFFFFFFFFFFFFFFF80
7FFFFFFFFFFFFFFFFFC0
7FFFFFFFFFFFFFFFFFC0
7FFFFFFFFFFFFFFFFFC0
7FFFFFFFFFFFFFFFFFC0
7FFFFFFFFFFFFFFFFFC0
7FFFFFFFFFFFFFFFFF80
7FFFFFFFFFFFFFFFFF80
7FFFFFFFFFFFFFFFFF00
0000000000000FFFFE00
0000000000001FFFFC00
0000000000003FFFF800
0000000000007FFFF000
000000000000FFFFE000
000000000001FFFFC000
000000000003FFFF8000
000000000007FFFF0000
00000000000FFFFE0000
00000000001FFFFC0000
00000000003FFFF80000
00000000007FFFF00000
0000000000FFFFE00000
0000000001FFFFC00000
0000000003FFFF800000
0000000007FFFF000000
000000000FFFFE000000
000000001FFFFC000000
000000003FFFF8000000
000000007FFFF0000000
00000000FFFFE0000000
00000001FFFFC0000000
00000003FFFF80000000
00000007FFFF00000000
0000000FFFFE00000000
0000001FFFFC00000000
0000003FFFF800000000
0000003FFFF000000000
0000007FFFE000000000
000000FFFFC000000000
000001FFFF8000000000
000003FFFF0000000000
000007FFFE0000000000
00000FFFFC0000000000
00001FFFF80000000000
00003FFFF00000000000
00007FFFE00000000000
0000FFFFC00000000000
0001FFFF800000000000
0003FFFF000000000000
0007FFFE000000000000
000FFFFC000000000000
001FFFF8000000000000
003FFFF0000000000000
007FFFE0000000000000
00FFFFC0000000000000
01FFFF80000000000000
03FFFF00000000000000
07FFFE00000000000000
0FFFFC00000000000000
1FFFFFFFFFFFFFFFFFC0
3FFFFFFFFFFFFFFFFFC0
7FFFFFFFFFFFFFFFFFC0
7FFFFFFFFFFFFFFFFFC0
FFFFFFFFFFFFFFFFFFC0
FFFFFFFFFFFFFFFFFFC0
FFFFFFFFFFFFFFFFFFC0
FFFFFFFFFFFFFFFFFFC0
FFFFFFFFFFFFFFFFFFC0
7FFFFFFFFFFFFFFFFFC0
7FFFFFFFFFFFFFFFFFC0
1FFFFFFFFFFFFFFFFFC0
0FFFFFFFFFFFFFFFFFC0
ENDCHAR
STARTCHAR braceleft
ENCODING 123
SWIDTH 337 0
DWIDTH 35 0
BBX 22 94 6 -9
BITMAP
0003FC
001FFC
003FFC
007FFC
00FFFC
01FFFC
01FFFC
03FFC0
03FF00
03FF00
03FE00
03FE00
03FC00
03FC00
03FC00
03FC00
03FC00
03FC00
03FC00
03FC00
03FC00
03FC00
03FC00
03FC00
03FC00
03FC00
03FC00
03FC00
03FC00
03FC00
03FC00
03FC00
03FC00
03FC00
03FC00
03FC00
03FC00
03FC00
03FC00
03FC00
03FC00
03FC00
07FC00
0FFC00
FFF800
FFF800
FFF000
FFC000
FFF000
FFF800
FFF800
0FFC00
07FC00
03FC00
03FC00
03FC00
03FC00
03FC00
03FC00
03FC00
03FC00
03FC00
03FC00
03FC00
03FC00
03FC00
03FC00
03FC00
03FC00
03FC00
03FC00
03FC00
03FC00
03FC00
03FC00
03FC00
03FC00
03FC00
03FC00
03FC00
03FC00
03FC00
03FC00
03FE00
03FE00
03FF00
03FFC0
01FFFC
01FFFC
00FFFC
00FFFC
003FFC
001FFC
0007FC
ENDCHAR
STARTCHAR bar
ENCODING 124
SWIDTH 297 0
DWIDTH 31 0
BBX 8 94 11 -9
BITMAP
FF
FF
FF
FF
FF
FF
FF
FF
FF
FF
FF
FF
FF
FF
FF
FF
FF
FF
FF
FF
FF
FF
FF
FF
FF
FF
FF
FF
FF
FF
FF
FF
FF
FF
FF
FF
FF
FF
FF
FF
FF
FF
FF
FF
FF
FF
FF
FF
FF
FF
FF
FF
FF
FF
FF
FF
FF
FF
FF
FF
FF
FF
FF
FF
FF
FF
FF
FF
FF
FF
FF
FF
FF
FF
FF
FF
FF
FF
FF
FF
FF
FF
FF
FF
FF
FF
FF
FF
FF
FF
FF
FF
FF
FF
ENDCHAR
STARTCHAR braceright
ENCODING 125
SWIDTH 337 0
DWIDTH 35 0
BBX 22 94 6 -9
BITMAP
FF8000
FFE000
FFF800
FFFC00
FFFE00
FFFE00
FFFF00
0FFF00
03FF00
01FF80
00FF80
00FF80
00FF80
00FF80
00FF80
00FF80
00FF80
00FF80
00FF80
00FF80
00FF80
00FF80
00FF80
00FF80
00FF80
00FF80
00FF80
00FF80
00FF80
00FF80
00FF80
00FF80
00FF80
00FF80
00FF80
00FF80
00FF80
00FF80
00FF80
00FF80
00FF80
00FF80
007F80
007FC0
007FFC
003FFC
001FFC
000FFC
001FFC
003FFC
007FFC
007FC0
007F80
00FF80
00FF80
00FF80
00FF80
00FF80
00FF80
00FF80
00FF80
00FF80
00FF80
00FF80
00FF80
00FF80
00FF80
00FF80
00FF80
00FF80
00FF80
00FF80
00FF80
00FF80
00FF80
00FF80
00FF80
00FF80
00FF80
00FF80
00FF80
00FF80
00FF80
00FF80
01FF80
01FF80
0FFF00
FFFF00
FFFE00
FFFE00
FFFC00
FFF800
FFE000
FF8000
ENDCHAR
STARTCHAR asciitilde
ENCODING 126
SWIDTH 691 0
DWIDTH 71 0
BBX 58 16 7 30
BITMAP
007FE00000000000
03FFFE0000000040
0FFFFFC0000000C0
3FFFFFF8000003C0
7FFFFFFE000007C0
FFFFFFFFC0003FC0
FFFFFFFFFC01FFC0
FFFFFFFFFFFFFFC0
FFFFFFFFFFFFFFC0
FFC01FFFFFFFFFC0
FE0001FFFFFFFFC0
F800003FFFFFFF80
E0000007FFFFFE00
80000001FFFFFC00
800000003FFFF000
0000000003FF0000
ENDCHAR
STARTCHAR nonbreakingspace
ENCODING 160
SWIDTH 294 0
DWIDTH 30 0
BBX 1 1 0 0
BITMAP
00
ENDCHAR
STARTCHAR exclamdown
ENCODING 161
SWIDTH 298 0
DWIDTH 31 0
BBX 14 75 9 0
BITMAP
0F80
3FE0
7FF0
FFF8
FFF8
FFF8
FFFC
FFFC
FFF8
FFF8
FFF8
7FF0
3FE0
0F80
0000
0000
0000
0000
0000
0000
0000
0000
0000
0000
7FF8
7FF8
7FF8
7FF8
7FF8
7FF8
7FF8
7FF8
7FF8
7FF8
7FF8
7FF8
7FF8
7FF8
7FF8
7FF8
7FF8
7FF8
7FF8
7FF8
7FF8
7FF8
7FF8
7FF8
7FF8
7FF8
7FF8
7FF8
7FF8
7FF8
7FF8
7FF8
7FF8
7FF8
7FF8
7FF8
7FF8
7FF8
7FF8
7FF8
7FF8
7FF8
7FF8
7FF8
7FF8
7FF8
7FF8
7FF8
7FF8
7FF8
7FF8
ENDCHAR
STARTCHAR cent
ENCODING 162
SWIDTH 692 0
DWIDTH 71 0
BBX 62 75 4 0
BITMAP
0000000007E00000
0000000007E00000
0000000007E00000
0000000007E00000
0000000007E00000
0000000007E00000
0000000007E00000
000000FFFFFFFFFC
00000FFFFFFFFFFC
00007FFFFFFFFFFC
0001FFFFFFFFFFFC
0007FFFFFFFFFFFC
000FFFFFFFFFFFFC
003FFFFFFFFFFFFC
007FFFFFFFFFFFFC
00FFFFFFFFFFFFFC
01FFFFFFFFFFFFFC
03FFFFFFFFFFFFFC
03FFFF8007E00000
07FFFC0007E00000
0FFFF00007E00000
0FFFC00007E00000
1FFF800007E00000
1FFF000007E00000
1FFE000007E00000
3FFC000007E00000
3FFC000007E00000
3FF8000007E00000
7FF8000007E00000
7FF0000007E00000
7FF0000007E00000
7FF0000007E00000
7FE0000007E00000
FFE0000007E00000
FFE0000007E00000
FFE0000007E00000
FFE0000007E00000
FFE0000007E00000
FFE0000007E00000
FFE0000007E00000
FFE0000007E00000
7FE0000007E00000
7FE0000007E00000
7FF0000007E00000
7FF0000007E00000
7FF0000007E00000
3FF8000007E00000
3FF8000007E00000
3FFC000007E00000
1FFC000007E00000
1FFE000007E00000
1FFF000007E00000
0FFF800007E00000
0FFFC00007E00000
07FFF00007E00000
03FFFC0007E00000
03FFFF8007E00000
01FFFFFFFFFFFFFC
00FFFFFFFFFFFFFC
007FFFFFFFFFFFFC
003FFFFFFFFFFFFC
001FFFFFFFFFFFFC
000FFFFFFFFFFFFC
0003FFFFFFFFFFFC
0001FFFFFFFFFFFC
00007FFFFFFFFFFC
00000FFFFFFFFFFC
000000FFFFFFFFFC
0000000007E00000
0000000007E00000
0000000007E00000
0000000007E00000
0000000007E00000
0000000007E00000
0000000007E00000
ENDCHAR
STARTCHAR sterling
ENCODING 163
SWIDTH 709 0
DWIDTH 73 0
BBX 66 75 3 0
BITMAP
0000003FFFFFFE0000
000003FFFFFFFE0000
00000FFFFFFFFE0000
00003FFFFFFFFE0000
00007FFFFFFFFE0000
0000FFFFFFFFFE0000
0003FFFFFFFFFE0000
0003FFFFFFFFFE0000
0007FFFFFFFFFE0000
000FFFFFFFFFFE0000
000FFFFFFFFFFE0000
001FFFFFFFFFFE0000
001FFFFFFFFFFE0000
003FFFFC0000000000
003FFFE00000000000
003FFF800000000000
003FFF000000000000
007FFE000000000000
007FFC000000000000
007FFC000000000000
007FFC000000000000
007FFC000000000000
007FFC000000000000
007FFC000000000000
007FFC000000000000
007FFC000000000000
007FFC000000000000
007FFC000000000000
007FFC000000000000
007FFC000000000000
007FFC000000000000
0FFFFFFFFFC0000000
0FFFFFFFFFC0000000
0FFFFFFFFFC0000000
0FFFFFFFFFC0000000
0FFFFFFFFFC0000000
0FFFFFFFFFC0000000
0FFFFFFFFFC0000000
0FFFFFFFFFC0000000
0FFFFFFFFFC0000000
0FFFFFFFFFC0000000
007FFC000000000000
007FFC000000000000
007FFC000000000000
007FFC000000000000
007FFC000000000000
007FFC000000000000
007FFC000000000000
007FFC000000000000
007FFC000000000000
007FFC000000000000
007FFC000000000000
007FFC000000000000
007FFC000000000000
007FFC000000000000
007FFC000000000000
007FFC000000000000
007FFC000000000000
007FFC000000000000
007FFC000000000000
007FFC000000000000
007FFC000000000000
FFFFFFFFFFFFFFFFC0
FFFFFFFFFFFFFFFFC0
FFFFFFFFFFFFFFFFC0
FFFFFFFFFFFFFFFFC0
FFFFFFFFFFFFFFFFC0
FFFFFFFFFFFFFFFFC0
FFFFFFFFFFFFFFFFC0
FFFFFFFFFFFFFFFFC0
FFFFFFFFFFFFFFFFC0
FFFFFFFFFFFFFFFFC0
FFFFFFFFFFFFFFFFC0
FFFFFFFFFFFFFFFFC0
FFFFFFFFFFFFFFFFC0
ENDCHAR
STARTCHAR yen
ENCODING 165
SWIDTH 787 0
DWIDTH 81 0
BBX 76 75 2 0
BITMAP
FFFF000000000007FFF0
7FFF80000000000FFFE0
3FFF80000000001FFFE0
3FFFC0000000001FFFC0
1FFFE0000000003FFF80
0FFFE0000000003FFF80
0FFFF0000000007FFF00
07FFF000000000FFFE00
03FFF800000000FFFE00
03FFFC00000001FFFC00
01FFFC00000003FFF800
00FFFE00000003FFF800
00FFFF00000007FFF000
007FFF00000007FFE000
003FFF8000000FFFE000
003FFFC000001FFFC000
001FFFC000001FFF8000
000FFFE000003FFF8000
000FFFF000007FFF0000
0007FFF000007FFE0000
0003FFF80000FFFE0000
0001FFFC0001FFFC0000
0001FFFC0001FFF80000
0000FFFE0003FFF80000
00007FFF0003FFF00000
00007FFF0007FFE00000
00003FFF800FFFE00000
00001FFF800FFFC00000
00001FFFC01FFF800000
00000FFFE03FFF800000
000007FFE03FFF000000
000007FFF07FFE000000
000003FFF87FFE000000
000001FFF8FFFC000000
000001FFFDFFF8000000
000000FFFFFFF8000000
0000007FFFFFF0000000
0000007FFFFFE0000000
0000003FFFFFE0000000
0000001FFFFFC0000000
001FFFFFFFFFFFFFE000
001FFFFFFFFFFFFFE000
001FFFFFFFFFFFFFE000
001FFFFFFFFFFFFFE000
001FFFFFFFFFFFFFE000
001FFFFFFFFFFFFFE000
001FFFFFFFFFFFFFE000
001FFFFFFFFFFFFFE000
001FFFFFFFFFFFFFE000
00000000FFF800000000
00000000FFF800000000
00000000FFF800000000
00000000FFF800000000
00000000FFF800000000
00000000FFF800000000
00000000FFF800000000
00000000FFF800000000
00000000FFF800000000
001FFFFFFFFFFFFFE000
001FFFFFFFFFFFFFE000
001FFFFFFFFFFFFFE000
001FFFFFFFFFFFFFE000
001FFFFFFFFFFFFFE000
001FFFFFFFFFFFFFE000
001FFFFFFFFFFFFFE000
001FFFFFFFFFFFFFE000
001FFFFFFFFFFFFFE000
00000000FFF800000000
00000000FFF800000000
00000000FFF800000000
00000000FFF800000000
00000000FFF800000000
00000000FFF800000000
00000000FFF800000000
00000000FFF800000000
ENDCHAR
STARTCHAR brokenbar
ENCODING 166
SWIDTH 297 0
DWIDTH 31 0
BBX 8 94 11 -9
BITMAP
FF
FF
FF
FF
FF
FF
FF
FF
FF
FF
FF
FF
FF
FF
FF
FF
FF
FF
FF
FF
FF
FF
FF
FF
FF
FF
FF
FF
FF
FF
FF
FF
FF
FF
FF
FF
FF
FF
FF
FF
FF
FF
00
00
00
00
00
00
00
00
00
00
00
FF
FF
FF
FF
FF
FF
FF
FF
FF
FF
FF
FF
FF
FF
FF
FF
FF
FF
FF
FF
FF
FF
FF
FF
FF
FF
FF
FF
FF
FF
FF
FF
FF
FF
FF
FF
FF
FF
FF
FF
FF
ENDCHAR
STARTCHAR section
ENCODING 167
SWIDTH 773 0
DWIDTH 80 0
BBX 69 96 5 -21
BITMAP
0000FFFFFFFFFFF000
000FFFFFFFFFFFF000
003FFFFFFFFFFFF000
00FFFFFFFFFFFFF000
01FFFFFFFFFFFFF000
03FFFFFFFFFFFFF000
07FFFFFFFFFFFFF000
0FFFFFFFFFFFFFF000
1FFFFFFFFFFFFFF000
1FFFFFFFFFFFFFF000
3FFFFFFFFFFFFFF000
3FFFFFFFFFFFFFF000
7FFFF0000000000000
7FFF80000000000000
7FFE00000000000000
FFFC00000000000000
FFFC00000000000000
FFF800000000000000
FFF800000000000000
FFF000000000000000
FFF000000000000000
FFF000000000000000
FFF000000000000000
FFF800000000000000
FFF800000000000000
7FF800000000000000
7FFC00000000000000
7FFE00000000000000
3FFF00000000000000
3FFFC0000000000000
1FFFFFFFFFFFF00000
0FFFFFFFFFFFFF0000
0FFFFFFFFFFFFFC000
07FFFFFFFFFFFFF000
03FFFFFFFFFFFFF800
00FFFFFFFFFFFFFC00
007FFFFFFFFFFFFC00
007FFFFFFFFFFFFE00
01FFFFFFFFFFFFFE00
01FFFFFFFFFFFFFF00
03FFF0000000FFFF00
07FFC00000003FFF00
07FF800000000FFF80
0FFF000000000FFF80
0FFE0000000007FF80
0FFE0000000007FF80
0FFE0000000007FF80
0FFE0000000007FF80
0FFE0000000007FF80
0FFE0000000007FF80
0FFF0000000007FF00
0FFF000000000FFF00
0FFF800000000FFF00
0FFFC00000001FFE00
0FFFF00000007FFE00
07FFFFFFFFFFFFFC00
07FFFFFFFFFFFFF800
03FFFFFFFFFFFFF000
03FFFFFFFFFFFFE000
01FFFFFFFFFFFFF800
00FFFFFFFFFFFFFC00
007FFFFFFFFFFFFE00
003FFFFFFFFFFFFF00
0007FFFFFFFFFFFF80
0000FFFFFFFFFFFFC0
0000000000003FFFC0
00000000000007FFE0
00000000000003FFE0
00000000000001FFF0
00000000000001FFF0
00000000000000FFF0
00000000000000FFF0
00000000000000FFF0
00000000000000FFF8
00000000000000FFF8
00000000000000FFF8
00000000000000FFF8
00000000000001FFF8
00000000000001FFF0
00000000000003FFF0
00000000000007FFF0
0000000000000FFFF0
0000000000007FFFF0
00FFFFFFFFFFFFFFE0
00FFFFFFFFFFFFFFE0
00FFFFFFFFFFFFFFC0
00FFFFFFFFFFFFFFC0
00FFFFFFFFFFFFFF80
00FFFFFFFFFFFFFF80
00FFFFFFFFFFFFFF00
00FFFFFFFFFFFFFE00
00FFFFFFFFFFFFFC00
00FFFFFFFFFFFFF000
00FFFFFFFFFFFFE000
00FFFFFFFFFFFF0000
00FFFFFFFFFFF80000
ENDCHAR
STARTCHAR dieresis
ENCODING 168
SWIDTH 393 0
DWIDTH 40 0
BBX 30 9 5 83
BITMAP
1F0003E0
3FC007F8
7FE00FFC
7FE00FFC
FFE00FFC
7FE00FFC
7FE00FFC
3FC007F8
1F0003E0
ENDCHAR
STARTCHAR copyright
ENCODING 169
SWIDTH 829 0
DWIDTH 85 0
BBX 77 77 4 -2
BITMAP
00000000FFF800000000
0000000FFFFF80000000
0000007FFFFFF0000000
000001FF8007FE000000
000007F800007F800000
00001FC000000FE00000
00007F00000003F00000
0000FC00000000FC0000
0001F0000000003E0000
0007E0000000001F0000
000F80000000000F8000
001F000000000003C000
003E000000000001E000
007C000000000000F000
00780000000000007800
00F00000000000007C00
01E00000000000003C00
01E00000000000001E00
03C00000000000000F00
07800000000000000F00
078000007FFFE0000780
0F000003FFFFE0000780
0F00000FFFFFE00003C0
1E00003FFFFFE00003C0
1E00007FFFFFE00001C0
1C0000FFC000000001E0
3C0001FF0000000000E0
3C0003FC0000000000F0
380003F80000000000F0
780007F0000000000070
780007E0000000000070
78000FC0000000000070
70000FC0000000000078
70000F80000000000078
F0000F80000000000078
F0001F80000000000038
F0001F80000000000038
F0001F80000000000038
F0001F80000000000038
F0001F80000000000038
F0001F80000000000038
F0000F80000000000078
70000F80000000000078
70000FC0000000000078
780007C0000000000078
780007E0000000000070
780007F0000000000070
780003F80000000000F0
3C0001FC0000000000F0
3C0001FF0000000000E0
3C0000FFC000000001E0
1E00007FFFFFE00001E0
1E00001FFFFFE00001C0
1F00000FFFFFE00003C0
0F000003FFFFE00003C0
0F8000003FFFE0000780
07800000000000000F80
07C00000000000000F00
03C00000000000001E00
01E00000000000003E00
01F00000000000003C00
00F80000000000007800
007C000000000000F800
003E000000000001F000
003F000000000003E000
001F80000000000FC000
000FC0000000001F8000
0003F0000000003F0000
0001FC00000000FE0000
0000FF00000003F80000
00007FC000000FF00000
00001FF800007FC00000
000007FF8007FF800000
000001FFFFFFFE000000
0000007FFFFFF0000000
0000000FFFFFC0000000
00000000FFF800000000
ENDCHAR
STARTCHAR ordfeminine
ENCODING 170
SWIDTH 604 0
DWIDTH 62 0
BBX 54 43 4 30
BITMAP
00000010000000
0000007C000000
000000FC000000
000001FE000000
000001FF000000
000003FF000000
000007FF800000
000007FF800000
00000FFFC00000
00000FFFE00000
00001FFFE00000
00003FDFF00000
00003FCFF00000
00007F8FF80000
00007F87FC0000
0000FF03FC0000
0001FE03FE0000
0001FE01FE0000
0003FC01FF0000
0003FC00FF8000
0007F8007F8000
000FF0007FC000
000FF0003FC000
001FE0003FE000
001FE0001FF000
003FC0000FF000
007FC1FFFFF800
007F83FFFFF800
00FF03FFFFFC00
00FF07FFFFFE00
01FE07FFFFFE00
03FE0FFFFFFF00
03FC000000FF00
07F8000000FF80
07F80000007FC0
0FF00000003FC0
1FF00000003FE0
1FE00000001FE0
3FC00000001FF0
3FC00000000FF8
7F800000000FF8
FF8000000007FC
FF0000000003FC
ENDCHAR
STARTCHAR guillemotleft
ENCODING 171
SWIDTH 629 0
DWIDTH 65 0
BBX 57 39 4 19
BITMAP
0000000400000080
0000000C00000180
0000003C00000780
000000FC00001F80
000001FC00003F80
000007FC0000FF80
00001FFC0003FF80
00003FF80007FF00
0000FFE0001FFC00
0003FF80007FF000
0007FE0000FFC000
001FFC0003FF8000
007FF0000FFE0000
00FFC0001FF80000
03FF00007FE00000
0FFE0001FFC00000
1FF80003FF000000
7FE0000FFC000000
7F80001FF0000000
FF00001FE0000000
FF00001FE0000000
7FC0000FF8000000
3FF00007FE000000
0FF80001FF000000
03FE00007FC00000
01FF80003FF00000
007FE0000FFC0000
001FF00003FE0000
000FFC0001FF8000
0003FF00007FE000
0000FFC0001FF800
00007FE0000FFC00
00001FF80003FF00
000007FC0000FF80
000003FC00007F80
000000FC00001F80
0000003C00000780
0000001C00000380
0000000400000080
ENDCHAR
STARTCHAR registered
ENCODING 174
SWIDTH 585 0
DWIDTH 60 0
BBX 48 48 6 27
BITMAP
00001FF80000
0000FFFF0000
0003FFFFE000
000FFFFFF000
003FF00FFC00
007F8001FE00
00FE00003F00
01F800001F80
03F0000007C0
07C0000003E0
0780000001F0
0F80000001F0
1F00000000F8
1E07FFFE0078
3E07FFFF807C
3C07FFFFC03C
3C07FFFFE03E
78078003E01E
78078001E01E
78078000E01E
70078000E00F
70078000E00F
70078001E00F
F0078003E00F
F00787FFC00F
700787FF800F
700787FE000F
7007801F000F
7807800F801E
78078007C01E
78078003E01E
3C078001F01E
3C000000083C
3C000000003C
1E0000000078
1F00000000F8
0F00000000F0
0780000001F0
07C0000003E0
03E0000007C0
01F800001F80
00FC00003F00
007F0000FE00
003FF007FC00
000FFFFFF000
0007FFFFE000
0000FFFF0000
00001FF80000
ENDCHAR
STARTCHAR macron
ENCODING 175
SWIDTH 362 0
DWIDTH 37 0
BBX 27 6 5 84
BITMAP
FFFFFFE0
FFFFFFE0
FFFFFFE0
FFFFFFE0
FFFFFFE0
FFFFFFE0
ENDCHAR
STARTCHAR degree
ENCODING 176
SWIDTH 361 0
DWIDTH 37 0
BBX 29 29 4 46
BITMAP
003FE000
01FFFC00
07FFFF00
0FFFFF80
1FFFFFC0
3FFFFFE0
3FE03FE0
7F800FF0
7F0007F0
7E0003F0
7E0003F8
FC0001F8
FC0001F8
FC0001F8
FC0001F8
FC0001F8
FC0001F8
FC0001F8
7E0003F8
7E0003F0
7F0007F0
7F800FF0
3FE03FE0
3FFFFFE0
1FFFFFC0
0FFFFF80
07FFFF00
01FFFC00
003FE000
ENDCHAR
STARTCHAR plusminus
ENCODING 177
SWIDTH 690 0
DWIDTH 71 0
BBX 59 72 6 -5
BITMAP
0000007FC0000000
0000007FC0000000
0000007FC0000000
0000007FC0000000
0000007FC0000000
0000007FC0000000
0000007FC0000000
0000007FC0000000
0000007FC0000000
0000007FC0000000
0000007FC0000000
0000007FC0000000
0000007FC0000000
0000007FC0000000
0000007FC0000000
0000007FC0000000
0000007FC0000000
0000007FC0000000
0000007FC0000000
0000007FC0000000
0000007FC0000000
0000007FC0000000
0000007FC0000000
0000007FC0000000
FFFFFFFFFFFFFFE0
FFFFFFFFFFFFFFE0
FFFFFFFFFFFFFFE0
FFFFFFFFFFFFFFE0
FFFFFFFFFFFFFFE0
FFFFFFFFFFFFFFE0
FFFFFFFFFFFFFFE0
FFFFFFFFFFFFFFE0
FFFFFFFFFFFFFFE0
0000007FC0000000
0000007FC0000000
0000007FC0000000
0000007FC0000000
0000007FC0000000
0000007FC0000000
0000007FC0000000
0000007FC0000000
0000007FC0000000
0000007FC0000000
0000007FC0000000
0000007FC0000000
0000007FC0000000
0000007FC0000000
0000007FC0000000
0000007FC0000000
0000007FC0000000
0000007FC0000000
0000007FC0000000
0000007FC0000000
0000007FC0000000
0000007FC0000000
0000007FC0000000
0000007FC0000000
0000007FC0000000
0000000000000000
0000000000000000
0000000000000000
0000000000000000
0000000000000000
FFFFFFFFFFFFFFE0
FFFFFFFFFFFFFFE0
FFFFFFFFFFFFFFE0
FFFFFFFFFFFFFFE0
FFFFFFFFFFFFFFE0
FFFFFFFFFFFFFFE0
FFFFFFFFFFFFFFE0
FFFFFFFFFFFFFFE0
FFFFFFFFFFFFFFE0
ENDCHAR
STARTCHAR twosuperior
ENCODING 178
SWIDTH 442 0
DWIDTH 46 0
BBX 36 37 5 39
BITMAP
FFFFFFF800
FFFFFFFF00
FFFFFFFF80
FFFFFFFFC0
FFFFFFFFE0
FFFFFFFFE0
0000001FF0
00000007F0
00000007F0
00000003F0
00000003F0
00000003F0
00000007F0
00000007F0
0000001FE0
01FFFFFFE0
0FFFFFFFC0
1FFFFFFF80
3FFFFFFE00
7FFFFFF800
7F80000000
FE00000000
FC00000000
FC00000000
FC00000000
FC00000000
FC00000000
FC00000000
FC00000000
FC00000000
FC00000000
FFFFFFFFF0
FFFFFFFFF0
FFFFFFFFF0
FFFFFFFFF0
FFFFFFFFF0
FFFFFFFFF0
ENDCHAR
STARTCHAR threesuperior
ENCODING 179
SWIDTH 443 0
DWIDTH 46 0
BBX 38 37 4 39
BITMAP
FFFFFFF800
FFFFFFFF00
FFFFFFFFC0
FFFFFFFFE0
FFFFFFFFF0
FFFFFFFFF0
0000001FF8
00000007F8
00000003F8
00000003F8
00000003F8
00000003F8
00000003F0
00000007F0
0000000FE0
007FFFFFC0
007FFFFF80
007FFFFF80
007FFFFFE0
007FFFFFF0
0000000FF0
00000003F8
00000003F8
00000001F8
00000001FC
00000001FC
00000001FC
00000001F8
00000003F8
00000007F8
0000001FF8
FFFFFFFFF0
FFFFFFFFF0
FFFFFFFFE0
FFFFFFFFC0
FFFFFFFF00
FFFFFFFC00
ENDCHAR
STARTCHAR acute
ENCODING 180
SWIDTH 362 0
DWIDTH 37 0
BBX 27 13 5 80
BITMAP
000000E0
00000FE0
00007FE0
0003FFE0
003FFFE0
01FFFFE0
0FFFFFE0
FFFFFFE0
FFFFFE00
FFFFC000
FFFC0000
FF800000
F0000000
ENDCHAR
STARTCHAR paragraph
ENCODING 182
SWIDTH 629 0
DWIDTH 65 0
BBX 53 85 5 -10
BITMAP
000FFFFFFFFFF8
007FFFFFFFFFF8
01FFFFFFFFFFF8
07FFFFFFFFFFF8
0FFFFFFFFFFFF8
1FFFFFFFFFFFF8
1FFFFFFFFFFFF8
3FFFFFFFFFFFF8
7FFFFFFF0007F8
7FFFFFFF0007F8
7FFFFFFF0007F8
FFFFFFFF0007F8
FFFFFFFF0007F8
FFFFFFFF0007F8
FFFFFFFF0007F8
FFFFFFFF0007F8
FFFFFFFF0007F8
FFFFFFFF0007F8
FFFFFFFF0007F8
FFFFFFFF0007F8
FFFFFFFF0007F8
FFFFFFFF0007F8
FFFFFFFF0007F8
7FFFFFFF0007F8
7FFFFFFF0007F8
3FFFFFFF0007F8
3FFFFFFF0007F8
1FFFFFFF0007F8
0FFFFFFF0007F8
07FFFFFF0007F8
03FFFFFF0007F8
01FFFFFF0007F8
007FFFFF0007F8
0007FFFF0007F8
000000FF0007F8
000000FF0007F8
000000FF0007F8
000000FF0007F8
000000FF0007F8
000000FF0007F8
000000FF0007F8
000000FF0007F8
000000FF0007F8
000000FF0007F8
000000FF0007F8
000000FF0007F8
000000FF0007F8
000000FF0007F8
000000FF0007F8
000000FF0007F8
000000FF0007F8
000000FF0007F8
000000FF0007F8
000000FF0007F8
000000FF0007F8
000000FF0007F8
000000FF0007F8
000000FF0007F8
000000FF0007F8
000000FF0007F8
000000FF0007F8
000000FF0007F8
000000FF0007F8
000000FF0007F8
000000FF0007F8
000000FF0007F8
000000FF0007F8
000000FF0007F8
000000FF0007F8
000000FF0007F8
000000FF0007F8
000000FF0007F8
000000FF0007F8
000000FF0007F8
000000FF0007F8
000000FF0007F8
000000FF0007F8
000000FF0007F8
000000FF0007F8
000000FF0007F8
000000FF0007F8
000000FF0007F8
000000FF0007F8
000000FF0007F8
000000FF0007F8
ENDCHAR
STARTCHAR periodcentered
ENCODING 183
SWIDTH 262 0
DWIDTH 27 0
BBX 15 14 6 30
BITMAP
07C0
1FF0
3FF8
7FFC
7FFC
7FFC
FFFC
FFFE
7FFC
7FFC
7FFC
3FF8
1FF0
07C0
ENDCHAR
STARTCHAR cedilla
ENCODING 184
SWIDTH 219 0
DWIDTH 23 0
BBX 14 16 4 -21
BITMAP
FFFC
7FF8
7FF8
3FF8
3FF0
1FF0
1FE0
0FE0
0FC0
0FC0
07C0
0780
0380
0300
0100
0100
ENDCHAR
STARTCHAR onesuperior
ENCODING 185
SWIDTH 222 0
DWIDTH 23 0
BBX 15 37 3 39
BITMAP
FE00
FFC0
FFE0
FFF0
FFF8
FFFC
03FC
01FE
00FE
00FE
007E
007E
007E
007E
007E
007E
007E
007E
007E
007E
007E
007E
007E
007E
007E
007E
007E
007E
007E
007E
007E
007E
007E
007E
007E
007E
007E
ENDCHAR
STARTCHAR ordmasculine
ENCODING 186
SWIDTH 592 0
DWIDTH 61 0
BBX 51 41 5 31
BITMAP
0000FFFFE00000
000FFFFFFE0000
003FFFFFFF8000
007FFFFFFFC000
01FFFFFFFFF000
03FFFFFFFFF800
07FFFFFFFFFC00
0FFF80003FFE00
0FFC000007FE00
1FF8000003FF00
1FF0000000FF00
3FE0000000FF80
3FC00000007F80
7F800000003FC0
7F800000003FC0
7F000000001FC0
7F000000001FC0
7F000000001FC0
FF000000001FE0
FF000000001FE0
FF000000001FE0
FF000000001FE0
7F000000001FE0
7F000000001FC0
7F000000001FC0
7F000000001FC0
7F800000003FC0
3F800000003F80
3FC00000007F80
3FE0000000FF80
1FF0000001FF00
1FF8000003FF00
0FFC000007FE00
07FF80003FFC00
03FFFFFFFFF800
01FFFFFFFFF000
00FFFFFFFFE000
007FFFFFFFC000
001FFFFFFF0000
0007FFFFFC0000
0000FFFFE00000
ENDCHAR
STARTCHAR guillemotright
ENCODING 187
SWIDTH 629 0
DWIDTH 65 0
BBX 57 39 4 19
BITMAP
8000001000000000
C000001800000000
F000001E00000000
F800001F00000000
FE00001FC0000000
FF80001FF0000000
FFC0001FF8000000
7FF0000FFE000000
1FFC0003FF800000
07FF0000FFC00000
03FF80007FF00000
00FFE0001FFC0000
003FF80007FE0000
000FFC0001FF8000
0007FF0000FFE000
0001FFC0003FF000
00007FE0000FFC00
00001FF80003FE00
00000FF80001FF00
000003FC00007F80
000003FC0000FF00
00000FF80001FF00
00003FF00007FC00
0000FFC0001FF800
0001FF00003FE000
0007FE0000FF8000
001FF80003FF0000
003FE0000FFC0000
00FFC0001FF00000
03FF00007FE00000
0FFC0001FF800000
1FF80007FE000000
7FE0000FFC000000
FF80001FF0000000
FF00001FE0000000
FC00001F80000000
F000001E00000000
E000001C00000000
8000001000000000
ENDCHAR
STARTCHAR onequarter
ENCODING 188
SWIDTH 972 0
DWIDTH 100 0
BBX 92 87 4 -7
BITMAP
00000000000000000FF80000
00000000000000001FF00000
00000000000000003FE00000
00000000000000003FC00000
007F8000000000007FC00000
007FE00000000000FF800000
007FF00000000001FF000000
007FF80000000003FE000000
007FFC0000000003FE000000
007FFE0000000007FC000000
0001FE000000000FF8000000
0000FF000000001FF0000000
00007F000000001FE0000000
00007F000000003FE0000000
00003F000000007FC0000000
00003F00000000FF80000000
00003F00000001FF00000000
00003F00000001FF00000000
00003F00000003FE00000000
00003F00000007FC00000000
00003F0000000FF800000000
00003F0000000FF000000000
00003F0000001FF000000000
00003F0000003FE000000000
00003F0000007FC000000000
00003F000000FF8000000000
00003F000000FF0000000000
00003F000001FF0000000000
00003F000003FE0000000000
00003F000007FC0000000000
00003F00000FF80000000000
00003F00000FF80000000000
00003F00001FF00000000000
00003F00003FE00000000000
00003F00007FC00000000000
00003F00007F800000000000
00003F0000FF800000000000
00003F0001FF000000000000
00003F0003FE000000000000
00003F0007FC000000000000
00003F0007FC000000000000
000000000FF8000000000000
000000001FF0000000000000
000000003FE0000000000000
000000003FC00FE00000FC00
000000007FC00FE00000FC00
00000000FF800FE00000FC00
00000001FF000FE00000FC00
00000003FE000FE00000FC00
00000003FE000FE00000FC00
00000007FC000FE00000FC00
0000000FF8000FE00000FC00
0000001FF0000FE00000FC00
0000001FE0000FE00000FC00
0000003FE0000FE00000FC00
0000007FC0000FE00000FC00
000000FF80000FE00000FC00
000001FF00000FE00000FC00
000001FF00000FE00000FC00
000003FE00000FE00000FC00
000007FC00000FE00000FC00
00000FF800000FE00000FC00
00001FF000000FE00000FC00
00001FF0000007F00000FC00
00003FE0000007F80000FC00
00007FC0000007FFFFFFFFF0
0000FF80000003FFFFFFFFF0
0000FF80000001FFFFFFFFF0
0001FF00000000FFFFFFFFF0
0003FE000000007FFFFFFFF0
0007FC000000000FFFFFFFF0
000FF800000000000000FC00
000FF800000000000000FC00
001FF000000000000000FC00
003FE000000000000000FC00
007FC000000000000000FC00
007F8000000000000000FC00
00FF8000000000000000FC00
01FF0000000000000000FC00
03FE0000000000000000FC00
07FC0000000000000000FC00
07FC00000000000000000000
0FF800000000000000000000
1FF000000000000000000000
3FE000000000000000000000
7FC000000000000000000000
FFC000000000000000000000
ENDCHAR
STARTCHAR onehalf
ENCODING 189
SWIDTH 948 0
DWIDTH 98 0
BBX 89 87 4 -7
BITMAP
00000000000000000FF80000
00000000000000001FF00000
00000000000000003FE00000
00000000000000003FC00000
007F8000000000007FC00000
007FE00000000000FF800000
007FF00000000001FF000000
007FF80000000003FE000000
007FFC0000000003FE000000
007FFE0000000007FC000000
0001FE000000000FF8000000
0000FF000000001FF0000000
00007F000000001FE0000000
00007F000000003FE0000000
00003F000000007FC0000000
00003F00000000FF80000000
00003F00000001FF00000000
00003F00000001FF00000000
00003F00000003FE00000000
00003F00000007FC00000000
00003F0000000FF800000000
00003F0000000FF000000000
00003F0000001FF000000000
00003F0000003FE000000000
00003F0000007FC000000000
00003F000000FF8000000000
00003F000000FF0000000000
00003F000001FF0000000000
00003F000003FE0000000000
00003F000007FC0000000000
00003F00000FF80000000000
00003F00000FF80000000000
00003F00001FF00000000000
00003F00003FE00000000000
00003F00007FC00000000000
00003F00007F800000000000
00003F0000FF800000000000
00003F0001FF000000000000
00003F0003FE000000000000
00003F0007FC000000000000
00003F0007FC000000000000
000000000FF8000000000000
000000001FF0000000000000
000000003FE0000000000000
000000003FC007FFFFFFC000
000000007FC007FFFFFFF800
00000000FF8007FFFFFFFC00
00000001FF0007FFFFFFFE00
00000003FE0007FFFFFFFF00
00000003FE0007FFFFFFFF00
00000007FC0000000000FF80
0000000FF800000000003F80
0000001FF000000000003F80
0000001FE000000000001F80
0000003FE000000000001F80
0000007FC000000000001F80
000000FF8000000000003F80
000001FF0000000000003F80
000001FF000000000000FF00
000003FE0000000FFFFFFF00
000007FC0000007FFFFFFE00
00000FF8000000FFFFFFFC00
00001FF0000001FFFFFFF000
00001FF0000003FFFFFFC000
00003FE0000003FC00000000
00007FC0000007F000000000
0000FF80000007E000000000
0000FF80000007E000000000
0001FF00000007E000000000
0003FE00000007E000000000
0007FC00000007E000000000
000FF800000007E000000000
000FF800000007E000000000
001FF000000007E000000000
003FE000000007E000000000
007FC000000007FFFFFFFF80
007F8000000007FFFFFFFF80
00FF8000000007FFFFFFFF80
01FF0000000007FFFFFFFF80
03FE0000000007FFFFFFFF80
07FC0000000007FFFFFFFF80
07FC00000000000000000000
0FF800000000000000000000
1FF000000000000000000000
3FE000000000000000000000
7FC000000000000000000000
FFC000000000000000000000
ENDCHAR
STARTCHAR threequarters
ENCODING 190
SWIDTH 1029 0
DWIDTH 106 0
BBX 98 87 4 -7
BITMAP
0000000000000000003FE00000
0000000000000000007FC00000
000000000000000000FF800000
000000000000000001FF000000
FFFFFFFC0000000001FF000000
FFFFFFFF8000000003FE000000
FFFFFFFFC000000007FC000000
FFFFFFFFE00000000FF8000000
FFFFFFFFF00000000FF0000000
FFFFFFFFF80000001FF0000000
0000000FF80000003FE0000000
00000003F80000007FC0000000
00000003F8000000FF80000000
00000001F8000000FF80000000
00000001F8000001FF00000000
00000001F8000003FE00000000
00000003F8000007FC00000000
00000003F0000007F800000000
0000000FF000000FF800000000
007FFFFFE000001FF000000000
007FFFFF8000003FE000000000
007FFFFFC000007FC000000000
007FFFFFE000007F8000000000
007FFFFFF00000FF8000000000
0000000FF80001FF0000000000
00000003F80003FE0000000000
00000001FC0003FC0000000000
00000001FC0007FC0000000000
00000001FC000FF80000000000
00000001FC001FF00000000000
00000001FC003FE00000000000
00000001FC003FC00000000000
00000003FC007FC00000000000
00000007F800FF800000000000
0000001FF801FF000000000000
FFFFFFFFF803FE000000000000
FFFFFFFFF003FE000000000000
FFFFFFFFE007FC000000000000
FFFFFFFFC00FF8000000000000
FFFFFFFF001FF0000000000000
FFFFFFFC001FE0000000000000
00000000003FE0000000000000
00000000007FC0000000000000
0000000000FF80000000000000
0000000001FF003F000003F000
0000000001FF003F000003F000
0000000003FE003F000003F000
0000000007FC003F000003F000
000000000FF8003F000003F000
000000000FF0003F000003F000
000000001FF0003F000003F000
000000003FE0003F000003F000
000000007FC0003F000003F000
00000000FF80003F000003F000
00000000FF80003F000003F000
00000001FF00003F000003F000
00000003FE00003F000003F000
00000007FC00003F000003F000
0000000FF800003F000003F000
0000000FF800003F000003F000
0000001FF000003F000003F000
0000003FE000003F800003F000
0000007FC000003F800003F000
0000007FC000003FC00003F000
000000FF8000001FE00003F000
000001FF0000001FFFFFFFFFC0
000003FE0000000FFFFFFFFFC0
000007FC0000000FFFFFFFFFC0
000007FC00000007FFFFFFFFC0
00000FF800000001FFFFFFFFC0
00001FF0000000003FFFFFFFC0
00003FE000000000000003F000
00003FC000000000000003F000
00007FC000000000000003F000
0000FF8000000000000003F000
0001FF0000000000000003F000
0003FE0000000000000003F000
0003FE0000000000000003F000
0007FC0000000000000003F000
000FF80000000000000003F000
001FF00000000000000003F000
003FE000000000000000000000
003FE000000000000000000000
007FC000000000000000000000
00FF8000000000000000000000
01FF0000000000000000000000
03FF0000000000000000000000
ENDCHAR
STARTCHAR questiondown
ENCODING 191
SWIDTH 776 0
DWIDTH 80 0
BBX 72 75 3 0
BITMAP
00000000000000FC00
00000000000003FE00
00000000000007FF00
00000000000007FF80
0000000000000FFF80
0000000000000FFFC0
0000000000000FFFC0
0000000000000FFFC0
0000000000000FFFC0
0000000000000FFF80
00000000000007FF80
00000000000007FF00
00000000000003FE00
00000000000000FC00
000000000000000000
000000000000000000
000000000000000000
000000000000000000
000000000000000000
000000000000000000
000000000000000000
000000000000000000
000000000000000000
000000000000000000
000000000000000000
00000000000007FF80
00000000000007FF80
00000000000007FF80
00000000000007FF80
00000000000007FF80
00000000000007FF80
0000000000000FFF80
0000000000001FFF80
00007FFFFFFFFFFF80
0007FFFFFFFFFFFF00
001FFFFFFFFFFFFF00
007FFFFFFFFFFFFF00
00FFFFFFFFFFFFFE00
03FFFFFFFFFFFFFC00
07FFFFFFFFFFFFF800
0FFFFFFFFFFFFFF000
0FFFFFFFFFFFFFE000
1FFFFFFFFFFFFF8000
3FFFFFFFFFFFF80000
3FFFE0000000000000
7FFF80000000000000
7FFF00000000000000
7FFE00000000000000
FFFC00000000000000
FFFC00000000000000
FFFC00000000000000
FFF800000000000000
FFF800000000000000
FFF800000000000000
FFF800000000000000
FFFC00000000000000
FFFC00000000000000
FFFC00000000000000
FFFE00000000000000
FFFF00000000000000
7FFF80000000000000
7FFFF0000000000000
7FFFFFFFFFFFFFFFFF
3FFFFFFFFFFFFFFFFF
3FFFFFFFFFFFFFFFFF
1FFFFFFFFFFFFFFFFF
0FFFFFFFFFFFFFFFFF
0FFFFFFFFFFFFFFFFF
07FFFFFFFFFFFFFFFF
03FFFFFFFFFFFFFFFF
01FFFFFFFFFFFFFFFF
007FFFFFFFFFFFFFFF
001FFFFFFFFFFFFFFF
0007FFFFFFFFFFFFFF
00007FFFFFFFFFFFFF
ENDCHAR
STARTCHAR Agrave
ENCODING 192
SWIDTH 989 0
DWIDTH 102 0
BBX 99 93 1 0
BITMAP
00000000380000000000000000
000000003F0000000000000000
000000003FE000000000000000
000000003FFE00000000000000
000000003FFFC0000000000000
000000003FFFF8000000000000
000000003FFFFF800000000000
000000003FFFFFF00000000000
0000000007FFFFF00000000000
00000000003FFFF00000000000
000000000001FFF00000000000
0000000000001FF00000000000
00000000000000F00000000000
00000000000000000000000000
00000000000000000000000000
00000000000000000000000000
00000000000000000000000000
000000000001F0000000000000
000000000003FC000000000000
000000000007FE000000000000
00000000000FFF000000000000
00000000001FFF000000000000
00000000001FFF800000000000
00000000003FFFC00000000000
00000000003FFFC00000000000
00000000007FFFE00000000000
0000000000FFFFE00000000000
0000000000FFFFF00000000000
0000000001FFFFF80000000000
0000000001FFFFF80000000000
0000000003FFFFFC0000000000
0000000007FFFFFC0000000000
0000000007FFFFFE0000000000
000000000FFFFFFF0000000000
000000000FFFFFFF0000000000
000000001FFFFFFF8000000000
000000003FFFBFFF8000000000
000000003FFF1FFFC000000000
000000007FFF1FFFE000000000
000000007FFE0FFFE000000000
00000000FFFC0FFFF000000000
00000001FFFC07FFF000000000
00000001FFF803FFF800000000
00000003FFF803FFFC00000000
00000003FFF001FFFC00000000
00000007FFE001FFFE00000000
0000000FFFE000FFFE00000000
0000000FFFC0007FFF00000000
0000001FFFC0007FFF80000000
0000001FFF80003FFF80000000
0000003FFF00001FFFC0000000
0000007FFF00001FFFC0000000
0000007FFE00000FFFE0000000
000000FFFE00000FFFF0000000
000000FFFC000007FFF0000000
000001FFFC000003FFF8000000
000003FFF8000003FFF8000000
000003FFF0000001FFFC000000
000007FFF0000001FFFE000000
000007FFE0000000FFFE000000
00000FFFE00000007FFF000000
00001FFFC00000007FFF000000
00001FFF800000003FFF800000
00003FFF801FFFFFFFFFC00000
00003FFF003FFFFFFFFFC00000
00007FFF003FFFFFFFFFE00000
0000FFFE007FFFFFFFFFE00000
0000FFFC007FFFFFFFFFF00000
0001FFFC00FFFFFFFFFFF80000
0001FFF801FFFFFFFFFFF80000
0003FFF801FFFFFFFFFFFC0000
0007FFF003FFFFFFFFFFFC0000
0007FFE003FFFFFFFFFFFE0000
000FFFE007FFFFFFFFFFFF0000
000FFFC000000000007FFF0000
001FFFC000000000007FFF8000
003FFF8000000000003FFF8000
003FFF8000000000003FFFC000
007FFF0000000000001FFFE000
007FFE0000000000000FFFE000
00FFFE0000000000000FFFF000
01FFFC00000000000007FFF000
01FFFC00000000000007FFF800
03FFF800000000000003FFFC00
03FFF000000000000001FFFC00
07FFF000000000000001FFFE00
0FFFE000000000000000FFFE00
0FFFE000000000000000FFFF00
1FFFC0000000000000007FFF80
1FFF80000000000000007FFF80
3FFF80000000000000003FFFC0
7FFF00000000000000001FFFC0
FFFF00000000000000001FFFE0
ENDCHAR
STARTCHAR Aacute
ENCODING 193
SWIDTH 989 0
DWIDTH 102 0
BBX 99 93 1 0
BITMAP
0000000000000001C000000000
000000000000000FC000000000
00000000000000FFC000000000
00000000000007FFC000000000
0000000000003FFFC000000000
000000000003FFFFC000000000
00000000001FFFFFC000000000
0000000000FFFFFFC000000000
0000000000FFFFFC0000000000
0000000000FFFFC00000000000
0000000000FFF8000000000000
0000000000FF00000000000000
0000000000F000000000000000
00000000000000000000000000
00000000000000000000000000
00000000000000000000000000
00000000000000000000000000
000000000001F0000000000000
000000000003FC000000000000
000000000007FE000000000000
00000000000FFF000000000000
00000000001FFF000000000000
00000000001FFF800000000000
00000000003FFFC00000000000
00000000003FFFC00000000000
00000000007FFFE00000000000
0000000000FFFFE00000000000
0000000000FFFFF00000000000
0000000001FFFFF80000000000
0000000001FFFFF80000000000
0000000003FFFFFC0000000000
0000000007FFFFFC0000000000
0000000007FFFFFE0000000000
000000000FFFFFFF0000000000
000000000FFFFFFF0000000000
000000001FFFFFFF8000000000
000000003FFFBFFF8000000000
000000003FFF1FFFC000000000
000000007FFF1FFFE000000000
000000007FFE0FFFE000000000
00000000FFFC0FFFF000000000
00000001FFFC07FFF000000000
00000001FFF803FFF800000000
00000003FFF803FFFC00000000
00000003FFF001FFFC00000000
00000007FFE001FFFE00000000
0000000FFFE000FFFE00000000
0000000FFFC0007FFF00000000
0000001FFFC0007FFF80000000
0000001FFF80003FFF80000000
0000003FFF00001FFFC0000000
0000007FFF00001FFFC0000000
0000007FFE00000FFFE0000000
000000FFFE00000FFFF0000000
000000FFFC000007FFF0000000
000001FFFC000003FFF8000000
000003FFF8000003FFF8000000
000003FFF0000001FFFC000000
000007FFF0000001FFFE000000
000007FFE0000000FFFE000000
00000FFFE00000007FFF000000
00001FFFC00000007FFF000000
00001FFF800000003FFF800000
00003FFF801FFFFFFFFFC00000
00003FFF003FFFFFFFFFC00000
00007FFF003FFFFFFFFFE00000
0000FFFE007FFFFFFFFFE00000
0000FFFC007FFFFFFFFFF00000
0001FFFC00FFFFFFFFFFF80000
0001FFF801FFFFFFFFFFF80000
0003FFF801FFFFFFFFFFFC0000
0007FFF003FFFFFFFFFFFC0000
0007FFE003FFFFFFFFFFFE0000
000FFFE007FFFFFFFFFFFF0000
000FFFC000000000007FFF0000
001FFFC000000000007FFF8000
003FFF8000000000003FFF8000
003FFF8000000000003FFFC000
007FFF0000000000001FFFE000
007FFE0000000000000FFFE000
00FFFE0000000000000FFFF000
01FFFC00000000000007FFF000
01FFFC00000000000007FFF800
03FFF800000000000003FFFC00
03FFF000000000000001FFFC00
07FFF000000000000001FFFE00
0FFFE000000000000000FFFE00
0FFFE000000000000000FFFF00
1FFFC0000000000000007FFF80
1FFF80000000000000007FFF80
3FFF80000000000000003FFFC0
7FFF00000000000000001FFFC0
FFFF00000000000000001FFFE0
ENDCHAR
STARTCHAR Acircumflex
ENCODING 194
SWIDTH 989 0
DWIDTH 102 0
BBX 99 94 1 0
BITMAP
000000000007FE000000000000
00000000000FFF000000000000
00000000000FFF000000000000
00000000001FFF800000000000
00000000003F9FC00000000000
00000000003F9FC00000000000
00000000007F0FE00000000000
0000000000FE07F00000000000
0000000000FE07F00000000000
0000000001FC03F80000000000
0000000003F801FC0000000000
0000000003F801FC0000000000
0000000007F000FE0000000000
000000000FE000FF0000000000
00000000000000000000000000
00000000000000000000000000
00000000000000000000000000
00000000000000000000000000
000000000001F0000000000000
000000000003FC000000000000
000000000007FE000000000000
00000000000FFF000000000000
00000000001FFF000000000000
00000000001FFF800000000000
00000000003FFFC00000000000
00000000003FFFC00000000000
00000000007FFFE00000000000
0000000000FFFFE00000000000
0000000000FFFFF00000000000
0000000001FFFFF80000000000
0000000001FFFFF80000000000
0000000003FFFFFC0000000000
0000000007FFFFFC0000000000
0000000007FFFFFE0000000000
000000000FFFFFFF0000000000
000000000FFFFFFF0000000000
000000001FFFFFFF8000000000
000000003FFFBFFF8000000000
000000003FFF1FFFC000000000
000000007FFF1FFFE000000000
000000007FFE0FFFE000000000
00000000FFFC0FFFF000000000
00000001FFFC07FFF000000000
00000001FFF803FFF800000000
00000003FFF803FFFC00000000
00000003FFF001FFFC00000000
00000007FFE001FFFE00000000
0000000FFFE000FFFE00000000
0000000FFFC0007FFF00000000
0000001FFFC0007FFF80000000
0000001FFF80003FFF80000000
0000003FFF00001FFFC0000000
0000007FFF00001FFFC0000000
0000007FFE00000FFFE0000000
000000FFFE00000FFFF0000000
000000FFFC000007FFF0000000
000001FFFC000003FFF8000000
000003FFF8000003FFF8000000
000003FFF0000001FFFC000000
000007FFF0000001FFFE000000
000007FFE0000000FFFE000000
00000FFFE00000007FFF000000
00001FFFC00000007FFF000000
00001FFF800000003FFF800000
00003FFF801FFFFFFFFFC00000
00003FFF003FFFFFFFFFC00000
00007FFF003FFFFFFFFFE00000
0000FFFE007FFFFFFFFFE00000
0000FFFC007FFFFFFFFFF00000
0001FFFC00FFFFFFFFFFF80000
0001FFF801FFFFFFFFFFF80000
0003FFF801FFFFFFFFFFFC0000
0007FFF003FFFFFFFFFFFC0000
0007FFE003FFFFFFFFFFFE0000
000FFFE007FFFFFFFFFFFF0000
000FFFC000000000007FFF0000
001FFFC000000000007FFF8000
003FFF8000000000003FFF8000
003FFF8000000000003FFFC000
007FFF0000000000001FFFE000
007FFE0000000000000FFFE000
00FFFE0000000000000FFFF000
01FFFC00000000000007FFF000
01FFFC00000000000007FFF800
03FFF800000000000003FFFC00
03FFF000000000000001FFFC00
07FFF000000000000001FFFE00
0FFFE000000000000000FFFE00
0FFFE000000000000000FFFF00
1FFFC0000000000000007FFF80
1FFF80000000000000007FFF80
3FFF80000000000000003FFFC0
7FFF00000000000000001FFFC0
FFFF00000000000000001FFFE0
ENDCHAR
STARTCHAR Atilde
ENCODING 195
SWIDTH 989 0
DWIDTH 102 0
BBX 99 92 1 0
BITMAP
00000000007C00000000000000
0000000001FF00020000000000
0000000003FFC0060000000000
0000000007FFF00E0000000000
0000000007FFFC1E0000000000
0000000007FFFFFE0000000000
000000000783FFFE0000000000
0000000006007FFE0000000000
0000000004001FF80000000000
00000000080007F00000000000
00000000000000000000000000
00000000000000000000000000
00000000000000000000000000
00000000000000000000000000
00000000000000000000000000
00000000000000000000000000
000000000001F0000000000000
000000000003FC000000000000
000000000007FE000000000000
00000000000FFF000000000000
00000000001FFF000000000000
00000000001FFF800000000000
00000000003FFFC00000000000
00000000003FFFC00000000000
00000000007FFFE00000000000
0000000000FFFFE00000000000
0000000000FFFFF00000000000
0000000001FFFFF80000000000
0000000001FFFFF80000000000
0000000003FFFFFC0000000000
0000000007FFFFFC0000000000
0000000007FFFFFE0000000000
000000000FFFFFFF0000000000
000000000FFFFFFF0000000000
000000001FFFFFFF8000000000
000000003FFFBFFF8000000000
000000003FFF1FFFC000000000
000000007FFF1FFFE000000000
000000007FFE0FFFE000000000
00000000FFFC0FFFF000000000
00000001FFFC07FFF000000000
00000001FFF803FFF800000000
00000003FFF803FFFC00000000
00000003FFF001FFFC00000000
00000007FFE001FFFE00000000
0000000FFFE000FFFE00000000
0000000FFFC0007FFF00000000
0000001FFFC0007FFF80000000
0000001FFF80003FFF80000000
0000003FFF00001FFFC0000000
0000007FFF00001FFFC0000000
0000007FFE00000FFFE0000000
000000FFFE00000FFFF0000000
000000FFFC000007FFF0000000
000001FFFC000003FFF8000000
000003FFF8000003FFF8000000
000003FFF0000001FFFC000000
000007FFF0000001FFFE000000
000007FFE0000000FFFE000000
00000FFFE00000007FFF000000
00001FFFC00000007FFF000000
00001FFF800000003FFF800000
00003FFF801FFFFFFFFFC00000
00003FFF003FFFFFFFFFC00000
00007FFF003FFFFFFFFFE00000
0000FFFE007FFFFFFFFFE00000
0000FFFC007FFFFFFFFFF00000
0001FFFC00FFFFFFFFFFF80000
0001FFF801FFFFFFFFFFF80000
0003FFF801FFFFFFFFFFFC0000
0007FFF003FFFFFFFFFFFC0000
0007FFE003FFFFFFFFFFFE0000
000FFFE007FFFFFFFFFFFF0000
000FFFC000000000007FFF0000
001FFFC000000000007FFF8000
003FFF8000000000003FFF8000
003FFF8000000000003FFFC000
007FFF0000000000001FFFE000
007FFE0000000000000FFFE000
00FFFE0000000000000FFFF000
01FFFC00000000000007FFF000
01FFFC00000000000007FFF800
03FFF800000000000003FFFC00
03FFF000000000000001FFFC00
07FFF000000000000001FFFE00
0FFFE000000000000000FFFE00
0FFFE000000000000000FFFF00
1FFFC0000000000000007FFF80
1FFF80000000000000007FFF80
3FFF80000000000000003FFFC0
7FFF00000000000000001FFFC0
FFFF00000000000000001FFFE0
ENDCHAR
STARTCHAR Adieresis
ENCODING 196
SWIDTH 989 0
DWIDTH 102 0
BBX 99 92 1 0
BITMAP
0000000003E0007C0000000000
000000000FF801FF0000000000
000000000FF801FF0000000000
000000001FFC03FF8000000000
000000001FFC03FF8000000000
000000001FFC03FF8000000000
000000000FF801FF0000000000
000000000FF801FF0000000000
0000000003E0007C0000000000
00000000000000000000000000
00000000000000000000000000
00000000000000000000000000
00000000000000000000000000
00000000000000000000000000
00000000000000000000000000
00000000000000000000000000
000000000001F0000000000000
000000000003FC000000000000
000000000007FE000000000000
00000000000FFF000000000000
00000000001FFF000000000000
00000000001FFF800000000000
00000000003FFFC00000000000
00000000003FFFC00000000000
00000000007FFFE00000000000
0000000000FFFFE00000000000
0000000000FFFFF00000000000
0000000001FFFFF80000000000
0000000001FFFFF80000000000
0000000003FFFFFC0000000000
0000000007FFFFFC0000000000
0000000007FFFFFE0000000000
000000000FFFFFFF0000000000
000000000FFFFFFF0000000000
000000001FFFFFFF8000000000
000000003FFFBFFF8000000000
000000003FFF1FFFC000000000
000000007FFF1FFFE000000000
000000007FFE0FFFE000000000
00000000FFFC0FFFF000000000
00000001FFFC07FFF000000000
00000001FFF803FFF800000000
00000003FFF803FFFC00000000
00000003FFF001FFFC00000000
00000007FFE001FFFE00000000
0000000FFFE000FFFE00000000
0000000FFFC0007FFF00000000
0000001FFFC0007FFF80000000
0000001FFF80003FFF80000000
0000003FFF00001FFFC0000000
0000007FFF00001FFFC0000000
0000007FFE00000FFFE0000000
000000FFFE00000FFFF0000000
000000FFFC000007FFF0000000
000001FFFC000003FFF8000000
000003FFF8000003FFF8000000
000003FFF0000001FFFC000000
000007FFF0000001FFFE000000
000007FFE0000000FFFE000000
00000FFFE00000007FFF000000
00001FFFC00000007FFF000000
00001FFF800000003FFF800000
00003FFF801FFFFFFFFFC00000
00003FFF003FFFFFFFFFC00000
00007FFF003FFFFFFFFFE00000
0000FFFE007FFFFFFFFFE00000
0000FFFC007FFFFFFFFFF00000
0001FFFC00FFFFFFFFFFF80000
0001FFF801FFFFFFFFFFF80000
0003FFF801FFFFFFFFFFFC0000
0007FFF003FFFFFFFFFFFC0000
0007FFE003FFFFFFFFFFFE0000
000FFFE007FFFFFFFFFFFF0000
000FFFC000000000007FFF0000
001FFFC000000000007FFF8000
003FFF8000000000003FFF8000
003FFF8000000000003FFFC000
007FFF0000000000001FFFE000
007FFE0000000000000FFFE000
00FFFE0000000000000FFFF000
01FFFC00000000000007FFF000
01FFFC00000000000007FFF800
03FFF800000000000003FFFC00
03FFF000000000000001FFFC00
07FFF000000000000001FFFE00
0FFFE000000000000000FFFE00
0FFFE000000000000000FFFF00
1FFFC0000000000000007FFF80
1FFF80000000000000007FFF80
3FFF80000000000000003FFFC0
7FFF00000000000000001FFFC0
FFFF00000000000000001FFFE0
ENDCHAR
STARTCHAR Aring
ENCODING 197
SWIDTH 989 0
DWIDTH 102 0
BBX 99 101 1 0
BITMAP
00000000000FFF000000000000
00000000007FFFC00000000000
0000000000FFFFF00000000000
0000000001FFFFF80000000000
0000000003F001F80000000000
0000000003E0007C0000000000
0000000007C0003C0000000000
000000000780001E0000000000
000000000780001E0000000000
000000000780001E0000000000
000000000780001E0000000000
000000000780001E0000000000
000000000780001E0000000000
000000000780003E0000000000
0000000007C0003C0000000000
0000000003E0007C0000000000
0000000003F001F80000000000
0000000001FFFFF00000000000
0000000000FFFFE00000000000
00000000007FFFC00000000000
00000000000FFF000000000000
00000000000000000000000000
00000000000000000000000000
00000000000000000000000000
00000000000000000000000000
000000000001F0000000000000
000000000003FC000000000000
000000000007FE000000000000
00000000000FFF000000000000
00000000001FFF000000000000
00000000001FFF800000000000
00000000003FFFC00000000000
00000000003FFFC00000000000
00000000007FFFE00000000000
0000000000FFFFE00000000000
0000000000FFFFF00000000000
0000000001FFFFF80000000000
0000000001FFFFF80000000000
0000000003FFFFFC0000000000
0000000007FFFFFC0000000000
0000000007FFFFFE0000000000
000000000FFFFFFF0000000000
000000000FFFFFFF0000000000
000000001FFFFFFF8000000000
000000003FFFBFFF8000000000
000000003FFF1FFFC000000000
000000007FFF1FFFE000000000
000000007FFE0FFFE000000000
00000000FFFC0FFFF000000000
00000001FFFC07FFF000000000
00000001FFF803FFF800000000
00000003FFF803FFFC00000000
00000003FFF001FFFC00000000
00000007FFE001FFFE00000000
0000000FFFE000FFFE00000000
0000000FFFC0007FFF00000000
0000001FFFC0007FFF80000000
0000001FFF80003FFF80000000
0000003FFF00001FFFC0000000
0000007FFF00001FFFC0000000
0000007FFE00000FFFE0000000
000000FFFE00000FFFF0000000
000000FFFC000007FFF0000000
000001FFFC000003FFF8000000
000003FFF8000003FFF8000000
000003FFF0000001FFFC000000
000007FFF0000001FFFE000000
000007FFE0000000FFFE000000
00000FFFE00000007FFF000000
00001FFFC00000007FFF000000
00001FFF800000003FFF800000
00003FFF801FFFFFFFFFC00000
00003FFF003FFFFFFFFFC00000
00007FFF003FFFFFFFFFE00000
0000FFFE007FFFFFFFFFE00000
0000FFFC007FFFFFFFFFF00000
0001FFFC00FFFFFFFFFFF80000
0001FFF801FFFFFFFFFFF80000
0003FFF801FFFFFFFFFFFC0000
0007FFF003FFFFFFFFFFFC0000
0007FFE003FFFFFFFFFFFE0000
000FFFE007FFFFFFFFFFFF0000
000FFFC000000000007FFF0000
001FFFC000000000007FFF8000
003FFF8000000000003FFF8000
003FFF8000000000003FFFC000
007FFF0000000000001FFFE000
007FFE0000000000000FFFE000
00FFFE0000000000000FFFF000
01FFFC00000000000007FFF000
01FFFC00000000000007FFF800
03FFF800000000000003FFFC00
03FFF000000000000001FFFC00
07FFF000000000000001FFFE00
0FFFE000000000000000FFFE00
0FFFE000000000000000FFFF00
1FFFC0000000000000007FFF80
1FFF80000000000000007FFF80
3FFF80000000000000003FFFC0
7FFF00000000000000001FFFC0
FFFF00000000000000001FFFE0
ENDCHAR
STARTCHAR AE
ENCODING 198
SWIDTH 1345 0
DWIDTH 139 0
BBX 133 75 1 0
BITMAP
000000000007FFFFFFFFFFFFFFFFFFFFF8
00000000000FFFFFFFFFFFFFFFFFFFFFF8
00000000001FFFFFFFFFFFFFFFFFFFFFF8
00000000003FFFFFFFFFFFFFFFFFFFFFF8
00000000007FFFFFFFFFFFFFFFFFFFFFF8
00000000007FFFFFFFFFFFFFFFFFFFFFF8
0000000000FFFFFFFFFFFFFFFFFFFFFFF8
0000000000FFFFFFFFFFFFFFFFFFFFFFF8
0000000001FFFFFFFFFFFFFFFFFFFFFFF8
0000000003FFFFFFFFFFFFFFFFFFFFFFF8
0000000003FFFFFFFFFFFFFFFFFFFFFFF8
0000000007FFFFFFFFFFFFFFFFFFFFFFF8
0000000007FFFFFFFFFFFFFFFFFFFFFFF8
000000000FFFC00003FFE0000000000000
000000000FFFC00003FFE0000000000000
000000001FFF800003FFE0000000000000
000000003FFF000003FFE0000000000000
000000003FFF000003FFE0000000000000
000000007FFE000003FFE0000000000000
000000007FFE000003FFE0000000000000
00000000FFFC000003FFE0000000000000
00000000FFFC000003FFE0000000000000
00000001FFF8000003FFE0000000000000
00000003FFF0000003FFE0000000000000
00000003FFF0000003FFE0000000000000
00000007FFE0000003FFE0000000000000
00000007FFE0000003FFE0000000000000
0000000FFFC0000003FFE0000000000000
0000001FFFC0000003FFE0000000000000
0000001FFF80000003FFE0000000000000
0000003FFF80000003FFE0000000000000
0000003FFF00000003FFE007FFFFFFFFC0
0000007FFE00000003FFE007FFFFFFFFC0
0000007FFE00000003FFE007FFFFFFFFC0
000000FFFC00000003FFE007FFFFFFFFC0
000001FFFC00000003FFE007FFFFFFFFC0
000001FFF800000003FFE007FFFFFFFFC0
000003FFF800000003FFE007FFFFFFFFC0
000003FFF000000003FFE007FFFFFFFFC0
000007FFE000000003FFE007FFFFFFFFC0
00000FFFE000000003FFE007FFFFFFFFC0
00000FFFC000000003FFE007FFFFFFFFC0
00001FFFC000000003FFE0000000000000
00001FFF8000000003FFE0000000000000
00003FFF8000000003FFE0000000000000
00003FFF0000000003FFE0000000000000
00007FFE003FFFFFFFFFE0000000000000
0000FFFE003FFFFFFFFFE0000000000000
0000FFFC007FFFFFFFFFE0000000000000
0001FFFC00FFFFFFFFFFE0000000000000
0001FFF800FFFFFFFFFFE0000000000000
0003FFF801FFFFFFFFFFE0000000000000
0003FFF001FFFFFFFFFFE0000000000000
0007FFE003FFFFFFFFFFE0000000000000
000FFFE003FFFFFFFFFFE0000000000000
000FFFC007FFFFFFFFFFE0000000000000
001FFFC00FFFFFFFFFFFE0000000000000
001FFF800000000003FFE0000000000000
003FFF800000000003FFE0000000000000
007FFF000000000003FFE0000000000000
007FFE000000000003FFE0000000000000
00FFFE000000000003FFE0000000000000
00FFFC000000000003FFFFFFFFFFFFFFF8
01FFFC000000000003FFFFFFFFFFFFFFF8
01FFF8000000000003FFFFFFFFFFFFFFF8
03FFF8000000000003FFFFFFFFFFFFFFF8
07FFF0000000000003FFFFFFFFFFFFFFF8
07FFE0000000000003FFFFFFFFFFFFFFF8
0FFFE0000000000003FFFFFFFFFFFFFFF8
0FFFC0000000000003FFFFFFFFFFFFFFF8
1FFFC0000000000003FFFFFFFFFFFFFFF8
3FFF80000000000003FFFFFFFFFFFFFFF8
3FFF80000000000003FFFFFFFFFFFFFFF8
7FFF00000000000003FFFFFFFFFFFFFFF8
FFFE00000000000003FFFFFFFFFFFFFFF8
ENDCHAR
STARTCHAR Ccedilla
ENCODING 199
SWIDTH 829 0
DWIDTH 85 0
BBX 77 96 4 -21
BITMAP
00000003FFFFFFFFFFF8
0000003FFFFFFFFFFFF8
000001FFFFFFFFFFFFF8
00000FFFFFFFFFFFFFF8
00003FFFFFFFFFFFFFF8
0000FFFFFFFFFFFFFFF8
0001FFFFFFFFFFFFFFF8
0003FFFFFFFFFFFFFFF8
000FFFFFFFFFFFFFFFF8
001FFFFFFFFFFFFFFFF8
003FFFFFFFFFFFFFFFF8
007FFFFFFFFFFFFFFFF8
00FFFFFFFFFFFFFFFFF8
00FFFFFF000000000000
01FFFFF0000000000000
03FFFFC0000000000000
03FFFF00000000000000
07FFFE00000000000000
0FFFF800000000000000
0FFFF000000000000000
0FFFE000000000000000
1FFFE000000000000000
1FFFC000000000000000
3FFF8000000000000000
3FFF8000000000000000
3FFF0000000000000000
7FFF0000000000000000
7FFE0000000000000000
7FFE0000000000000000
7FFC0000000000000000
7FFC0000000000000000
7FFC0000000000000000
FFFC0000000000000000
FFFC0000000000000000
FFFC0000000000000000
FFF80000000000000000
FFF80000000000000000
FFF80000000000000000
FFF80000000000000000
FFF80000000000000000
FFFC0000000000000000
7FFC0000000000000000
7FFC0000000000000000
7FFC0000000000000000
7FFC0000000000000000
7FFE0000000000000000
7FFE0000000000000000
3FFE0000000000000000
3FFF0000000000000000
3FFF0000000000000000
1FFF8000000000000000
1FFF8000000000000000
1FFFC000000000000000
0FFFE000000000000000
0FFFF000000000000000
07FFF800000000000000
07FFFC00000000000000
03FFFE00000000000000
03FFFF00000000000000
01FFFFC0000000000000
00FFFFF8000000000000
00FFFFFF000000000000
007FFFFFFFFFFFFFFFF8
003FFFFFFFFFFFFFFFF8
001FFFFFFFFFFFFFFFF8
000FFFFFFFFFFFFFFFF8
0007FFFFFFFFFFFFFFF8
0003FFFFFFFFFFFFFFF8
0000FFFFFFFFFFFFFFF8
00007FFFFFFFFFFFFFF8
00001FFFFFFFFFFFFFF8
000007FFFFFFFFFFFFF8
000001FFFFFFFFFFFFF8
0000003FFFFFFFFFFFF8
00000003FFFFFFFFFFF8
00000000000000000000
00000000000000000000
00000000000000000000
00000000000000000000
00000000000000000000
000000003FFF00000000
000000001FFE00000000
000000001FFE00000000
000000001FFC00000000
000000000FFC00000000
000000000FF800000000
0000000007F800000000
0000000007F000000000
0000000003F000000000
0000000003E000000000
0000000003E000000000
0000000001E000000000
0000000001C000000000
0000000000C000000000
00000000008000000000
00000000008000000000
ENDCHAR
STARTCHAR Egrave
ENCODING 200
SWIDTH 759 0
DWIDTH 78 0
BBX 67 93 6 0
BITMAP
000070000000000000
00007E000000000000
00007FE00000000000
00007FFC0000000000
00007FFF8000000000
00007FFFF800000000
00007FFFFF00000000
00007FFFFFE0000000
00000FFFFFE0000000
0000007FFFE0000000
00000003FFE0000000
000000003FE0000000
0000000001E0000000
000000000000000000
000000000000000000
000000000000000000
000000000000000000
000000000000000000
FFFFFFFFFFFFFFFFE0
FFFFFFFFFFFFFFFFE0
FFFFFFFFFFFFFFFFE0
FFFFFFFFFFFFFFFFE0
FFFFFFFFFFFFFFFFE0
FFFFFFFFFFFFFFFFE0
FFFFFFFFFFFFFFFFE0
FFFFFFFFFFFFFFFFE0
FFFFFFFFFFFFFFFFE0
FFFFFFFFFFFFFFFFE0
FFFFFFFFFFFFFFFFE0
FFFFFFFFFFFFFFFFE0
FFFFFFFFFFFFFFFFE0
FFF800000000000000
FFF800000000000000
FFF800000000000000
FFF800000000000000
FFF800000000000000
FFF800000000000000
FFF800000000000000
FFF800000000000000
FFF800000000000000
FFF800000000000000
FFF800000000000000
FFF800000000000000
FFF800000000000000
FFF800000000000000
FFF800000000000000
FFF800000000000000
FFF800000000000000
FFF800000000000000
FFF801FFFFFFFFFF80
FFF801FFFFFFFFFF80
FFF801FFFFFFFFFF80
FFF801FFFFFFFFFF80
FFF801FFFFFFFFFF80
FFF801FFFFFFFFFF80
FFF801FFFFFFFFFF80
FFF801FFFFFFFFFF80
FFF801FFFFFFFFFF80
FFF801FFFFFFFFFF80
FFF801FFFFFFFFFF80
FFF800000000000000
FFF800000000000000
FFF800000000000000
FFF800000000000000
FFF800000000000000
FFF800000000000000
FFF800000000000000
FFF800000000000000
FFF800000000000000
FFF800000000000000
FFF800000000000000
FFF800000000000000
FFF800000000000000
FFF800000000000000
FFF800000000000000
FFF800000000000000
FFF800000000000000
FFF800000000000000
FFF800000000000000
FFF800000000000000
FFFFFFFFFFFFFFFFE0
FFFFFFFFFFFFFFFFE0
FFFFFFFFFFFFFFFFE0
FFFFFFFFFFFFFFFFE0
FFFFFFFFFFFFFFFFE0
FFFFFFFFFFFFFFFFE0
FFFFFFFFFFFFFFFFE0
FFFFFFFFFFFFFFFFE0
FFFFFFFFFFFFFFFFE0
FFFFFFFFFFFFFFFFE0
FFFFFFFFFFFFFFFFE0
FFFFFFFFFFFFFFFFE0
FFFFFFFFFFFFFFFFE0
ENDCHAR
STARTCHAR Eacute
ENCODING 201
SWIDTH 759 0
DWIDTH 78 0
BBX 67 93 6 0
BITMAP
000000000003800000
00000000001F800000
0000000001FF800000
000000000FFF800000
000000007FFF800000
00000003FFFF800000
0000003FFFFF800000
000001FFFFFF800000
000001FFFFFC000000
000001FFFF80000000
000001FFF000000000
000001FF0000000000
000001E00000000000
000000000000000000
000000000000000000
000000000000000000
000000000000000000
000000000000000000
FFFFFFFFFFFFFFFFE0
FFFFFFFFFFFFFFFFE0
FFFFFFFFFFFFFFFFE0
FFFFFFFFFFFFFFFFE0
FFFFFFFFFFFFFFFFE0
FFFFFFFFFFFFFFFFE0
FFFFFFFFFFFFFFFFE0
FFFFFFFFFFFFFFFFE0
FFFFFFFFFFFFFFFFE0
FFFFFFFFFFFFFFFFE0
FFFFFFFFFFFFFFFFE0
FFFFFFFFFFFFFFFFE0
FFFFFFFFFFFFFFFFE0
FFF800000000000000
FFF800000000000000
FFF800000000000000
FFF800000000000000
FFF800000000000000
FFF800000000000000
FFF800000000000000
FFF800000000000000
FFF800000000000000
FFF800000000000000
FFF800000000000000
FFF800000000000000
FFF800000000000000
FFF800000000000000
FFF800000000000000
FFF800000000000000
FFF800000000000000
FFF800000000000000
FFF801FFFFFFFFFF80
FFF801FFFFFFFFFF80
FFF801FFFFFFFFFF80
FFF801FFFFFFFFFF80
FFF801FFFFFFFFFF80
FFF801FFFFFFFFFF80
FFF801FFFFFFFFFF80
FFF801FFFFFFFFFF80
FFF801FFFFFFFFFF80
FFF801FFFFFFFFFF80
FFF801FFFFFFFFFF80
FFF800000000000000
FFF800000000000000
FFF800000000000000
FFF800000000000000
FFF800000000000000
FFF800000000000000
FFF800000000000000
FFF800000000000000
FFF800000000000000
FFF800000000000000
FFF800000000000000
FFF800000000000000
FFF800000000000000
FFF800000000000000
FFF800000000000000
FFF800000000000000
FFF800000000000000
FFF800000000000000
FFF800000000000000
FFF800000000000000
FFFFFFFFFFFFFFFFE0
FFFFFFFFFFFFFFFFE0
FFFFFFFFFFFFFFFFE0
FFFFFFFFFFFFFFFFE0
FFFFFFFFFFFFFFFFE0
FFFFFFFFFFFFFFFFE0
FFFFFFFFFFFFFFFFE0
FFFFFFFFFFFFFFFFE0
FFFFFFFFFFFFFFFFE0
FFFFFFFFFFFFFFFFE0
FFFFFFFFFFFFFFFFE0
FFFFFFFFFFFFFFFFE0
FFFFFFFFFFFFFFFFE0
ENDCHAR
STARTCHAR Ecircumflex
ENCODING 202
SWIDTH 759 0
DWIDTH 78 0
BBX 67 94 6 0
BITMAP
0000000FFC00000000
0000001FFE00000000
0000001FFE00000000
0000003FFF00000000
0000007F3F80000000
0000007F3F80000000
000000FE1FC0000000
000001FC0FE0000000
000001FC0FE0000000
000003F807F0000000
000007F003F8000000
000007F003F8000000
00000FE001FC000000
00001FC000FE000000
000000000000000000
000000000000000000
000000000000000000
000000000000000000
000000000000000000
FFFFFFFFFFFFFFFFE0
FFFFFFFFFFFFFFFFE0
FFFFFFFFFFFFFFFFE0
FFFFFFFFFFFFFFFFE0
FFFFFFFFFFFFFFFFE0
FFFFFFFFFFFFFFFFE0
FFFFFFFFFFFFFFFFE0
FFFFFFFFFFFFFFFFE0
FFFFFFFFFFFFFFFFE0
FFFFFFFFFFFFFFFFE0
FFFFFFFFFFFFFFFFE0
FFFFFFFFFFFFFFFFE0
FFFFFFFFFFFFFFFFE0
FFF800000000000000
FFF800000000000000
FFF800000000000000
FFF800000000000000
FFF800000000000000
FFF800000000000000
FFF800000000000000
FFF800000000000000
FFF800000000000000
FFF800000000000000
FFF800000000000000
FFF800000000000000
FFF800000000000000
FFF800000000000000
FFF800000000000000
FFF800000000000000
FFF800000000000000
FFF800000000000000
FFF801FFFFFFFFFF80
FFF801FFFFFFFFFF80
FFF801FFFFFFFFFF80
FFF801FFFFFFFFFF80
FFF801FFFFFFFFFF80
FFF801FFFFFFFFFF80
FFF801FFFFFFFFFF80
FFF801FFFFFFFFFF80
FFF801FFFFFFFFFF80
FFF801FFFFFFFFFF80
FFF801FFFFFFFFFF80
FFF800000000000000
FFF800000000000000
FFF800000000000000
FFF800000000000000
FFF800000000000000
FFF800000000000000
FFF800000000000000
FFF800000000000000
FFF800000000000000
FFF800000000000000
FFF800000000000000
FFF800000000000000
FFF800000000000000
FFF800000000000000
FFF800000000000000
FFF800000000000000
FFF800000000000000
FFF800000000000000
FFF800000000000000
FFF800000000000000
FFFFFFFFFFFFFFFFE0
FFFFFFFFFFFFFFFFE0
FFFFFFFFFFFFFFFFE0
FFFFFFFFFFFFFFFFE0
FFFFFFFFFFFFFFFFE0
FFFFFFFFFFFFFFFFE0
FFFFFFFFFFFFFFFFE0
FFFFFFFFFFFFFFFFE0
FFFFFFFFFFFFFFFFE0
FFFFFFFFFFFFFFFFE0
FFFFFFFFFFFFFFFFE0
FFFFFFFFFFFFFFFFE0
FFFFFFFFFFFFFFFFE0
ENDCHAR
STARTCHAR Edieresis
ENCODING 203
SWIDTH 759 0
DWIDTH 78 0
BBX 67 92 6 0
BITMAP
000007C000F8000000
00001FF001FE000000
00001FF003FE000000
00003FF807FF000000
00003FF807FF000000
00003FF807FF000000
00001FF003FE000000
00001FF003FE000000
000007C000F8000000
000000000000000000
000000000000000000
000000000000000000
000000000000000000
000000000000000000
000000000000000000
000000000000000000
000000000000000000
FFFFFFFFFFFFFFFFE0
FFFFFFFFFFFFFFFFE0
FFFFFFFFFFFFFFFFE0
FFFFFFFFFFFFFFFFE0
FFFFFFFFFFFFFFFFE0
FFFFFFFFFFFFFFFFE0
FFFFFFFFFFFFFFFFE0
FFFFFFFFFFFFFFFFE0
FFFFFFFFFFFFFFFFE0
FFFFFFFFFFFFFFFFE0
FFFFFFFFFFFFFFFFE0
FFFFFFFFFFFFFFFFE0
FFFFFFFFFFFFFFFFE0
FFF800000000000000
FFF800000000000000
FFF800000000000000
FFF800000000000000
FFF800000000000000
FFF800000000000000
FFF800000000000000
FFF800000000000000
FFF800000000000000
FFF800000000000000
FFF800000000000000
FFF800000000000000
FFF800000000000000
FFF800000000000000
FFF800000000000000
FFF800000000000000
FFF800000000000000
FFF800000000000000
FFF801FFFFFFFFFF80
FFF801FFFFFFFFFF80
FFF801FFFFFFFFFF80
FFF801FFFFFFFFFF80
FFF801FFFFFFFFFF80
FFF801FFFFFFFFFF80
FFF801FFFFFFFFFF80
FFF801FFFFFFFFFF80
FFF801FFFFFFFFFF80
FFF801FFFFFFFFFF80
FFF801FFFFFFFFFF80
FFF800000000000000
FFF800000000000000
FFF800000000000000
FFF800000000000000
FFF800000000000000
FFF800000000000000
FFF800000000000000
FFF800000000000000
FFF800000000000000
FFF800000000000000
FFF800000000000000
FFF800000000000000
FFF800000000000000
FFF800000000000000
FFF800000000000000
FFF800000000000000
FFF800000000000000
FFF800000000000000
FFF800000000000000
FFF800000000000000
FFFFFFFFFFFFFFFFE0
FFFFFFFFFFFFFFFFE0
FFFFFFFFFFFFFFFFE0
FFFFFFFFFFFFFFFFE0
FFFFFFFFFFFFFFFFE0
FFFFFFFFFFFFFFFFE0
FFFFFFFFFFFFFFFFE0
FFFFFFFFFFFFFFFFE0
FFFFFFFFFFFFFFFFE0
FFFFFFFFFFFFFFFFE0
FFFFFFFFFFFFFFFFE0
FFFFFFFFFFFFFFFFE0
FFFFFFFFFFFFFFFFE0
ENDCHAR
STARTCHAR Igrave
ENCODING 204
SWIDTH 267 0
DWIDTH 28 0
BBX 26 93 -2 0
BITMAP
E0000000
FC000000
FF800000
FFF80000
FFFF0000
FFFFE000
FFFFFE00
FFFFFFC0
1FFFFFC0
00FFFFC0
0007FFC0
00007FC0
000003C0
00000000
00000000
00000000
00000000
00000000
007FFC00
007FFC00
007FFC00
007FFC00
007FFC00
007FFC00
007FFC00
007FFC00
007FFC00
007FFC00
007FFC00
007FFC00
007FFC00
007FFC00
007FFC00
007FFC00
007FFC00
007FFC00
007FFC00
007FFC00
007FFC00
007FFC00
007FFC00
007FFC00
007FFC00
007FFC00
007FFC00
007FFC00
007FFC00
007FFC00
007FFC00
007FFC00
007FFC00
007FFC00
007FFC00
007FFC00
007FFC00
007FFC00
007FFC00
007FFC00
007FFC00
007FFC00
007FFC00
007FFC00
007FFC00
007FFC00
007FFC00
007FFC00
007FFC00
007FFC00
007FFC00
007FFC00
007FFC00
007FFC00
007FFC00
007FFC00
007FFC00
007FFC00
007FFC00
007FFC00
007FFC00
007FFC00
007FFC00
007FFC00
007FFC00
007FFC00
007FFC00
007FFC00
007FFC00
007FFC00
007FFC00
007FFC00
007FFC00
007FFC00
007FFC00
ENDCHAR
STARTCHAR Iacute
ENCODING 205
SWIDTH 267 0
DWIDTH 28 0
BBX 26 93 4 0
BITMAP
000001C0
00000FC0
0000FFC0
0007FFC0
003FFFC0
03FFFFC0
1FFFFFC0
FFFFFFC0
FFFFFC00
FFFFC000
FFF80000
FF000000
F0000000
00000000
00000000
00000000
00000000
00000000
1FFF0000
1FFF0000
1FFF0000
1FFF0000
1FFF0000
1FFF0000
1FFF0000
1FFF0000
1FFF0000
1FFF0000
1FFF0000
1FFF0000
1FFF0000
1FFF0000
1FFF0000
1FFF0000
1FFF0000
1FFF0000
1FFF0000
1FFF0000
1FFF0000
1FFF0000
1FFF0000
1FFF0000
1FFF0000
1FFF0000
1FFF0000
1FFF0000
1FFF0000
1FFF0000
1FFF0000
1FFF0000
1FFF0000
1FFF0000
1FFF0000
1FFF0000
1FFF0000
1FFF0000
1FFF0000
1FFF0000
1FFF0000
1FFF0000
1FFF0000
1FFF0000
1FFF0000
1FFF0000
1FFF0000
1FFF0000
1FFF0000
1FFF0000
1FFF0000
1FFF0000
1FFF0000
1FFF0000
1FFF0000
1FFF0000
1FFF0000
1FFF0000
1FFF0000
1FFF0000
1FFF0000
1FFF0000
1FFF0000
1FFF0000
1FFF0000
1FFF0000
1FFF0000
1FFF0000
1FFF0000
1FFF0000
1FFF0000
1FFF0000
1FFF0000
1FFF0000
1FFF0000
ENDCHAR
STARTCHAR Icircumflex
ENCODING 206
SWIDTH 267 0
DWIDTH 28 0
BBX 28 94 0 0
BITMAP
007FE000
00FFF000
01FFF000
01FFF800
03F9FC00
07F1FC00
07F0FE00
0FE0FF00
1FC07F00
1FC03F80
3F803FC0
7F801FC0
7F000FE0
FE000FF0
00000000
00000000
00000000
00000000
00000000
01FFF000
01FFF000
01FFF000
01FFF000
01FFF000
01FFF000
01FFF000
01FFF000
01FFF000
01FFF000
01FFF000
01FFF000
01FFF000
01FFF000
01FFF000
01FFF000
01FFF000
01FFF000
01FFF000
01FFF000
01FFF000
01FFF000
01FFF000
01FFF000
01FFF000
01FFF000
01FFF000
01FFF000
01FFF000
01FFF000
01FFF000
01FFF000
01FFF000
01FFF000
01FFF000
01FFF000
01FFF000
01FFF000
01FFF000
01FFF000
01FFF000
01FFF000
01FFF000
01FFF000
01FFF000
01FFF000
01FFF000
01FFF000
01FFF000
01FFF000
01FFF000
01FFF000
01FFF000
01FFF000
01FFF000
01FFF000
01FFF000
01FFF000
01FFF000
01FFF000
01FFF000
01FFF000
01FFF000
01FFF000
01FFF000
01FFF000
01FFF000
01FFF000
01FFF000
01FFF000
01FFF000
01FFF000
01FFF000
01FFF000
01FFF000
ENDCHAR
STARTCHAR Idieresis
ENCODING 207
SWIDTH 267 0
DWIDTH 28 0
BBX 30 92 -1 0
BITMAP
1F0003E0
7F800FF0
FFC00FF8
FFC01FFC
FFE01FFC
FFC01FFC
FFC00FF8
7F800FF0
1F0003E0
00000000
00000000
00000000
00000000
00000000
00000000
00000000
00000000
00FFF800
00FFF800
00FFF800
00FFF800
00FFF800
00FFF800
00FFF800
00FFF800
00FFF800
00FFF800
00FFF800
00FFF800
00FFF800
00FFF800
00FFF800
00FFF800
00FFF800
00FFF800
00FFF800
00FFF800
00FFF800
00FFF800
00FFF800
00FFF800
00FFF800
00FFF800
00FFF800
00FFF800
00FFF800
00FFF800
00FFF800
00FFF800
00FFF800
00FFF800
00FFF800
00FFF800
00FFF800
00FFF800
00FFF800
00FFF800
00FFF800
00FFF800
00FFF800
00FFF800
00FFF800
00FFF800
00FFF800
00FFF800
00FFF800
00FFF800
00FFF800
00FFF800
00FFF800
00FFF800
00FFF800
00FFF800
00FFF800
00FFF800
00FFF800
00FFF800
00FFF800
00FFF800
00FFF800
00FFF800
00FFF800
00FFF800
00FFF800
00FFF800
00FFF800
00FFF800
00FFF800
00FFF800
00FFF800
00FFF800
00FFF800
ENDCHAR
STARTCHAR Eth
ENCODING 208
SWIDTH 877 0
DWIDTH 90 0
BBX 85 75 1 0
BITMAP
07FFFFFFFFFFFE00000000
07FFFFFFFFFFFFF0000000
07FFFFFFFFFFFFFE000000
07FFFFFFFFFFFFFF800000
07FFFFFFFFFFFFFFE00000
07FFFFFFFFFFFFFFF80000
07FFFFFFFFFFFFFFFC0000
07FFFFFFFFFFFFFFFF0000
07FFFFFFFFFFFFFFFF8000
07FFFFFFFFFFFFFFFFC000
07FFFFFFFFFFFFFFFFE000
07FFFFFFFFFFFFFFFFF000
07FFFFFFFFFFFFFFFFF800
07FFC000000007FFFFFC00
07FFC0000000007FFFFC00
07FFC0000000001FFFFE00
07FFC00000000007FFFF00
07FFC00000000001FFFF00
07FFC00000000000FFFF80
07FFC000000000007FFF80
07FFC000000000003FFFC0
07FFC000000000001FFFC0
07FFC000000000000FFFE0
07FFC000000000000FFFE0
07FFC0000000000007FFE0
07FFC0000000000007FFF0
07FFC0000000000003FFF0
07FFC0000000000003FFF0
07FFC0000000000001FFF0
07FFC0000000000001FFF8
07FFC0000000000001FFF8
FFFFFFFFFFFF000001FFF8
FFFFFFFFFFFF000000FFF8
FFFFFFFFFFFF000000FFF8
FFFFFFFFFFFF000000FFF8
FFFFFFFFFFFF000000FFF8
FFFFFFFFFFFF000000FFF8
FFFFFFFFFFFF000000FFF8
FFFFFFFFFFFF000000FFF8
FFFFFFFFFFFF000000FFF8
FFFFFFFFFFFF000000FFF8
FFFFFFFFFFFF000000FFF8
07FFC0000000000000FFF8
07FFC0000000000001FFF8
07FFC0000000000001FFF8
07FFC0000000000001FFF0
07FFC0000000000001FFF0
07FFC0000000000003FFF0
07FFC0000000000003FFF0
07FFC0000000000007FFE0
07FFC0000000000007FFE0
07FFC000000000000FFFE0
07FFC000000000001FFFC0
07FFC000000000001FFFC0
07FFC000000000003FFF80
07FFC000000000007FFF80
07FFC00000000000FFFF00
07FFC00000000003FFFF00
07FFC00000000007FFFE00
07FFC0000000001FFFFC00
07FFC0000000007FFFFC00
07FFC000000007FFFFF800
07FFFFFFFFFFFFFFFFF000
07FFFFFFFFFFFFFFFFE000
07FFFFFFFFFFFFFFFFC000
07FFFFFFFFFFFFFFFF8000
07FFFFFFFFFFFFFFFF0000
07FFFFFFFFFFFFFFFE0000
07FFFFFFFFFFFFFFFC0000
07FFFFFFFFFFFFFFF00000
07FFFFFFFFFFFFFFC00000
07FFFFFFFFFFFFFF800000
07FFFFFFFFFFFFFC000000
07FFFFFFFFFFFFE0000000
07FFFFFFFFFFFE00000000
ENDCHAR
STARTCHAR Ntilde
ENCODING 209
SWIDTH 873 0
DWIDTH 90 0
BBX 78 92 6 0
BITMAP
00000003E00000000000
0000000FF80010000000
0000001FFE0010000000
0000003FFF8070000000
0000003FFFE0F0000000
0000003FFFFFF0000000
0000003C1FFFF0000000
0000003003FFF0000000
0000002000FFE0000000
00000040003F80000000
00000000000000000000
00000000000000000000
00000000000000000000
00000000000000000000
00000000000000000000
00000000000000000000
00000000000000000000
0F800000000000007FFC
1FE00000000000007FFC
3FF00000000000007FFC
7FF80000000000007FFC
7FFC0000000000007FFC
FFFE0000000000007FFC
FFFF0000000000007FFC
FFFF8000000000007FFC
FFFFC000000000007FFC
FFFFE000000000007FFC
FFFFF000000000007FFC
FFFFF800000000007FFC
FFFFFC00000000007FFC
FFFFFE00000000007FFC
FFFFFF80000000007FFC
FFFFFFC0000000007FFC
FFFFFFE0000000007FFC
FFFFFFF0000000007FFC
FFFFFFF8000000007FFC
FFFFFFFC000000007FFC
FFFFFFFE000000007FFC
FFFFFFFF000000007FFC
FFFBFFFF800000007FFC
FFF9FFFFC00000007FFC
FFF8FFFFE00000007FFC
FFF87FFFF00000007FFC
FFF83FFFF80000007FFC
FFF81FFFFC0000007FFC
FFF80FFFFE0000007FFC
FFF807FFFF0000007FFC
FFF803FFFF8000007FFC
FFF801FFFFC000007FFC
FFF800FFFFE000007FFC
FFF8007FFFF000007FFC
FFF8003FFFF800007FFC
FFF8000FFFFC00007FFC
FFF80007FFFE00007FFC
FFF80003FFFF00007FFC
FFF80001FFFF80007FFC
FFF80000FFFFC0007FFC
FFF800007FFFE0007FFC
FFF800003FFFF0007FFC
FFF800001FFFF8007FFC
FFF800000FFFFC007FFC
FFF8000007FFFE007FFC
FFF8000003FFFF007FFC
FFF8000001FFFF807FFC
FFF8000000FFFFC07FFC
FFF80000007FFFE07FFC
FFF80000003FFFF07FFC
FFF80000001FFFF87FFC
FFF80000000FFFFC7FFC
FFF800000007FFFE7FFC
FFF800000003FFFF7FFC
FFF800000001FFFFFFFC
FFF800000000FFFFFFFC
FFF8000000007FFFFFFC
FFF8000000003FFFFFFC
FFF8000000001FFFFFFC
FFF8000000000FFFFFFC
FFF80000000007FFFFFC
FFF80000000003FFFFFC
FFF80000000001FFFFFC
FFF80000000000FFFFFC
FFF800000000007FFFFC
FFF800000000003FFFFC
FFF800000000001FFFFC
FFF800000000000FFFFC
FFF8000000000007FFFC
FFF8000000000003FFFC
FFF8000000000001FFF8
FFF8000000000000FFF8
FFF80000000000007FF0
FFF80000000000001FE0
FFF800000000000007C0
ENDCHAR
STARTCHAR Ograve
ENCODING 210
SWIDTH 968 0
DWIDTH 100 0
BBX 92 93 4 0
BITMAP
000000038000000000000000
00000003F000000000000000
00000003FE00000000000000
00000003FFE0000000000000
00000003FFFC000000000000
00000003FFFF800000000000
00000003FFFFF80000000000
00000003FFFFFF0000000000
000000007FFFFF0000000000
0000000003FFFF0000000000
00000000001FFF0000000000
000000000001FF0000000000
0000000000000F0000000000
000000000000000000000000
000000000000000000000000
000000000000000000000000
000000000000000000000000
000000000000000000000000
00000003FFFFFFFC00000000
0000003FFFFFFFFFC0000000
000001FFFFFFFFFFF8000000
00000FFFFFFFFFFFFF000000
00003FFFFFFFFFFFFFC00000
0000FFFFFFFFFFFFFFE00000
0001FFFFFFFFFFFFFFF80000
0003FFFFFFFFFFFFFFFC0000
000FFFFFFFFFFFFFFFFF0000
001FFFFFFFFFFFFFFFFF8000
003FFFFFFFFFFFFFFFFFC000
007FFFFFFFFFFFFFFFFFE000
00FFFFFFFFFFFFFFFFFFE000
00FFFFFF0000001FFFFFF000
01FFFFF000000001FFFFF800
03FFFFC0000000003FFFFC00
03FFFF00000000000FFFFC00
07FFFE000000000007FFFE00
0FFFF8000000000003FFFE00
0FFFF0000000000001FFFF00
0FFFE0000000000000FFFF00
1FFFE00000000000007FFF80
1FFFC00000000000003FFF80
3FFF800000000000001FFFC0
3FFF800000000000001FFFC0
3FFF000000000000000FFFC0
7FFF000000000000000FFFC0
7FFE0000000000000007FFE0
7FFE0000000000000007FFE0
7FFC0000000000000007FFE0
7FFC0000000000000003FFE0
7FFC0000000000000003FFE0
FFFC0000000000000003FFE0
FFFC0000000000000003FFE0
FFFC0000000000000003FFF0
FFF80000000000000003FFF0
FFF80000000000000003FFF0
FFF80000000000000003FFF0
FFF80000000000000003FFF0
FFF80000000000000003FFE0
FFFC0000000000000003FFE0
7FFC0000000000000003FFE0
7FFC0000000000000003FFE0
7FFC0000000000000003FFE0
7FFC0000000000000003FFE0
7FFE0000000000000007FFE0
7FFE0000000000000007FFE0
3FFE0000000000000007FFC0
3FFF000000000000000FFFC0
3FFF000000000000000FFFC0
1FFF800000000000001FFF80
1FFF800000000000001FFF80
1FFFC00000000000003FFF80
0FFFE00000000000007FFF00
0FFFF0000000000000FFFF00
07FFF8000000000001FFFE00
07FFFC000000000003FFFE00
03FFFE000000000007FFFC00
03FFFF00000000001FFFFC00
01FFFFC0000000003FFFF800
00FFFFF800000001FFFFF000
00FFFFFF0000001FFFFFE000
007FFFFFFFFFFFFFFFFFE000
003FFFFFFFFFFFFFFFFFC000
001FFFFFFFFFFFFFFFFF8000
000FFFFFFFFFFFFFFFFF0000
0007FFFFFFFFFFFFFFFE0000
0003FFFFFFFFFFFFFFF80000
0000FFFFFFFFFFFFFFF00000
00007FFFFFFFFFFFFFE00000
00001FFFFFFFFFFFFF800000
000007FFFFFFFFFFFE000000
000001FFFFFFFFFFF8000000
0000003FFFFFFFFFC0000000
00000003FFFFFFF800000000
ENDCHAR
ENDFONT
